<?xml version="1.0" encoding="UTF-8"?>
<svg id="Layer_1" data-name="Layer 1" xmlns="http://www.w3.org/2000/svg" viewBox="0 0 67.28 42.49">
  <defs>
    <style>
      .cls-1 {
        fill: #fff;
        stroke: red;
        stroke-width: 10px;
      }
    </style>
  </defs>
  <path class="cls-1" d="M62.27,22.07v-.04s0-.04,0-.04c.11-3.97-2.61-8.06-8.33-11.51-5.61-3.38-13.01-5.38-19.46-5.46h-.03s-.03,0-.03,0c-8.91-.22-16.51,1.84-21.74,5-5.29,3.2-7.6,7.08-7.68,10.56h0c-.11,4.97,3.25,9.66,10.77,13.02,7.44,3.33,17.93,4.76,29.04,3.38,4.92-.61,9.39-2.88,12.61-5.88,3.29-3.06,4.82-6.43,4.85-9.02Z"/>
</svg>