<svg width="89" height="56" viewBox="0 0 89 56" fill="none" xmlns="http://www.w3.org/2000/svg">
<path d="M83.4004 29.2154L83.4009 29.1736L83.4021 29.1317C83.5706 23.1042 79.4379 17.301 71.7096 12.6495C64.102 8.07059 54.1188 5.37079 45.3883 5.25683L45.3588 5.25645L45.3293 5.25571C33.3942 4.959 23.1163 7.71707 15.9517 12.0408C8.72658 16.4011 5.23594 21.9247 5.12425 27.1968L5.12419 27.1999C4.9627 34.6086 10.0265 41.2002 20.178 45.7443C30.2597 50.2572 44.3205 52.1371 59.1188 50.3038C65.9188 49.4613 72.0906 46.325 76.54 42.182C81.0584 37.9747 83.3561 33.1803 83.4004 29.2154ZM0.125373 27.0909C0.446071 11.9524 20.0096 -0.375292 45.4536 0.257259L88.4001 29.2714C88.2716 40.757 75.5435 53.3072 59.7335 55.2658C28.729 59.1069 -0.321555 47.5954 0.125373 27.0909Z" fill="white" stroke="#001EFF" stroke-width="10"/>
</svg>
