<svg width="429" height="283" viewBox="0 0 429 283" fill="none" xmlns="http://www.w3.org/2000/svg">
<path d="M415.075 151.956L415.076 151.897L415.078 151.839C416.118 114.628 390.555 82.602 351.803 59.278C313.22 36.0557 263.156 22.5533 219.116 21.9785L219.074 21.9779L219.033 21.9769C160.039 20.5103 108.252 34.0894 71.2613 56.4129C34.1857 78.7875 12.7763 109.343 12.087 141.882L12.0869 141.887C11.1181 186.335 41.9751 222.166 93.0219 245.016C143.971 267.823 213.558 276.828 285.801 267.878C321.595 263.444 353.949 246.997 377.376 225.183C400.9 203.279 414.8 176.594 415.075 151.956Z" fill="white" stroke="#FF0000" stroke-width="14"/>
<path d="M50.3897 108.541L63.1855 105.084C65.6457 104.349 67.8362 103.814 70.0525 103.426C94.4324 99.1619 108.549 112.834 111.806 131.451C116.277 157.013 100.782 192.92 65.0057 206.03L69.2404 232.852L32.9591 235.239L10.2623 120.28C28.6397 114.782 41.7052 111.126 50.3897 108.541ZM73.7352 150.597L73.6318 150.006C73.5543 149.563 73.6245 149.094 73.5211 148.503C73.0042 145.548 71.117 140.853 64.0247 142.093C61.0696 142.61 57.1835 143.899 52.2519 147.046L54.9096 170.945C68.4037 165.387 73.6167 154.273 73.7352 150.597ZM211.466 191.681C203.054 203.659 186.564 213.853 169.128 216.903C150.216 220.211 130.35 215.463 117.301 196.578C111.51 187.846 107.788 178.751 106.159 169.442C100.292 135.902 121.258 102.54 152.831 88.0335C157.5 85.9985 162.003 84.7541 166.583 83.9529C186.53 80.4638 203.296 89.2566 210.546 98.4955C217.475 107.638 222.819 119.038 225.068 131.893C228.273 150.215 225.139 171.473 211.466 191.681ZM180.656 132.2C176.815 126.78 171.204 125.173 165.146 126.233C152.735 128.404 138.704 143.954 142.374 164.935C144.933 179.563 153.207 184.207 162.072 182.656C170.051 181.261 178.038 174.686 181.474 166.471C185.686 156.598 186.366 149.17 185.306 143.112C184.505 138.531 182.799 134.87 180.656 132.2ZM266.702 205.927L200.561 95.0647L237.701 70.5995L261.84 116.324L281.374 70.4221L310.456 105.232L318.935 49.2335L357.183 67.669L339.535 182.68L296.154 151.437L266.702 205.927ZM379.105 177.586C369.202 175.815 361.903 169.783 360.766 163.282C359.448 155.746 365.643 150.246 374.361 148.721C387.954 146.344 400.768 154.305 402.293 163.023C403.559 170.263 397.39 175.91 388.524 177.461C385.717 177.952 382.537 178.051 379.105 177.586ZM393.581 45.3133L398.97 142.285C393.03 139.669 385.55 138.693 377.424 140.115C372.252 141.02 367.731 143.029 364.026 145.352L355.101 53.4145L393.581 45.3133Z" fill="#FFAB00"/>
</svg>
