<svg width="126" height="134" viewBox="0 0 126 134" fill="none" xmlns="http://www.w3.org/2000/svg">
<path d="M72.1935 133.807V120.207H71.7935C70.7672 121.702 69.6421 123.051 68.4288 124.265C61.3664 131.331 51.3169 133.807 40.3935 133.807C18.9935 133.807 0.593506 117.607 0.593506 92.6067C0.593506 82.2877 4.6266 73.1786 11.3564 66.4461C18.844 58.9554 29.6699 54.4067 41.9935 54.4067C53.9935 54.4067 62.1935 58.6067 67.9935 63.2067V57.4067C67.9935 44.8067 59.3935 42.2067 46.5935 42.2067C34.5935 42.2067 25.1935 44.8067 14.7935 48.0067L22.5935 16.2067L33.2001 5.5998C59.4001 5.5998 114.794 22.6067 114.794 53.2067V54.6067L123.2 119.6L117.897 124.903L112.594 130.207L72.1935 133.807ZM46.9935 83.0067C41.8808 83.839 37.4749 85.873 34.7425 88.6044C32.8787 90.4674 31.7935 92.6549 31.7935 95.0067C31.7935 100.807 37.5935 104.407 45.5935 104.407C53.2711 104.407 58.7953 102.179 61.9397 99.0357C63.9557 97.0205 64.9935 94.6289 64.9935 92.2067C64.9935 87.6067 60.7935 82.6067 51.3935 82.6067C49.9935 82.6067 48.3935 83.0067 46.9935 83.0067Z" fill="#001EFF"/>
<path d="M125.4 44.0001V42.6001L114.794 53.2067V54.6067L125.4 44.0001Z" fill="#001EFF"/>
<path d="M125.4 42.6001C125.4 12.0001 100.4 0.799805 74.2001 0.799805L33.2001 5.5998C59.4001 5.5998 114.794 22.6067 114.794 53.2067L125.4 42.6001Z" fill="#001EFF"/>
<path d="M33.2001 5.5998C45.8001 2.1998 60.0001 0.799805 74.2001 0.799805L33.2001 5.5998Z" fill="#001EFF"/>
<path d="M123.2 119.6L125.4 44.0001L114.794 54.6067L123.2 119.6Z" fill="#001EFF"/>
<path d="M78.6 46.7998V52.5998L67.9935 63.2067V57.4067L78.6 46.7998Z" fill="#001EFF"/>
<path d="M57.2001 31.6001C70.0001 31.6001 78.6 34.1998 78.6 46.7998L67.9935 57.4067C67.9935 44.8067 59.3935 42.2067 46.5935 42.2067L57.2001 31.6001Z" fill="#001EFF"/>
<path d="M78.6 52.5998C72.8 47.9998 64.6 43.7998 52.6 43.7998L41.9935 54.4067C53.9935 54.4067 62.1935 58.6067 67.9935 63.2067L78.6 52.5998Z" fill="#001EFF"/>
<path d="M33.2001 5.5998L25.4001 37.4001L14.7935 48.0067L22.5935 16.2067L33.2001 5.5998Z" fill="#001EFF"/>
<path d="M25.4001 37.4001C35.8001 34.2001 45.2001 31.6001 57.2001 31.6001L46.5935 42.2067C34.5935 42.2067 25.1935 44.8067 14.7935 48.0067L25.4001 37.4001Z" fill="#001EFF"/>
<path d="M61.9999 72C71.3999 72 75.5999 77 75.5999 81.6L64.9935 92.2067C64.9935 87.6067 60.7935 82.6067 51.3935 82.6067L61.9999 72Z" fill="#001EFF"/>
<path d="M75.5999 81.6C75.5999 84.0221 74.5621 86.4138 72.5461 88.4291L61.9428 99.0324C63.9566 97.0178 64.9935 94.6275 64.9935 92.2067L75.5999 81.6Z" fill="#001EFF"/>
<path d="M57.6 72.4C59 72.4 60.5999 72 61.9999 72L51.3935 82.6067C49.9935 82.6067 48.3935 83.0067 46.9935 83.0067L57.6 72.4Z" fill="#001EFF"/>
<path d="M52.6 43.7998C40.2764 43.7998 29.4507 48.3485 21.963 55.8391L11.3672 66.435C18.8544 58.9508 29.6758 54.4067 41.9935 54.4067L52.6 43.7998Z" fill="#001EFF"/>
<path d="M82.8 123.2L123.2 119.6L117.897 124.903L112.594 130.207L72.1935 133.807L82.8 123.2Z" fill="#001EFF"/>
<path d="M45.349 77.9976C48.0815 75.2662 52.4873 73.2323 57.6 72.4L46.9935 83.0067C41.8808 83.839 37.4749 85.873 34.7425 88.6044L45.349 77.9976Z" fill="#001EFF"/>
<path d="M72.5461 88.4291C69.4016 91.5724 63.8777 93.8002 56.2001 93.8002L45.5935 104.407C53.2711 104.407 58.7953 102.179 61.9397 99.0357L72.5461 88.4291Z" fill="#001EFF"/>
<path d="M82.4001 109.6H82.8001L72.1935 120.207H71.7935L82.4001 109.6Z" fill="#001EFF"/>
<path d="M79.0353 113.659C80.2486 112.445 81.3738 111.096 82.4001 109.6L71.7935 120.207C70.7672 121.702 69.6421 123.051 68.4288 124.265L79.0353 113.659Z" fill="#001EFF"/>
<path d="M82.8001 109.6L82.8 123.2L72.1935 133.807V120.207L82.8001 109.6Z" fill="#001EFF"/>
<path d="M42.4001 84.3999C42.4001 82.0496 43.4838 79.8635 45.3453 78.0013L34.7425 88.6044C32.8787 90.4674 31.7935 92.6549 31.7935 95.0067L42.4001 84.3999Z" fill="#001EFF"/>
<path d="M56.2001 93.8002C48.2001 93.8002 42.4001 90.1999 42.4001 84.3999L31.7935 95.0067C31.7935 100.807 37.5935 104.407 45.5935 104.407L56.2001 93.8002Z" fill="#001EFF"/>
<path d="M21.963 55.8391C15.2332 62.5717 11.2001 71.681 11.2001 82L0.593506 92.6067C0.593506 82.2877 4.6266 73.1786 11.3564 66.4461L21.963 55.8391Z" fill="#001EFF"/>
<path d="M50.9999 123.2C61.919 123.2 71.9649 120.726 79.0269 113.666L68.4288 124.265C61.3664 131.331 51.3169 133.807 40.3935 133.807L50.9999 123.2Z" fill="#001EFF"/>
<path d="M11.2001 82C11.2001 107 29.5999 123.2 50.9999 123.2L40.3935 133.807C18.9935 133.807 0.593506 117.607 0.593506 92.6067L11.2001 82Z" fill="#001EFF"/>
<path d="M82.8 123.2L82.8001 109.6H82.4001C75.4001 119.8 63.7999 123.2 50.9999 123.2C29.5999 123.2 11.2001 107 11.2001 82C11.2001 60.2 29.2 43.7998 52.6 43.7998C64.6 43.7998 72.8 47.9998 78.6 52.5998V46.7998C78.6 34.1998 70.0001 31.6001 57.2001 31.6001C45.2001 31.6001 35.8001 34.2001 25.4001 37.4001L33.2001 5.5998C45.8001 2.1998 60.0001 0.799805 74.2001 0.799805C100.4 0.799805 125.4 12.0001 125.4 42.6001V44.0001L123.2 119.6L82.8 123.2ZM57.6 72.4C49 73.8 42.4001 78.5999 42.4001 84.3999C42.4001 90.1999 48.2001 93.8002 56.2001 93.8002C68.8001 93.8002 75.5999 87.8 75.5999 81.6C75.5999 77 71.3999 72 61.9999 72C60.5999 72 59 72.4 57.6 72.4Z" fill="#FF0000"/>
</svg>
