<svg width="364" height="206" viewBox="0 0 364 206" fill="none" xmlns="http://www.w3.org/2000/svg">
<path d="M103.1 137.4H53.8L85.4 119.3L78.6 114.5L44.5 100.4L91.4 92.4998L83.7 83.8998L60 41.7998L110.8 68.9998L118.2 69.9998L116.5 62.6998V23L153.4 62.2998L157.2 64.3998L159.9 60.9998L193 21L200.8 60.5998L203.2 64.2998L207.2 62.5998L255.3 41.7998L247.5 62.1998L244.6 69.5998L252.5 69.0998L301.2 66.2998L269.1 94.8998L262.9 100.4L270.5 103.5L309.2 119.3L263.2 130.3L252.7 132.8L283.9 176.2L224.8 148.5L219.6 146.2L217.8 151.5L207.3 183.1L190.9 153.6L187.8 148.1L183 152.2L157.4 174.4L155.2 152.7L154.5 146.1L148.3 148.3L92.4 168.6L107.4 145.5L112.6 137.6H103.1V137.4Z" fill="#FFCC00" stroke="#FFCC00" stroke-width="18"/>
<path d="M7.23455 102.061L19.8646 28.2505C38.162 27.9414 49.1801 29.0508 55.9823 30.2777C59.3835 30.8911 61.6942 31.6006 63.0602 32.1396L65.0535 32.9869C67.4169 34.4862 69.4457 36.2178 71.2345 38.1988C74.253 41.4746 77.0329 46.073 76.0786 51.3637C75.2778 55.804 71.8842 60.5571 63.9232 65.7546C74.1697 73.8458 76.4647 81.6735 75.2889 88.1923C74.2154 94.1443 70.3153 99.0011 66.6539 102.535C64.5273 104.591 62.1343 106.5 59.6036 108.092C58.205 108.815 56.2566 109.342 53.7754 109.577C49.4914 110.073 42.2958 109.945 31.2421 107.952C24.7233 106.776 16.8555 104.967 7.23455 102.061ZM50.0759 55.453L50.2122 54.6972C50.4337 53.4691 50.5159 50.8501 47.0203 50.2196C45.7921 49.9981 44.0234 50.0692 41.6971 50.5276L39.6244 60.3964C40.2687 60.6102 40.4577 60.6442 41.119 60.7635C44.4256 61.3599 46.5878 60.1891 48.0453 58.5986C48.894 57.6786 49.5709 56.6301 50.0759 55.453ZM50.2777 82.9983C50.3707 81.942 50.3692 80.8687 50.0501 79.9332C49.5499 78.3798 48.2165 76.5785 45.0988 76.0161C42.9259 75.6242 39.8608 75.8518 35.6635 76.9482L35.1025 87.0896C36.2192 87.3886 37.0694 87.5419 38.1087 87.7294C43.6827 88.7348 46.5062 87.6832 48.2471 86.1438C49.1904 85.2409 49.8672 84.1924 50.2777 82.9983ZM135.17 117.137C127.475 122.48 115.32 124.97 104.172 122.959C92.0795 120.778 81.1902 113.546 77.5124 99.3238C75.9576 92.8002 75.7255 86.5152 76.7991 80.5632C80.6672 59.1173 100.618 43.6936 122.786 41.9366C126.04 41.7431 129.02 41.9879 131.948 42.5162C144.702 44.8166 152.838 53.7953 155.158 60.9446C157.306 67.9653 158.004 75.9927 156.521 84.2121C154.408 95.9271 147.839 108.009 135.17 117.137ZM129.769 74.607C128.656 70.5043 125.639 68.3018 121.766 67.6031C113.83 66.1717 101.972 72.4222 99.5522 85.8377C97.8652 95.1908 101.813 99.8048 107.481 100.827C112.583 101.747 118.831 99.5576 122.706 95.3792C127.413 90.3752 129.459 86.0619 130.158 82.1884C130.686 79.2596 130.468 76.684 129.769 74.607ZM210.407 130.707C202.713 136.05 190.558 138.54 179.41 136.53C167.317 134.348 156.427 127.117 152.75 112.894C151.195 106.371 150.963 100.086 152.036 94.1335C155.904 72.6876 175.855 57.2639 198.023 55.5069C201.277 55.3134 204.257 55.5583 207.186 56.0865C219.94 58.3869 228.075 67.3656 230.395 74.5149C232.543 81.5356 233.241 89.563 231.759 97.7824C229.646 109.497 223.077 121.579 210.407 130.707ZM205.007 88.1774C203.893 84.0746 200.876 81.8721 197.003 81.1734C189.067 79.742 177.209 85.9925 174.789 99.408C173.102 108.761 177.05 113.375 182.719 114.398C187.82 115.318 194.068 113.128 197.943 108.949C202.65 103.945 204.697 99.6322 205.395 95.7587C205.923 92.83 205.705 90.2543 205.007 88.1774ZM219.36 128.323L255.906 62.5329L273.882 95.9178L300.241 76.8702L311.98 144.833L285.872 159.244L281.017 126.665L264.113 146.832L253.008 120.247L238.705 146.542L219.36 128.323ZM317.974 159.864C312.414 156.617 309.358 151.384 310.108 147.227C310.977 142.409 315.912 140.47 321.486 141.475C330.177 143.043 336.121 150.651 335.116 156.225C334.281 160.854 329.329 162.887 323.661 161.865C321.866 161.541 319.933 160.9 317.974 159.864ZM355.828 83.5794L337.691 143.032C334.698 140.151 330.419 137.916 325.223 136.979C321.916 136.383 318.757 136.593 316.019 137.172L330.922 79.9652L355.828 83.5794Z" fill="#FF0000"/>
</svg>
