<svg width="399" height="206" viewBox="0 0 399 206" fill="none" xmlns="http://www.w3.org/2000/svg">
<path d="M110.1 137.4H60.7999L92.3999 119.3L85.5999 114.5L53.9999 103.5L98.3999 92.5003L90.6999 83.9003L66.9999 41.8003L117.8 69.0003L125.2 70.0003L123.5 62.7003V23.0005L160.4 62.3003L164.2 64.4003L166.9 61.0003L200 21.0005L207.8 60.6003L210.2 64.3003L214.2 62.6003L262.3 41.8003L254.5 62.2003L251.6 69.6003L259.5 69.1003L308.2 66.3003L276.1 94.9003L269.9 100.4L277.5 103.5L316.2 119.3L270.2 130.3L259.7 132.8L290.9 176.2L231.8 148.5L226.6 146.2L224.8 151.5L214.3 183.1L197.9 153.6L194.8 148.1L190 152.2L164.4 174.4L162.2 152.7L161.5 146.1L155.3 148.3L99.3999 168.6L114.4 145.5L119.6 137.6H110.1V137.4Z" fill="#FFCC00" stroke="#FFCC00" stroke-width="18"/>
<path d="M3.73499 92.0405L3.19306 94.1824L5.25211 94.9835C15.0997 98.815 23.2199 101.363 29.9949 103.138C41.4395 106.138 49.1581 106.913 53.9797 106.739C56.7652 106.691 59.1661 106.274 61.0608 105.477L61.1578 105.436L61.2511 105.387C64.175 103.854 66.9598 101.969 69.4589 99.9081C73.6868 96.4261 78.6254 91.285 80.4251 84.4315C82.3033 77.2788 80.5382 68.9225 72.1098 60.1013C79.1833 55.7234 82.9551 51.1579 84.2372 46.2754C85.9576 39.7236 82.863 33.9062 79.8264 30.0472C77.9945 27.674 75.8681 25.5549 73.3532 23.6714L73.1895 23.5488L73.008 23.4544L71.0054 22.413L70.9765 22.398L70.9472 22.3837C69.3956 21.6275 66.892 20.651 63.2817 19.7048C56.1121 17.8257 44.5829 15.7606 25.4321 14.5863L23.3638 14.4595L22.8555 16.4684L3.73499 92.0405ZM50.401 49.0339L50.3947 49.0398C49.4518 49.9186 48.22 50.5772 46.3139 50.3242L48.0755 44.3203C49.4876 44.2493 50.4673 44.3471 51.0809 44.5079C51.6827 44.6656 51.9724 44.858 52.1007 44.9687C52.2183 45.0701 52.2668 45.1584 52.2974 45.2464C52.3856 45.4994 52.3694 45.9066 52.25 46.3611L52.1236 46.8427C51.6547 47.6775 51.0811 48.4044 50.401 49.0339ZM50.0178 73.7517L50.0228 73.7725L50.0281 73.7933C50.137 74.2179 50.1398 74.812 50.0212 75.6408C49.6727 76.3429 49.1836 76.9602 48.5292 77.5028C47.3925 78.3424 45.23 79.2337 40.0408 77.8736C39.7022 77.7849 39.3922 77.7036 39.0939 77.6222L39.972 71.0808C43.2723 70.6267 45.5208 70.7383 46.9888 71.123C48.1791 71.435 48.861 71.9159 49.2659 72.3461C49.6799 72.7859 49.9059 73.2815 50.0178 73.7517ZM144.952 122.387L144.971 122.376L144.989 122.365C154.6 116.53 161.442 109.039 165.924 100.98C164.737 106.745 164.647 112.835 165.643 119.165L165.647 119.189L165.651 119.212C168.528 135.457 180.173 144.461 193.264 147.892C205.241 151.031 218.769 149.407 227.844 144.112L227.862 144.101L227.881 144.089C242.364 135.297 250.559 122.743 253.864 110.155C256.18 101.339 256.103 92.5461 254.359 84.7187L254.355 84.6981L254.35 84.6776C252.305 76.1753 243.89 65.4901 229.931 61.8314C226.766 61.002 223.491 60.4715 219.869 60.4034L219.845 60.403L219.82 60.403C200.073 60.4204 180.97 70.4636 171.357 86.8727C173.273 78.5814 173.108 70.3604 171.468 62.994L171.463 62.9734L171.458 62.9529C169.413 54.4506 160.999 43.7653 147.039 40.1067C143.874 39.2773 140.6 38.7468 136.977 38.6787L136.953 38.6782L136.928 38.6782C112.829 38.6994 89.6871 53.6541 83.5857 76.8891C81.8905 83.3448 81.6175 90.2371 82.7516 97.4404L82.7553 97.464L82.7594 97.4875C85.6361 113.732 97.281 122.736 110.373 126.167C122.349 129.306 135.877 127.682 144.952 122.387ZM139.078 76.1166L139.092 76.1897L139.11 76.2618C139.553 78.0217 139.596 80.2818 138.904 82.9157C138.012 86.313 135.849 90.2228 130.826 94.7829L130.82 94.7888L130.813 94.7948C127.019 98.2895 121.21 99.7669 116.877 98.6311C114.526 98.0151 112.805 96.7459 111.843 94.8407C110.861 92.8926 110.48 89.8943 111.638 85.4835C114.911 73.0215 126.426 68.3874 133.152 70.15C136.371 70.9937 138.467 72.8901 139.078 76.1166ZM221.97 97.8414L221.984 97.9144L222.002 97.9865C222.445 99.7465 222.488 102.007 221.796 104.64C220.904 108.038 218.741 111.948 213.718 116.508L213.712 116.514L213.705 116.52C209.91 120.014 204.102 121.492 199.768 120.356C197.418 119.74 195.696 118.471 194.735 116.565C193.752 114.617 193.372 111.619 194.53 107.208C197.803 94.7462 209.318 90.1121 216.044 91.8747C219.263 92.7184 221.358 94.6149 221.97 97.8414ZM239.806 140.346L238.729 141.969L240.039 143.41L258.663 163.891L260.842 166.287L262.608 163.572L276.766 141.814L284.518 165.359L285.801 169.256L288.676 166.329L303.992 150.734L306.002 179.402L306.254 182.989L309.528 181.504L337.831 168.673L339.453 167.937L339.288 166.163L332.609 94.6772L332.237 90.6936L328.819 92.7745L302.314 108.916L287.498 75.4135L285.652 71.2388L283.128 75.0426L239.806 140.346Z" fill="#FF0000" stroke="#001EFF" stroke-width="5"/>
<path d="M394.536 112.874L395.556 110.184L392.749 109.55L367.16 103.773L365.003 103.286L364.257 105.368L342.647 165.656L341.265 169.51L345.324 168.979C348.297 168.59 352.528 168.174 355.366 168.918C357.206 169.4 359.027 170.973 360.764 173.234C362.23 175.142 363.409 177.229 364.376 178.94C364.532 179.218 364.684 179.485 364.829 179.74L367.46 184.343L369.338 179.386L394.536 112.874Z" fill="#FF0000" stroke="#001EFF" stroke-width="5"/>
<path d="M345.724 191.309L345.767 191.339L345.811 191.367C347.976 192.737 350.169 193.664 352.261 194.212C359.513 196.113 365.774 191.533 367.339 185.574C369.302 178.098 364.159 170.84 354.401 168.282C351.176 167.437 347.583 167.373 344.509 168.296C341.423 169.223 338.523 171.283 337.582 174.865C336.088 180.556 339.769 187.183 345.724 191.309Z" fill="#FF0000" stroke="#001EFF" stroke-width="5"/>
</svg>
