<?xml version="1.0" encoding="UTF-8"?>
<svg id="Layer_1" xmlns="http://www.w3.org/2000/svg" version="1.1" viewBox="0 0 816.6 442">
  <!-- Generator: Adobe Illustrator 29.0.1, SVG Export Plug-In . SVG Version: 2.1.0 Build 192)  -->
  <defs>
    <style>
      .st0 {
        fill: #ffab00;
        stroke: #fff;
        stroke-width: 26px;
      }
    </style>
  </defs>
  <path class="st0" d="M745.2,324.3l-71.5-52.5-25.6-18.8,30.3-9.4,92.7-28.8-97.5-39.7h0l78.6-86.8-168.5,46h0s0,0,0,0l3.5-93.9-123.6,82.3h0s-8.3-10-8.3-10l-60.1-72.3-48.6,66-7.2,9.8-11.4-4.3-130.9-50,22,79h0s-147.8-16-147.8-16l86.2,87.4h0s0,0,0,0l-103.2,46.7,152,31.7h0l-52.8,95.6,144.4-58.9h0s0,0,0,0l31.8,91,51.4-88.2h0s0,0,0,0l82.9,82.4,35-88.1h0s0,0,0,0l116.4,50.5-13.5-60.3,143.6,9.8Z"/>
</svg>