<svg width="431" height="252" viewBox="0 0 431 252" fill="none" xmlns="http://www.w3.org/2000/svg">
<path d="M137.556 156.405L69.5 169L100.5 138.5L55.5 119L114 105.264L84.1111 71.3588L143.778 79.75L135.667 44.3707L187.111 73.3999L215.333 37L238.222 73.2865L296.111 47.7725L284.222 79.2964L347.111 75.5544L304.556 114.222L356 135.654L313 154.5L327.889 200.176L256.444 166.157L242.778 208L221.111 168.312L187.333 198.135L184.111 166.044L115.111 191.558L137.556 156.405Z" stroke="#FFCC00" stroke-width="18"/>
<path d="M137.556 156.405L70.5 168.312L100 139L56 119L114 105.264L84.1111 71.3588L143.778 79.75L135.667 44.3707L187.111 73.3999L215.333 37L238.222 73.2865L296.111 47.7725L284.222 79.2964L347.111 75.5544L306.5 114.5L356 135.654L311.5 154.5L327.889 200.176L256.444 166.157L242.778 208L221.111 168.312L187.333 198.135L184.111 166.044L115.111 191.558L137.556 156.405Z" fill="#FFCC00" stroke="white" stroke-width="7"/>
<path d="M106.429 141.602L91.9274 70.8352L116.061 64.7582L120.383 93.3667L139.167 72.7174L148.113 96.4708L162.918 68.449L179.726 85.2417L149.195 142.75L132.036 118.245L106.429 141.602Z" fill="#001EFF"/>
<path d="M223.339 147.431C216.686 152.208 206.094 154.553 196.32 152.95C185.718 151.21 176.098 145.038 172.686 132.655C171.237 126.974 170.947 121.482 171.803 116.264C173.543 105.663 179.779 96.6648 188.357 90.5019C194.992 85.7343 203.03 82.6635 211.472 81.8599C214.314 81.6458 216.923 81.8186 219.491 82.2399C230.672 84.0747 237.909 91.8116 240.036 98.0297C242.011 104.138 242.732 111.146 241.549 118.352C239.864 128.623 234.288 139.276 223.339 147.431ZM218.029 110.325C216.999 106.753 214.331 104.87 210.935 104.312C207.535 103.754 203.341 104.814 199.716 107.416C195.924 110.137 192.754 114.547 191.768 120.561C190.422 128.761 193.937 132.74 198.907 133.555C202.427 134.133 206.541 133.017 209.757 130.709C210.627 130.084 211.432 129.372 212.142 128.582C216.187 124.142 217.917 120.343 218.474 116.947C218.895 114.38 218.669 112.131 218.029 110.325Z" fill="#001EFF"/>
<path d="M257.349 166.366L242.847 95.599L266.981 89.522L271.303 118.131L290.087 97.4812L299.033 121.235L313.838 93.2128L330.646 110.006L300.115 167.514L282.956 143.009L257.349 166.366Z" fill="#001EFF"/>
<path d="M336.662 105.686L319.854 88.8929L313.838 93.2128L330.646 110.005L336.662 105.686Z" fill="#001EFF"/>
<path d="M319.854 88.8925L305.048 116.914L299.033 121.234L313.838 93.2123L319.854 88.8925Z" fill="#001EFF"/>
<path d="M305.049 116.914L296.102 93.161L290.086 97.4808L299.033 121.234L305.049 116.914Z" fill="#001EFF"/>
<path d="M306.131 163.194L336.662 105.685L330.646 110.005L300.115 167.514L306.131 163.194Z" fill="#001EFF"/>
<path d="M296.102 93.161L277.318 113.81L271.303 118.13L290.086 97.4808L296.102 93.161Z" fill="#001EFF"/>
<path d="M277.318 113.81L272.996 85.2015L266.98 89.5214L271.302 118.13L277.318 113.81Z" fill="#001EFF"/>
<path d="M272.996 85.202L248.863 91.279L242.847 95.5989L266.98 89.5218L272.996 85.202Z" fill="#001EFF"/>
<path d="M288.972 138.689L306.131 163.194L300.115 167.514L282.956 143.009L288.972 138.689Z" fill="#001EFF"/>
<path d="M246.051 93.71C243.924 87.4919 236.688 79.755 225.506 77.9202L219.49 82.2401C230.672 84.0749 237.909 91.8118 240.036 98.0299L246.051 93.71Z" fill="#001EFF"/>
<path d="M247.565 114.032C248.748 106.826 248.026 99.8178 246.051 93.7098L240.036 98.0297C242.01 104.138 242.732 111.146 241.549 118.352L247.565 114.032Z" fill="#001EFF"/>
<path d="M263.364 162.046L288.972 138.689L282.956 143.008L257.349 166.366L263.364 162.046Z" fill="#001EFF"/>
<path d="M225.506 77.9204C222.938 77.499 220.33 77.3262 217.488 77.5403L211.472 81.8602C214.314 81.6461 216.923 81.8189 219.49 82.2402L225.506 77.9204Z" fill="#001EFF"/>
<path d="M248.863 91.2791L263.364 162.046L257.349 166.366L242.847 95.599L248.863 91.2791Z" fill="#001EFF"/>
<path d="M217.488 77.5395C209.046 78.3432 201.008 81.414 194.372 86.1815L188.375 90.4885C195.007 85.7283 203.038 82.6623 211.472 81.8594L217.488 77.5395Z" fill="#001EFF"/>
<path d="M216.951 99.992C220.347 100.549 223.015 102.433 224.045 106.004L218.03 110.324C216.999 106.753 214.331 104.869 210.935 104.312L216.951 99.992Z" fill="#001EFF"/>
<path d="M229.354 143.111C240.304 134.955 245.88 124.302 247.565 114.031L241.549 118.351C239.864 128.622 234.288 139.275 223.339 147.43L229.354 143.111Z" fill="#001EFF"/>
<path d="M224.045 106.005C224.684 107.811 224.911 110.06 224.489 112.628L218.474 116.948C218.895 114.38 218.669 112.131 218.029 110.325L224.045 106.005Z" fill="#001EFF"/>
<path d="M205.731 103.095C209.356 100.493 213.551 99.434 216.951 99.9919L210.935 104.312C207.535 103.754 203.341 104.813 199.716 107.415L205.731 103.095Z" fill="#001EFF"/>
<path d="M224.49 112.627C223.932 116.023 222.203 119.823 218.157 124.262L212.142 128.582C216.187 124.142 217.917 120.343 218.474 116.947L224.49 112.627Z" fill="#001EFF"/>
<path d="M218.157 124.262C217.448 125.051 216.643 125.764 215.772 126.388L209.763 130.704C210.631 130.08 211.434 129.369 212.141 128.582L218.157 124.262Z" fill="#001EFF"/>
<path d="M185.742 80.9214L168.934 64.1287L162.918 68.4486L179.726 85.2413L185.742 80.9214Z" fill="#001EFF"/>
<path d="M197.784 116.241C198.77 110.231 201.936 105.822 205.725 103.1L199.716 107.415C195.924 110.137 192.755 114.547 191.768 120.561L197.784 116.241Z" fill="#001EFF"/>
<path d="M215.772 126.389C212.556 128.697 208.442 129.813 204.923 129.235L198.907 133.555C202.427 134.133 206.54 133.017 209.756 130.709L215.772 126.389Z" fill="#001EFF"/>
<path d="M194.372 86.1812C185.794 92.3441 179.559 101.342 177.819 111.943L171.804 116.263C173.543 105.662 179.779 96.664 188.357 90.5011L194.372 86.1812Z" fill="#001EFF"/>
<path d="M204.923 129.235C199.953 128.42 196.438 124.441 197.784 116.241L191.768 120.56C190.422 128.76 193.937 132.74 198.907 133.555L204.923 129.235Z" fill="#001EFF"/>
<path d="M202.336 148.629C212.11 150.233 222.701 147.888 229.354 143.111L223.339 147.431C216.686 152.208 206.094 154.553 196.32 152.949L202.336 148.629Z" fill="#001EFF"/>
<path d="M168.934 64.1293L154.129 92.1511L148.113 96.471L162.918 68.4492L168.934 64.1293Z" fill="#001EFF"/>
<path d="M154.129 92.1507L145.182 68.3973L139.166 72.7172L148.113 96.4706L154.129 92.1507Z" fill="#001EFF"/>
<path d="M177.819 111.944C176.963 117.162 177.253 122.654 178.702 128.335L172.686 132.655C171.237 126.974 170.947 121.482 171.803 116.264L177.819 111.944Z" fill="#001EFF"/>
<path d="M155.211 138.43L185.742 80.9217L179.726 85.2415L149.195 142.75L155.211 138.43Z" fill="#001EFF"/>
<path d="M178.702 128.335C182.114 140.718 191.734 146.89 202.336 148.63L196.32 152.949C185.718 151.21 176.098 145.038 172.686 132.655L178.702 128.335Z" fill="#001EFF"/>
<path d="M145.182 68.3978L126.398 89.0471L120.382 93.3669L139.166 72.7177L145.182 68.3978Z" fill="#001EFF"/>
<path d="M126.398 89.0463L122.076 60.4378L116.06 64.7577L120.382 93.3662L126.398 89.0463Z" fill="#001EFF"/>
<path d="M122.076 60.4383L97.9432 66.5153L91.9274 70.8352L116.061 64.7582L122.076 60.4383Z" fill="#001EFF"/>
<path d="M138.052 113.925L155.211 138.43L149.195 142.75L132.036 118.244L138.052 113.925Z" fill="#001EFF"/>
<path d="M112.445 137.282L138.052 113.925L132.036 118.245L106.429 141.602L112.445 137.282Z" fill="#001EFF"/>
<path d="M97.9431 66.515L112.444 137.282L106.429 141.602L91.9273 70.8348L97.9431 66.515Z" fill="#001EFF"/>
<path d="M112.444 137.282L97.9431 66.5154L122.076 60.4384L126.398 89.0469L145.182 68.3976L154.129 92.151L168.934 64.1292L185.742 80.9219L155.211 138.431L138.052 113.925L112.444 137.282Z" fill="#FF0000"/>
<path d="M229.354 143.111C222.701 147.889 212.11 150.234 202.336 148.63C191.734 146.89 182.114 140.718 178.702 128.335C177.253 122.654 176.963 117.163 177.819 111.944C180.904 93.1422 198.132 79.3826 217.488 77.5401C220.33 77.3259 222.939 77.4988 225.506 77.9201C236.688 79.7549 243.925 87.4918 246.051 93.7099C248.026 99.8179 248.748 106.826 247.565 114.032C245.88 124.303 240.304 134.956 229.354 143.111ZM224.045 106.005C223.015 102.434 220.347 100.55 216.951 99.9926C209.993 98.8509 199.713 104.479 197.784 116.241C196.438 124.441 199.953 128.42 204.923 129.236C209.395 129.969 214.827 127.969 218.157 124.262C222.203 119.823 223.932 116.023 224.49 112.627C224.911 110.06 224.684 107.811 224.045 106.005Z" fill="#FF0000"/>
<path d="M263.364 162.046L248.863 91.2792L272.996 85.2022L277.318 113.811L296.102 93.1614L305.049 116.915L319.854 88.893L336.662 105.686L306.131 163.194L288.972 138.689L263.364 162.046Z" fill="#FF0000"/>
</svg>
