<svg width="429" height="252" viewBox="0 0 429 252" fill="none" xmlns="http://www.w3.org/2000/svg">
<path d="M104.3 166.2H32.3L78.3 139.8L24 113L86.9 100.7L47.6 57.1L115.2 66.4L126 67.9L123.5 57.3L115.3 22.4L177.3 56.7L182.9 59.8L186.8 54.8L220 13L246.5 54.2L249.9 59.6L255.8 57.1L325.9 26.7L314.4 56.4L310.2 67.2L321.8 66.5L392.9 62.5L346.1 104.2L337.1 112.2L348.2 116.8L404.6 139.9L337.5 155.9L322.2 159.5L367.7 222.8L281.4 182.3L273.9 179L271.3 186.8L255.9 232.9L232 189.9L227.5 181.8L220.5 187.9L183.1 220.3L179.9 188.6L178.9 179L169.8 182.3L88.2 211.9L110.1 178.2L117.6 166.6H103.8L104.3 166.2Z" fill="#FF0000" stroke="#FFAB00" stroke-width="15"/>
<path d="M200.52 145.909C193.162 150.964 181.569 153.277 170.957 151.306C159.446 149.167 149.107 142.221 145.673 128.647C144.224 122.422 144.034 116.431 145.086 110.763C147.223 99.2494 154.222 89.5853 163.709 83.0648C171.047 78.0207 179.875 74.8577 189.091 74.1749C192.192 74.0065 195.03 74.2545 197.818 74.7724C209.958 77.0278 217.665 85.6254 219.84 92.4508C221.852 99.1528 222.478 106.807 221.025 114.634C218.954 125.789 212.636 137.272 200.52 145.909ZM195.584 105.347C194.543 101.432 191.68 99.3175 187.992 98.6325C184.3 97.9467 179.707 99.0051 175.698 101.758C171.504 104.638 167.951 109.371 166.738 115.902C165.085 124.809 168.823 129.226 174.219 130.228C178.041 130.938 182.548 129.816 186.105 127.374C187.068 126.713 187.961 125.955 188.752 125.11C193.261 120.364 195.232 116.263 195.917 112.575C196.434 109.786 196.239 107.33 195.584 105.347Z" fill="#001EFF"/>
<path d="M279.332 160.55C271.974 165.604 260.381 167.918 249.769 165.946C238.258 163.808 227.919 156.862 224.485 143.288C223.035 137.063 222.845 131.072 223.897 125.404C226.035 113.89 233.034 104.226 242.521 97.7056C249.859 92.6615 258.686 89.4985 267.902 88.8157C271.004 88.6474 273.841 88.8954 276.629 89.4133C288.77 91.6686 296.477 100.266 298.652 107.092C300.664 113.794 301.29 121.448 299.837 129.274C297.766 140.43 291.448 151.912 279.332 160.55ZM274.395 119.988C273.355 116.072 270.491 113.958 266.804 113.273C263.112 112.588 258.518 113.646 254.51 116.399C250.316 119.278 246.762 124.012 245.55 130.543C243.896 139.449 247.635 143.866 253.031 144.869C256.852 145.579 261.36 144.457 264.916 142.015C265.879 141.353 266.772 140.596 267.563 139.751C272.073 135.005 274.043 130.904 274.728 127.216C275.246 124.427 275.051 121.971 274.395 119.988Z" fill="#001EFF"/>
<path d="M309.423 99.6918C307.248 92.8664 299.541 84.2688 287.401 82.0134L276.629 89.4133C288.77 91.6686 296.477 100.266 298.652 107.092L309.423 99.6918Z" fill="#001EFF"/>
<path d="M310.608 121.875C312.061 114.048 311.435 106.394 309.423 99.6918L298.652 107.092C300.664 113.794 301.29 121.448 299.837 129.274L310.608 121.875Z" fill="#001EFF"/>
<path d="M328.086 95.0625L314.659 167.391L303.887 174.79L317.315 102.462L328.086 95.0625Z" fill="#001EFF"/>
<path d="M287.401 82.0134C284.613 81.4956 281.775 81.2475 278.673 81.4159L267.902 88.8157C271.004 88.6474 273.841 88.8954 276.629 89.4133L287.401 82.0134Z" fill="#001EFF"/>
<path d="M314.659 167.391L363.37 171.6L352.598 179L303.887 174.79L314.659 167.391Z" fill="#001EFF"/>
<path d="M278.673 81.4159C269.457 82.0987 260.63 85.2617 253.292 90.3059L242.54 97.6919C249.875 92.6557 258.694 89.4979 267.902 88.8157L278.673 81.4159Z" fill="#001EFF"/>
<path d="M277.575 105.874C281.262 106.559 284.126 108.673 285.167 112.588L274.395 119.988C273.355 116.072 270.491 113.958 266.804 113.273L277.575 105.874Z" fill="#001EFF"/>
<path d="M290.103 153.15C302.219 144.513 308.537 133.03 310.608 121.875L299.837 129.274C297.766 140.43 291.448 151.912 279.332 160.55L290.103 153.15Z" fill="#001EFF"/>
<path d="M285.167 112.588C285.822 114.571 286.017 117.027 285.5 119.816L274.728 127.216C275.246 124.427 275.051 121.971 274.395 119.988L285.167 112.588Z" fill="#001EFF"/>
<path d="M265.281 108.999C269.29 106.246 273.883 105.188 277.575 105.874L266.804 113.273C263.112 112.588 258.518 113.646 254.51 116.399L265.281 108.999Z" fill="#001EFF"/>
<path d="M285.5 119.816C284.815 123.505 282.844 127.606 278.335 132.352L267.563 139.751C272.073 135.005 274.043 130.904 274.728 127.216L285.5 119.816Z" fill="#001EFF"/>
<path d="M278.335 132.352C277.544 133.196 276.651 133.954 275.688 134.615L264.924 142.01C265.884 141.35 266.774 140.593 267.563 139.751L278.335 132.352Z" fill="#001EFF"/>
<path d="M256.321 123.144C257.533 116.616 261.083 111.884 265.274 109.004L254.51 116.399C250.316 119.278 246.762 124.012 245.55 130.543L256.321 123.144Z" fill="#001EFF"/>
<path d="M275.688 134.615C272.131 137.057 267.624 138.179 263.802 137.469L253.031 144.869C256.852 145.579 261.36 144.457 264.916 142.015L275.688 134.615Z" fill="#001EFF"/>
<path d="M253.292 90.3059C243.805 96.8263 236.806 106.491 234.669 118.005L223.897 125.404C226.035 113.89 233.034 104.226 242.521 97.7056L253.292 90.3059Z" fill="#001EFF"/>
<path d="M263.802 137.469C258.406 136.467 254.668 132.05 256.321 123.144L245.55 130.543C243.896 139.449 247.635 143.866 253.031 144.869L263.802 137.469Z" fill="#001EFF"/>
<path d="M260.54 158.547C271.152 160.518 282.745 158.205 290.103 153.15L279.332 160.55C271.974 165.604 260.381 167.918 249.769 165.946L260.54 158.547Z" fill="#001EFF"/>
<path d="M230.612 85.0509C228.437 78.2255 220.729 69.628 208.589 67.3726L197.818 74.7724C209.958 77.0278 217.665 85.6254 219.84 92.4508L230.612 85.0509Z" fill="#001EFF"/>
<path d="M231.796 107.234C233.249 99.4076 232.623 91.753 230.612 85.0509L219.84 92.4508C221.852 99.1528 222.478 106.807 221.025 114.634L231.796 107.234Z" fill="#001EFF"/>
<path d="M208.589 67.3726C205.801 66.8547 202.963 66.6067 199.862 66.7751L189.091 74.1749C192.192 74.0065 195.03 74.2545 197.818 74.7724L208.589 67.3726Z" fill="#001EFF"/>
<path d="M234.669 118.005C233.616 123.672 233.807 129.663 235.256 135.889L224.485 143.288C223.035 137.063 222.845 131.072 223.897 125.404L234.669 118.005Z" fill="#001EFF"/>
<path d="M235.256 135.889C238.69 149.462 249.029 156.408 260.54 158.547L249.769 165.946C238.258 163.808 227.919 156.862 224.485 143.288L235.256 135.889Z" fill="#001EFF"/>
<path d="M199.862 66.7751C190.646 67.4579 181.819 70.6209 174.48 75.665L163.729 83.0511C171.063 78.0149 179.883 74.8571 189.091 74.1749L199.862 66.7751Z" fill="#001EFF"/>
<path d="M198.764 91.2328C202.451 91.9178 205.314 94.0318 206.355 97.9477L195.584 105.347C194.543 101.432 191.68 99.3175 187.992 98.6325L198.764 91.2328Z" fill="#001EFF"/>
<path d="M211.291 138.51C223.407 129.872 229.725 118.389 231.796 107.234L221.025 114.634C218.954 125.789 212.636 137.272 200.52 145.909L211.291 138.51Z" fill="#001EFF"/>
<path d="M206.355 97.9477C207.01 99.9306 207.206 102.387 206.688 105.175L195.917 112.575C196.434 109.786 196.239 107.33 195.584 105.347L206.355 97.9477Z" fill="#001EFF"/>
<path d="M186.469 94.3582C190.478 91.6054 195.072 90.547 198.764 91.2328L187.992 98.6325C184.3 97.9467 179.707 99.0051 175.698 101.758L186.469 94.3582Z" fill="#001EFF"/>
<path d="M206.688 105.175C206.003 108.864 204.032 112.965 199.523 117.711L188.752 125.11C193.261 120.364 195.232 116.263 195.917 112.575L206.688 105.175Z" fill="#001EFF"/>
<path d="M199.523 117.711C198.732 118.555 197.839 119.313 196.876 119.974L186.112 127.369C187.072 126.709 187.963 125.953 188.752 125.11L199.523 117.711Z" fill="#001EFF"/>
<path d="M177.509 108.503C178.721 101.975 182.272 97.2431 186.462 94.363L175.698 101.758C171.504 104.638 167.951 109.371 166.738 115.902L177.509 108.503Z" fill="#001EFF"/>
<path d="M196.876 119.974C193.32 122.416 188.812 123.538 184.99 122.828L174.219 130.228C178.041 130.938 182.548 129.816 186.105 127.374L196.876 119.974Z" fill="#001EFF"/>
<path d="M174.48 75.665C164.994 82.1855 157.994 91.8498 155.857 103.364L145.086 110.763C147.223 99.2494 154.222 89.5853 163.709 83.0648L174.48 75.665Z" fill="#001EFF"/>
<path d="M184.99 122.828C179.595 121.826 175.856 117.409 177.509 108.503L166.738 115.902C165.085 124.809 168.823 129.226 174.219 130.228L184.99 122.828Z" fill="#001EFF"/>
<path d="M181.729 143.906C192.34 145.877 203.934 143.564 211.291 138.51L200.52 145.909C193.162 150.964 181.569 153.277 170.957 151.306L181.729 143.906Z" fill="#001EFF"/>
<path d="M130.069 52.5069C125.303 51.6214 121.129 52.0559 118.051 52.6008L107.279 60.0005C110.358 59.4556 114.532 59.0212 119.298 59.9066L130.069 52.5069Z" fill="#001EFF"/>
<path d="M155.857 103.364C154.805 109.031 154.995 115.023 156.444 121.248L145.673 128.647C144.224 122.422 144.034 116.431 145.086 110.763L155.857 103.364Z" fill="#001EFF"/>
<path d="M118.051 52.6008C116.225 52.9131 114.636 53.4554 113.137 54.0145L102.365 61.4142C103.865 60.8552 105.454 60.3128 107.279 60.0005L118.051 52.6008Z" fill="#001EFF"/>
<path d="M156.444 121.248C159.878 134.822 170.218 141.768 181.729 143.906L170.957 151.306C159.446 149.167 149.107 142.221 145.673 128.647L156.444 121.248Z" fill="#001EFF"/>
<path d="M124.546 78.7483C128.054 79.3999 131.879 82.3443 136.499 89.5308L125.728 96.9304C121.108 89.7439 117.282 86.7996 113.775 86.1481L124.546 78.7483Z" fill="#001EFF"/>
<path d="M113.137 54.0145C110.947 54.9365 108.689 56.1944 106.443 57.7382L95.6914 65.1245C97.9308 63.5869 100.182 62.3335 102.365 61.4142L113.137 54.0145Z" fill="#001EFF"/>
<path d="M150.27 121.59L136.101 99.6937L125.33 107.093L139.499 128.99L150.27 121.59Z" fill="#001EFF"/>
<path d="M118.236 80.1863C120.03 78.9548 122.139 78.3011 124.546 78.7483L113.775 86.1481C111.368 85.7009 109.258 86.3545 107.465 87.586L118.236 80.1863Z" fill="#001EFF"/>
<path d="M146.8 124.702C148.241 123.712 149.417 122.664 150.27 121.59L139.499 128.99C138.646 130.063 137.469 131.112 136.029 132.101L146.8 124.702Z" fill="#001EFF"/>
<path d="M136.101 99.6937C126.835 105.51 121.078 106.954 117.211 106.235L106.44 113.635C110.307 114.353 116.063 112.91 125.33 107.093L136.101 99.6937Z" fill="#001EFF"/>
<path d="M111.072 91.6938C111.53 89.2294 113.999 83.0981 118.233 80.1883L107.465 87.586C103.229 90.495 100.759 96.6285 100.301 99.0935L111.072 91.6938Z" fill="#001EFF"/>
<path d="M111.062 92.2503C110.989 92.1437 111.022 91.9637 111.072 91.6938L100.301 99.0935C100.251 99.3633 100.218 99.5433 100.291 99.6499L111.062 92.2503Z" fill="#001EFF"/>
<path d="M110.822 93.0432C110.905 92.5934 110.955 92.3236 111.062 92.2503L100.291 99.6499C100.184 99.7232 100.134 99.9931 100.051 100.443L110.822 93.0432Z" fill="#001EFF"/>
<path d="M117.211 106.235C110.016 104.899 110.204 96.3717 110.822 93.0432L100.051 100.443C99.4327 103.771 99.2452 112.298 106.44 113.635L117.211 106.235Z" fill="#001EFF"/>
<path d="M106.443 57.7382C96.5768 64.52 86.948 76.8175 84.4313 90.3742L73.66 97.7738C76.1768 84.2171 85.8055 71.9198 95.6718 65.138L106.443 57.7382Z" fill="#001EFF"/>
<path d="M111.989 130.858C125.149 133.302 139.418 129.771 146.791 124.708L136.029 132.101C128.658 137.168 114.383 140.703 101.217 138.257L111.989 130.858Z" fill="#001EFF"/>
<path d="M84.4313 90.3742C82.5609 100.45 84.4109 111.03 93.2832 120.868L82.5119 128.268C73.6396 118.43 71.7896 107.849 73.66 97.7738L84.4313 90.3742Z" fill="#001EFF"/>
<path d="M93.2832 120.868C98.187 126.525 104.794 129.521 111.989 130.858L101.217 138.257C94.023 136.92 87.4157 133.925 82.5119 128.268L93.2832 120.868Z" fill="#001EFF"/>
<path d="M155.738 73.096L136.499 89.5308C131.879 82.3443 128.054 79.3999 124.546 78.7483C116.453 77.2448 111.724 88.1853 111.072 91.6938C111.022 91.9637 110.989 92.1437 111.062 92.2503C110.955 92.3236 110.905 92.5934 110.822 93.0432C110.204 96.3717 110.016 104.899 117.211 106.235C121.078 106.954 126.835 105.51 136.101 99.6937L150.27 121.59C145.051 128.158 127.726 133.781 111.989 130.858C104.794 129.521 98.187 126.525 93.2832 120.868C84.4109 111.03 82.5609 100.45 84.4313 90.3742C87.5209 73.7315 101.329 58.9868 113.137 54.0145C114.636 53.4554 116.225 52.9131 118.051 52.6008C121.129 52.0559 125.303 51.6214 130.069 52.5069C138.343 54.0438 147.96 59.3668 155.738 73.096Z" fill="white"/>
<path d="M211.291 138.51C203.934 143.564 192.34 145.877 181.729 143.906C170.218 141.768 159.878 134.822 156.444 121.248C154.995 115.023 154.805 109.031 155.857 103.364C159.648 82.9428 178.732 68.3406 199.862 66.7751C202.963 66.6067 205.801 66.8547 208.589 67.3726C220.729 69.628 228.437 78.2255 230.612 85.0509C232.623 91.753 233.249 99.4076 231.796 107.234C229.725 118.389 223.407 129.872 211.291 138.51ZM206.355 97.9477C205.314 94.0318 202.451 91.9178 198.764 91.2328C191.21 89.8295 179.881 95.7284 177.509 108.503C175.856 117.409 179.595 121.826 184.99 122.828C189.847 123.73 195.81 121.674 199.523 117.711C204.032 112.965 206.003 108.864 206.688 105.175C207.206 102.387 207.01 99.9306 206.355 97.9477Z" fill="white"/>
<path d="M290.103 153.15C282.745 158.205 271.152 160.518 260.54 158.547C249.029 156.408 238.69 149.462 235.256 135.889C233.807 129.663 233.616 123.672 234.669 118.005C238.46 97.5836 257.544 82.9814 278.673 81.4159C281.775 81.2475 284.613 81.4956 287.401 82.0134C299.541 84.2688 307.248 92.8664 309.423 99.6918C311.435 106.394 312.061 114.048 310.608 121.875C308.537 133.03 302.219 144.513 290.103 153.15ZM285.167 112.588C284.126 108.673 281.262 106.559 277.575 105.874C270.021 104.47 258.693 110.369 256.321 123.144C254.668 132.05 258.406 136.467 263.802 137.469C268.658 138.371 274.622 136.315 278.335 132.352C282.844 127.606 284.815 123.505 285.5 119.816C286.017 117.027 285.822 114.571 285.167 112.588Z" fill="white"/>
<path d="M314.659 167.391L328.086 95.0625L355.946 96.3295L344.116 146.526L367 146.031L363.37 171.6L314.659 167.391Z" fill="white"/>
</svg>
