<?xml version="1.0" encoding="UTF-8"?>
<svg id="Layer_1" data-name="Layer 1" xmlns="http://www.w3.org/2000/svg" viewBox="0 0 494.9 472.01">
  <defs>
    <style>
      .cls-1 {
        fill: #001eff;
      }

      .cls-2 {
        stroke-width: 10px;
      }

      .cls-2, .cls-3 {
        fill: none;
      }

      .cls-2, .cls-3, .cls-4 {
        stroke: #fc0;
      }

      .cls-3, .cls-4 {
        stroke-width: 9px;
      }

      .cls-4 {
        fill: red;
      }
    </style>
  </defs>
  <path class="cls-4" d="M490.4,236c0,127.66-108.57,231.5-242.95,231.5S4.5,363.66,4.5,236,113.07,4.5,247.45,4.5s242.95,103.85,242.95,231.5Z"/>
  <path class="cls-3" d="M475.17,236c0,119.64-101.75,216.98-227.72,216.98S19.73,355.64,19.73,236,121.48,19.02,247.45,19.02s227.72,97.34,227.72,216.98Z"/>
  <polygon class="cls-1" points="322.39 102.16 327.56 46.74 305.7 97.82 288.84 62.91 285 102.16 248.95 84.3 269.64 111.84 205.21 116.85 271.15 130.7 232.42 151.57 285.9 142.64 247.45 191.13 300.13 151.63 292.01 201.48 313.04 150.57 335.41 184.95 324.39 139.22 365.97 161.92 337.24 131.2 388.32 123.02 338.58 116.18 380.31 77.29 322.39 102.16"/>
  <polygon class="cls-1" points="364.21 269.72 338.14 220.6 349.44 274.04 306.81 245.09 336.37 287.58 299.88 289.77 330.16 303.06 284.89 338.06 341.46 318.22 323.9 354.28 358.9 321.22 356.45 380.4 374.35 321.99 395.21 367.82 383.39 314.93 418.61 333.18 385.71 299.95 428.93 299.2 390.95 287.07 424.57 255.79 383.84 273.79 393.91 221.12 364.21 269.72"/>
  <polygon class="cls-1" points="132.68 229.05 114.95 176.35 117.59 230.8 90.3 204.53 102.72 241.92 66.78 237.92 94.23 256.1 44.58 282.88 102.88 272.91 80.09 305.41 119.42 278.8 107.74 336.58 134.37 282.16 147.53 330.75 144.29 276.74 175.79 300.63 148.91 262.4 191.19 268.95 156.05 250.62 193.75 225.52 151.19 236.35 169.27 186.26 132.68 229.05"/>
  <path class="cls-3" d="M316.67,122.13c35.65,85.82,58.14,169,49.49,228.74-8.65,59.74-92.4,85.34-141.55,34.66-49.14-50.69-76.14-106.61-119.05-176.92C42.22,94.73,264.02-4.62,316.67,122.13Z"/>
  <path class="cls-2" d="M264.15,294.97c-32.69,13.74-30.52,36.28-25.35,45.83,15.29,21.34,40.66,24.01,71.68,6.72s17.21-40.2,12.72-47.85c-4.49-7.65-18.19-21.88-59.06-4.71Z"/>
  <path class="cls-3" d="M179.27,246.57c9.69,28.06,30.11,88.13,63.68,120.81s118.01-2.64,103.48-53.47c-14.54-50.83-33.57-96.71-46.72-119.82-13.15-23.1-38.07-44.56-84.79-28.39-46.72,16.17-45.34,52.81-35.65,80.87Z"/>
  <path class="cls-3" d="M267.18,268.68c14.04-8.93,33.22-28.06,11.77-68-2.66-4.95-15.51-.86-9.69,7.59,7.27,10.56,13,36.39-9,47.86-25.96,13.53-40.38-12.21-47.41-24.1-3.32-5.61-13.5,0-10.38,6.27,16.96,42.91,58.49,34.33,64.72,30.37Z"/>
</svg>