<svg width="961" height="720" viewBox="0 0 961 720" fill="none" xmlns="http://www.w3.org/2000/svg">
<path d="M39.2488 719.321H408.05H565.411L932.059 719.321L793.697 669.407L961 552.941L744.537 547.395L936.816 197.997L611.329 429.741L591.507 0.321289L470.787 415.281L279.499 80.3422L344.913 451.132L109.421 304.163L261.262 552.941L0 541.849L212.498 669.407L39.2488 719.321Z" fill="#FF0000"/>
<path d="M101.427 719.321H434.228H567.015H847.595L738.564 678.949L892 570.498H697.727L863.454 277.206L593.057 473.526L575.216 115.321L478.674 471.349L315.608 189.517L374.599 498.857L166.449 364.283L305.216 578.81L82 571.29L267.154 676.178L101.427 719.321Z" fill="#FFCC00"/>
<path d="M158.905 719.321H434.417H567.109H785.287L697.728 684.102L836 589.523L663.656 595.459L792.023 353.67L576.889 520.667L555.891 256.321L485.963 525.613L354.228 294.311L399.852 541.618L221.629 417.778L342.739 604.165L149 589.523L314.609 684.102L158.905 719.321Z" fill="#FF0000"/>
<path d="M199 719.321H434.528H567.462H754.518L645.531 691.694L765 613.76L633.721 618.929L700.357 458.803L562.459 563.402L539.541 389.321L490.137 560.059L399.9 422.589L425.991 582.544L295.173 490.602L380.474 627.534L221.353 606.402L362.38 688.6L199 719.321Z" fill="#001EFF"/>
<path d="M278 719.321H447.78H543.605H678.444L599.881 699.287L686 642.772L591.368 646.52L639.402 530.402L547.271 603.277L531.14 481.321L494.874 601.316L430.791 500.15L447.78 616.743L347.326 553.462L408.815 652.76L294.113 637.436L395.772 697.043L278 719.321Z" fill="#FF0000"/>
<path d="M346 719.321H466.261H534.137H629.648L575.147 701.312L635 664.965L568.866 661.176L601.993 585.173L534.137 632.9L525.307 550.321L497.927 629.221L454.227 563.691L463.522 643.043L395.106 601.547L435.07 670.071L357.414 661.176L422.455 701.312L346 719.321Z" fill="#FFCC00"/>
<path d="M388 719.321H476.188H525.961H596L548.097 703.96L596 675.588L542.452 679.633L575.721 621.687L523.597 663.805L519.487 596.321L500.961 661.156L467.363 606.052L478.765 663.805L424.009 633.604L465.222 683.733L399.126 675.479L445.275 703.96L388 719.321Z" fill="#FF0000"/>
</svg>
