<svg width="201" height="202" viewBox="0 0 201 202" fill="none" xmlns="http://www.w3.org/2000/svg">
<path d="M111.659 6.55887L120.868 51.1592L172.074 10.4942L144.5 64.2638L194.419 56.4194L152.225 91.6667L201 109.533L148.468 121.326L190.465 173.81L136.632 145.607L149.768 202L110.989 144.295L89.9712 181.012L78.1616 143.01L17.0773 186.272L51.2188 133.814L11.8228 136.411L44.6637 104.955L0 87.8888L52.5456 81.3168L17.0773 38.6973L65.6688 56.4063L51.2451 0L89.3406 45.9121M114.3 69.5109L107.705 36.7297L92.6116 65.5756L73.577 43.2754L81.4325 74.758L51.2319 62.9651L72.237 88.5447L44.6637 93.149L65.6688 101.649L43.3501 123.28L73.5638 120.683L60.4406 141.645L84.7429 124.605L93.9384 153.451L109.058 124.605L124.152 144.282L120.868 125.93L149.755 140.347L128.737 112.826L161.578 107.565C152.776 103.132 131.364 94.4346 131.364 94.4346L156.31 73.4724L126.109 78.7064L139.22 51.1723L114.287 69.524L114.3 69.5109Z" fill="#FFAB00"/>
</svg>
