<svg width="280" height="448" viewBox="0 0 280 448" fill="none" xmlns="http://www.w3.org/2000/svg">
<path d="M0 448C42.706 344.112 73.0585 232.872 71.6808 119.52C70.3332 115.687 64.7223 114.866 62.8611 112.5C61 110.134 61 55.5 62.8611 51C64.7223 46.5 68.1619 43.6779 70.0187 41.8811C76.7421 35.3974 59.1326 4.67124 84.5885 1.79627C110.044 -1.0787 161.63 -0.0455046 187.984 1.7214C199.739 2.51501 208.244 3.96747 209.622 17.5038C210.79 28.9587 206.131 39.6129 212.5 41.5C226 45.5 217.5 109 217.5 109L209 118C206.709 127.359 207.78 136.62 208.139 146.263C210.416 207.731 221.631 269.812 238.162 328.869C249.528 369.463 264.008 409.068 280 448H0Z" fill="white"/>
<mask id="mask0_1375_3412" style="mask-type:alpha" maskUnits="userSpaceOnUse" x="0" y="0" width="280" height="448">
<path d="M0 448C42.706 344.112 73.0585 232.872 71.6808 119.52C70.3332 115.687 64.7223 114.866 62.8611 112.5C61 110.134 61 55.5 62.8611 51C64.7223 46.5 68.1619 43.6779 70.0187 41.8811C76.7421 35.3974 59.1326 4.67124 84.5885 1.79627C110.044 -1.0787 161.63 -0.0455046 187.984 1.7214C199.739 2.51501 208.244 3.96747 209.622 17.5038C210.79 28.9587 206.131 39.6129 212.5 41.5C226 45.5 217.5 109 217.5 109L209 118C206.709 127.359 207.78 136.62 208.139 146.263C210.416 207.731 221.631 269.812 238.162 328.869C249.528 369.463 264.008 409.068 280 448H0Z" fill="#FF0000"/>
</mask>
<g mask="url(#mask0_1375_3412)">
<path d="M60 117C86.0814 123.707 202.726 121.282 219.5 114" stroke="#FFCC00" stroke-width="10"/>
<path d="M65 34.5C90.5 41.5 202.1 40.6 218.5 33" stroke="#FFCC00" stroke-width="10"/>
</g>
<mask id="mask1_1375_3412" style="mask-type:alpha" maskUnits="userSpaceOnUse" x="0" y="0" width="280" height="448">
<path d="M0 448C42.706 344.112 73.0585 232.872 71.6808 119.52C70.3332 115.687 64.7223 114.866 62.8611 112.5C61 110.134 61 55.5 62.8611 51C64.7223 46.5 68.1619 43.6779 70.0187 41.8811C76.7421 35.3974 59.1326 4.67124 84.5885 1.79627C110.044 -1.0787 161.63 -0.0455046 187.984 1.7214C199.739 2.51501 208.244 3.96747 209.622 17.5038C210.79 28.9587 206.131 39.6129 212.5 41.5C226 45.5 217.5 109 217.5 109L209 118C206.709 127.359 207.78 136.62 208.139 146.263C210.416 207.731 221.631 269.812 238.162 328.869C249.528 369.463 264.008 409.068 280 448H0Z" fill="#001EFF"/>
</mask>
<g mask="url(#mask1_1375_3412)">
<path d="M287 348L236.667 418L186.333 348L136 418L85.6667 348L35.3333 418L-15 348" stroke="#FFCC00" stroke-width="10"/>
<path d="M287 244L236.667 314L186.333 244L136 314L85.6667 244L35.3333 314L-15 244" stroke="#FFCC00" stroke-width="10"/>
<path d="M287 140L236.667 210L186.333 140L136 210L85.6667 140L35.3333 210L-15 140" stroke="#FFCC00" stroke-width="10"/>
<path d="M107 119.5L135.5 158L164 119.5" stroke="#FFCC00" stroke-width="10"/>
<path d="M287 400L236.667 470L186.333 400L136 470L85.6667 400L35.3333 470L-15 400" stroke="#FFCC00" stroke-width="10"/>
<path d="M287 296L236.667 366L186.333 296L136 366L85.6667 296L35.3333 366L-15 296" stroke="#FFCC00" stroke-width="10"/>
<path d="M287 192L236.667 262L186.333 192L136 262L85.6667 192L35.3333 262L-15 192" stroke="#FFCC00" stroke-width="10"/>
</g>
</svg>
