<svg width="121" height="134" viewBox="0 0 121 134" fill="none" xmlns="http://www.w3.org/2000/svg">
<path d="M119.407 14.5999C109.807 7.9999 96.0065 0.399902 77.0065 0.399902L66.4 11.0068C85.4 11.0068 99.2 18.6068 108.8 25.2068L119.407 14.5999Z" fill="#001EFF"/>
<path d="M77.0065 0.399902C56.9729 0.399902 39.6076 6.95928 27.6652 18.9058L17.0722 29.4987C29.0142 17.5609 46.374 11.0068 66.4 11.0068L77.0065 0.399902Z" fill="#001EFF"/>
<path d="M73.6066 43.2002C80.0066 43.2002 88.0065 45.0001 93.0065 49.0001L82.4 59.6068C77.4 55.6068 69.4 53.8068 63 53.8068L73.6066 43.2002Z" fill="#001EFF"/>
<path d="M59.3114 49.0445C62.7565 45.601 67.6672 43.2002 73.6066 43.2002L63 53.8068C57.0606 53.8068 52.1501 56.2076 48.705 59.6511L59.3114 49.0445Z" fill="#001EFF"/>
<path d="M53.8066 61.4001C53.8066 57.1603 55.7937 52.5639 59.305 49.0509L48.705 59.6511C45.1896 63.1649 43.2 67.7644 43.2 72.0068L53.8066 61.4001Z" fill="#001EFF"/>
<path d="M83.0065 77C79.4065 78.8 75.8065 79.8 72.0065 79.8L61.4 90.4068C65.2 90.4068 68.8 89.4068 72.4 87.6068L83.0065 77Z" fill="#001EFF"/>
<path d="M72.0065 79.8C63.8065 79.8 53.8066 72.6001 53.8066 61.4001L43.2 72.0068C43.2 83.2068 53.2 90.4068 61.4 90.4068L72.0065 79.8Z" fill="#001EFF"/>
<path d="M73.8065 123C89.4066 123 107.007 119.6 120.407 107.8L109.8 118.407C96.4 130.207 78.8 133.607 63.2 133.607L73.8065 123Z" fill="#001EFF"/>
<path d="M27.6652 18.9058C16.9551 29.6196 10.6066 44.6661 10.6066 63.1999L0 73.8068C0 55.2731 6.34854 40.2265 17.0587 29.5127L27.6652 18.9058Z" fill="#001EFF"/>
<path d="M10.6066 63.1999C10.6066 96.7999 37.8065 123 73.8065 123L63.2 133.607C27.2 133.607 0 107.407 0 73.8068L10.6066 63.1999Z" fill="#001EFF"/>
<path d="M93.2067 72L120.407 107.8C107.007 119.6 89.4066 123 73.8065 123C37.8065 123 10.6066 96.7999 10.6066 63.1999C10.6066 23.9999 39.0065 0.399902 77.0065 0.399902C96.0065 0.399902 109.807 7.9999 119.407 14.5999L93.0065 49.0001C88.0065 45.0001 80.0066 43.2002 73.6066 43.2002C61.6066 43.2002 53.8066 53.0001 53.8066 61.4001C53.8066 72.6001 63.8065 79.8 72.0065 79.8C75.8065 79.8 79.4065 78.8 83.0065 77L93.2067 72Z" fill="#FF0000"/>
</svg>
