<svg width="2823" height="267" viewBox="0 0 2823 267" fill="none" xmlns="http://www.w3.org/2000/svg">
<g clip-path="url(#clip0_1306_3422)">
<path d="M2835 242H-9V267H2835V242Z" fill="#FF0000"/>
<path d="M700.72 242.48C699.44 242.48 698.2 241.99 697.27 241.1L672.91 217.93C671.92 216.99 671.36 215.68 671.36 214.31V122.72C671.36 121.35 671.92 120.04 672.91 119.1L697.27 95.9298C698.2 95.0498 699.43 94.5498 700.72 94.5498H889.4C890.79 94.5498 892.12 95.1298 893.07 96.1498L908.03 112.29C908.89 113.21 909.36 114.43 909.36 115.69V221.34C909.36 222.6 908.88 223.82 908.03 224.74L893.07 240.88C892.12 241.9 890.79 242.48 889.4 242.48H700.72Z" fill="#001EFF"/>
<path fill-rule="evenodd" clip-rule="evenodd" d="M699.27 242.26C698.74 241.65 698.43 240.85 698.43 239.98V95.3698C698.43 95.2798 698.43 95.1898 698.44 95.0998C698.02 95.3198 697.62 95.5898 697.27 95.9298L672.92 119.1C671.93 120.04 671.37 121.35 671.37 122.72V214.31C671.37 215.68 671.93 216.99 672.92 217.93L697.27 241.1C697.84 241.64 698.53 242.04 699.27 242.26ZM705.33 94.5498C705.39 94.8098 705.43 95.0898 705.43 95.3698V239.98C705.43 240.96 705.03 241.84 704.38 242.48H889.4C890.79 242.48 892.12 241.9 893.07 240.88L908.03 224.74C908.89 223.82 909.36 222.6 909.36 221.34V115.69C909.36 114.43 908.88 113.22 908.03 112.29L893.07 96.1498C892.12 95.1298 890.8 94.5498 889.4 94.5498H705.33Z" fill="white"/>
<mask id="mask0_1306_3422" style="mask-type:alpha" maskUnits="userSpaceOnUse" x="671" y="94" width="239" height="149">
<path fill-rule="evenodd" clip-rule="evenodd" d="M699.27 242.26C698.74 241.65 698.43 240.85 698.43 239.98V95.3698C698.43 95.2798 698.43 95.1898 698.44 95.0998C698.02 95.3198 697.62 95.5898 697.27 95.9298L672.92 119.1C671.93 120.04 671.37 121.35 671.37 122.72V214.31C671.37 215.68 671.93 216.99 672.92 217.93L697.27 241.1C697.84 241.64 698.53 242.04 699.27 242.26ZM705.33 94.5498C705.39 94.8098 705.43 95.0898 705.43 95.3698V239.98C705.43 240.96 705.03 241.84 704.38 242.48H889.4C890.79 242.48 892.12 241.9 893.07 240.88L908.03 224.74C908.89 223.82 909.36 222.6 909.36 221.34V115.69C909.36 114.43 908.88 113.22 908.03 112.29L893.07 96.1498C892.12 95.1298 890.8 94.5498 889.4 94.5498H705.33Z" fill="white"/>
</mask>
<g mask="url(#mask0_1306_3422)">
<path d="M744.62 125.29L773.83 78.29L718.51 119.93L728.67 67.52L705.43 97.23V240.19L724.9 281.73L718.21 210.28L780.67 243.54L745.37 195.05L799.48 191.9L754.23 170.24L796.73 151.43L753.97 145.74L784.03 115.25L744.62 125.29Z" fill="#FF0000"/>
<path d="M857.3 150.78L832.17 129.36L865.55 133.65L871.46 134.41L869.25 128.88L861 108.24L885.24 115.72L890.86 117.45L889.71 111.69L881.1 68.6699L910.02 104.92L914.42 110.43L916.15 103.59L927.09 60.3398L938.03 103.59L939.76 110.43L944.16 104.92L973.08 68.6699L964.47 111.69L962.98 119.14L969.61 115.43L1011.5 92.0099L985.34 128.13L980.42 134.92L988.71 133.64L1036.66 126.23L997.31 150.46L989.68 155.16L998.48 156.88L1045.38 166.03L998.48 175.19L989.68 176.91L997.31 181.61L1036.66 205.84L988.71 198.43L980.42 197.15L985.34 203.94L1011.5 240.05L969.61 216.63L962.98 212.92L964.47 220.37L973.08 263.39L944.16 227.14L939.76 221.63L938.03 228.47L927.09 271.72L916.15 228.47L914.42 221.63L910.02 227.14L881.1 263.39L889.71 220.37L891.09 213.47L884.75 216.54L857.73 229.61L869.21 203.28L871.76 197.44L865.46 198.43L829.43 204.08L862.7 176.88L823.19 164.69L855.72 156.88L862.81 155.47L857.31 150.78H857.3Z" fill="#FFCC00" stroke="#FF0000" stroke-width="7"/>
</g>
<path d="M700.72 98.0498H889.4C889.82 98.0498 890.22 98.2198 890.5 98.5298L905.46 114.67C905.72 114.95 905.86 115.31 905.86 115.69V221.34C905.86 221.72 905.72 222.08 905.46 222.36L890.5 238.5C890.22 238.81 889.82 238.98 889.4 238.98H700.72C700.33 238.98 699.96 238.83 699.69 238.57L675.34 215.4C675.04 215.12 674.87 214.72 674.87 214.31V122.72C674.87 122.31 675.04 121.92 675.34 121.63L699.69 98.4598C699.97 98.1998 700.34 98.0498 700.72 98.0498Z" stroke="#001EFF" stroke-width="7"/>
<path d="M1944.37 33.9298C1944.37 32.6498 1944.86 31.4099 1945.75 30.4799L1968.92 6.13986C1969.87 5.14986 1971.18 4.58984 1972.55 4.58984H2064.18C2065.55 4.58984 2066.86 5.14986 2067.8 6.13986L2090.98 30.4799C2091.87 31.4099 2092.36 32.6398 2092.36 33.9298V222.52C2092.36 223.91 2091.78 225.24 2090.76 226.19L2074.61 241.15C2073.69 242.01 2072.47 242.48 2071.21 242.48H1965.51C1964.25 242.48 1963.04 242 1962.11 241.15L1945.97 226.19C1944.95 225.24 1944.37 223.91 1944.37 222.52V33.9298Z" fill="white"/>
<path fill-rule="evenodd" clip-rule="evenodd" d="M1944.58 32.4801C1945.2 31.9501 1945.99 31.6401 1946.86 31.6401H2091.54C2091.63 31.6401 2091.72 31.6401 2091.81 31.6501C2091.59 31.2301 2091.31 30.8301 2090.98 30.4901L2067.8 6.15009C2066.86 5.16009 2065.55 4.6001 2064.18 4.6001H1972.55C1971.18 4.6001 1969.87 5.16009 1968.93 6.15009L1945.75 30.4901C1945.2 31.0601 1944.81 31.7501 1944.58 32.4901V32.4801ZM2092.36 38.5401C2092.1 38.6001 2091.82 38.6401 2091.54 38.6401H1946.86C1945.89 38.6401 1945 38.2401 1944.37 37.6001V222.53C1944.37 223.92 1944.95 225.25 1945.97 226.2L1962.11 241.16C1963.04 242.02 1964.25 242.49 1965.51 242.49H2071.22C2072.48 242.49 2073.69 242.01 2074.61 241.16L2090.76 226.2C2091.78 225.25 2092.36 223.93 2092.36 222.53V38.5401Z" fill="#001EFF"/>
<mask id="mask1_1306_3422" style="mask-type:alpha" maskUnits="userSpaceOnUse" x="1944" y="4" width="149" height="239">
<path fill-rule="evenodd" clip-rule="evenodd" d="M1944.58 32.4801C1945.2 31.9501 1945.99 31.6401 1946.86 31.6401H2091.54C2091.63 31.6401 2091.72 31.6401 2091.81 31.6501C2091.59 31.2301 2091.31 30.8301 2090.98 30.4901L2067.8 6.15009C2066.86 5.16009 2065.55 4.6001 2064.18 4.6001H1972.55C1971.18 4.6001 1969.87 5.16009 1968.93 6.15009L1945.75 30.4901C1945.2 31.0601 1944.81 31.7501 1944.58 32.4901V32.4801ZM2092.36 38.5401C2092.1 38.6001 2091.82 38.6401 2091.54 38.6401H1946.86C1945.89 38.6401 1945 38.2401 1944.37 37.6001V222.53C1944.37 223.92 1944.95 225.25 1945.97 226.2L1962.11 241.16C1963.04 242.02 1964.25 242.49 1965.51 242.49H2071.22C2072.48 242.49 2073.69 242.01 2074.61 241.16L2090.76 226.2C2091.78 225.25 2092.36 223.93 2092.36 222.53V38.5401Z" fill="#001EFF"/>
</mask>
<g mask="url(#mask1_1306_3422)">
<path d="M2061.61 77.8199L2108.63 107.02L2066.97 51.7199L2119.4 61.8799L2089.68 38.6499H1946.66L1905.11 58.1199L1976.59 51.4399L1943.32 113.87L1991.83 78.5799L1994.98 132.67L2016.64 87.4399L2034.83 112.07L2041.15 87.1799L2071.66 117.23L2061.61 77.8399V77.8199Z" fill="#FFCC00"/>
<path d="M2036.1 190.45L2057.53 165.33L2053.24 198.7L2052.48 204.6L2058.01 202.39L2078.66 194.14L2071.18 218.36L2069.45 223.98L2075.22 222.83L2118.25 214.23L2081.99 243.14L2076.47 247.54L2083.31 249.27L2126.57 260.2L2083.31 271.13L2076.47 272.86L2081.99 277.26L2118.25 306.17L2075.22 297.57L2067.76 296.08L2071.47 302.71L2094.9 344.58L2058.77 318.43L2051.98 313.51L2053.26 321.8L2060.67 369.73L2036.42 330.39L2031.72 322.77L2030.01 331.56L2020.84 378.45L2011.68 331.56L2009.97 322.77L2005.27 330.39L1981.02 369.73L1988.43 321.8L1989.71 313.51L1982.92 318.43L1946.79 344.58L1970.21 302.71L1973.93 296.08L1966.47 297.57L1923.44 306.17L1959.7 277.26L1965.22 272.86L1958.38 271.13L1915.12 260.2L1958.38 249.27L1965.22 247.54L1959.7 243.14L1923.44 214.23L1966.47 222.83L1973.38 224.21L1970.31 217.87L1957.23 190.87L1983.58 202.35L1989.42 204.9L1988.43 198.6L1982.78 162.58L2005.54 190.39L2009.99 195.83L2020.15 156.9L2031.42 195.94L2036.1 190.45Z" fill="#FF0000" stroke="#FFCC00" stroke-width="7"/>
</g>
<path d="M2088.86 33.9298V222.52C2088.86 222.94 2088.68 223.34 2088.38 223.62L2072.23 238.58C2071.96 238.84 2071.59 238.98 2071.21 238.98H1965.51C1965.13 238.98 1964.77 238.84 1964.49 238.58L1948.35 223.62C1948.04 223.34 1947.87 222.94 1947.87 222.52V33.9298C1947.87 33.5398 1948.02 33.1698 1948.28 32.8998L1971.46 8.55984C1971.74 8.25984 1972.14 8.08984 1972.55 8.08984H2064.18C2064.59 8.08984 2064.98 8.25984 2065.27 8.55984L2088.45 32.8998C2088.71 33.1798 2088.86 33.5498 2088.86 33.9298Z" stroke="white" stroke-width="7"/>
<path d="M295.36 33.9298C295.36 32.6498 295.85 31.4099 296.74 30.4799L319.92 6.13986C320.86 5.14986 322.17 4.58984 323.54 4.58984H415.18C416.55 4.58984 417.86 5.14986 418.8 6.13986L441.98 30.4799C442.87 31.4099 443.36 32.6398 443.36 33.9298V222.52C443.36 223.91 442.78 225.24 441.76 226.19L425.62 241.15C424.69 242.01 423.48 242.48 422.22 242.48H316.51C315.25 242.48 314.04 242 313.11 241.15L296.97 226.19C295.95 225.24 295.37 223.91 295.37 222.52V33.9298H295.36Z" fill="#001EFF"/>
<path fill-rule="evenodd" clip-rule="evenodd" d="M295.58 32.4801C296.19 31.9501 296.99 31.6401 297.86 31.6401H442.55C442.64 31.6401 442.73 31.6401 442.82 31.6501C442.6 31.2301 442.33 30.8301 441.99 30.4901L418.81 6.15009C417.87 5.16009 416.56 4.6001 415.19 4.6001H323.55C322.18 4.6001 320.87 5.16009 319.93 6.15009L296.75 30.4901C296.21 31.0601 295.81 31.7501 295.59 32.4901L295.58 32.4801ZM443.36 38.5401C443.1 38.6001 442.82 38.6401 442.54 38.6401H297.85C296.88 38.6401 295.99 38.2401 295.36 37.6001V222.53C295.36 223.92 295.94 225.25 296.96 226.2L313.11 241.16C314.03 242.02 315.25 242.49 316.51 242.49H422.22C423.48 242.49 424.69 242.01 425.62 241.16L441.77 226.2C442.79 225.25 443.37 223.93 443.37 222.53V38.5401H443.36Z" fill="white"/>
<mask id="mask2_1306_3422" style="mask-type:alpha" maskUnits="userSpaceOnUse" x="295" y="4" width="149" height="239">
<path fill-rule="evenodd" clip-rule="evenodd" d="M295.58 32.4801C296.19 31.9501 296.99 31.6401 297.86 31.6401H442.55C442.64 31.6401 442.73 31.6401 442.82 31.6501C442.6 31.2301 442.33 30.8301 441.99 30.4901L418.81 6.15009C417.87 5.16009 416.56 4.6001 415.19 4.6001H323.55C322.18 4.6001 320.87 5.16009 319.93 6.15009L296.75 30.4901C296.21 31.0601 295.81 31.7501 295.59 32.4901L295.58 32.4801ZM443.36 38.5401C443.1 38.6001 442.82 38.6401 442.54 38.6401H297.85C296.88 38.6401 295.99 38.2401 295.36 37.6001V222.53C295.36 223.92 295.94 225.25 296.96 226.2L313.11 241.16C314.03 242.02 315.25 242.49 316.51 242.49H422.22C423.48 242.49 424.69 242.01 425.62 241.16L441.77 226.2C442.79 225.25 443.37 223.93 443.37 222.53V38.5401H443.36Z" fill="white"/>
</mask>
<g mask="url(#mask2_1306_3422)">
<path d="M-162.69 -288.27L-108.66 -306.19L-122.23 -254.07L-71.2799 -274.6L-85.2399 -222.81L-34.2899 -243.34L-41.1199 -185.52L8.87006 -206.86L-4.31995 -154.41L49.9101 -172.17L34.2201 -121.84L82.86 -144.32L66.2001 -94.7999L115.79 -119.58L98.5701 -67.4399L144.32 -92.3699L128.63 -42.0399L173.99 -67.2899L163.88 -12.2399L210.01 -36.8399L194.51 13.6501L241.8 -9.96994L221.48 36.4501L266.84 11.2001L249.61 60.2301L292.37 33.0901L278.89 84.9801L329.46 64.1201L308.95 110.38L361.63 91.3201L336.69 133.83L384.36 110.53L360.96 154.35L408.06 130.56L391.98 180.57L431.76 150.59L417.99 202.55L465.66 179.25L452.47 231.7L497.83 206.45L485.22 259.39L536.94 239.51L514.7 284.3L568.54 266.21L546.3 311L592.24 286.24L577.9 337.71L618.25 308.22L605.06 360.67L651 335.91L635.5 386.4L680.67 360.98L663.44 410.01L711.5 387.04L693.88 435.74L737.51 409.02L722.97 460.33L769.1 435.73L750.13 483.29L798.19 460.32L779.8 508.37L825.35 483.28L809.46 533.45L854.24 507.71L841.05 560.16L884.68 533.44L870.72 585.24L911.07 555.75L896.73 607.22L943.44 583.11L925.63 631.65L971.96 607.21L956.07 657.38" stroke="#FFCC00" stroke-width="9"/>
<path d="M-214.58 -233.3L-160.55 -251.23L-174.12 -199.11L-123.17 -219.64L-137.13 -167.84L-86.1801 -188.37L-93.0101 -130.55L-43.0201 -151.9L-56.2101 -99.45L-1.98007 -117.21L-17.6701 -66.88L30.9699 -89.36L14.3099 -39.84L63.8999 -64.62L46.6799 -12.48L92.4299 -37.41L76.7399 12.92L122.1 -12.33L111.99 42.72L158.12 18.12L142.62 68.61L189.91 44.99L169.59 91.41L214.95 66.16L197.72 115.19L240.48 88.05L227 139.94L277.56 119.08L257.05 165.34L309.07 144.51L284.8 188.79L332.48 165.49L309.08 209.31L360.24 188.79L340.1 235.53L391.67 209.31L366.11 257.51L420.12 230.96L400.6 286.65L445.96 261.4L433.35 314.33L485.07 294.45L462.83 339.24L516.67 321.15L494.43 365.94L540.37 341.18L526.03 392.65L566.38 363.16L553.19 415.61L599.13 390.84L583.63 441.33L628.8 415.91L611.57 464.94L659.63 441.97L642.01 490.67L685.64 463.95L671.1 515.26L717.23 490.66L698.26 538.22L746.32 515.25L727.93 563.3L773.49 538.21L757.6 588.38L802.38 562.64L789.19 615.09L832.82 588.37L818.86 640.17L859.21 610.68L844.87 662.15L891.58 638.04L873.77 686.58L920.1 662.14L904.22 712.31" stroke="#FFCC00" stroke-width="9"/>
</g>
<path d="M439.86 33.9298V222.52C439.86 222.94 439.69 223.34 439.38 223.62L423.23 238.58C422.95 238.84 422.59 238.98 422.21 238.98H316.5C316.12 238.98 315.76 238.84 315.48 238.58L299.33 223.62C299.02 223.34 298.85 222.94 298.85 222.52V33.9298C298.85 33.5398 299 33.1698 299.26 32.8998L322.44 8.55984C322.72 8.25984 323.12 8.08984 323.53 8.08984H415.17C415.58 8.08984 415.97 8.25984 416.26 8.55984L439.44 32.8998C439.71 33.1798 439.85 33.5498 439.85 33.9298H439.86Z" stroke="#001EFF" stroke-width="7"/>
<path d="M2656.36 33.9298C2656.36 32.6498 2655.87 31.4099 2654.98 30.4799L2631.8 6.13986C2630.86 5.14986 2629.55 4.58984 2628.18 4.58984H2536.54C2535.17 4.58984 2533.86 5.14986 2532.92 6.13986L2509.74 30.4799C2508.85 31.4099 2508.36 32.6398 2508.36 33.9298V222.52C2508.36 223.91 2508.94 225.24 2509.96 226.19L2526.11 241.15C2527.03 242.01 2528.25 242.48 2529.51 242.48H2635.21C2636.47 242.48 2637.69 242 2638.61 241.15L2654.76 226.19C2655.78 225.24 2656.36 223.91 2656.36 222.52V33.9298Z" fill="#FFCC00"/>
<path fill-rule="evenodd" clip-rule="evenodd" d="M2656.14 32.4801C2655.53 31.9501 2654.74 31.6401 2653.87 31.6401H2509.18C2509.09 31.6401 2509 31.6401 2508.91 31.6501C2509.13 31.2301 2509.41 30.8301 2509.74 30.4901L2532.92 6.15009C2533.86 5.16009 2535.17 4.6001 2536.54 4.6001H2628.18C2629.55 4.6001 2630.86 5.16009 2631.8 6.15009L2654.98 30.4901C2655.52 31.0601 2655.92 31.7501 2656.14 32.4901V32.4801ZM2508.36 38.5401C2508.62 38.6001 2508.9 38.6401 2509.18 38.6401H2653.87C2654.84 38.6401 2655.72 38.2401 2656.36 37.6001V222.53C2656.36 223.92 2655.78 225.25 2654.76 226.2L2638.61 241.16C2637.69 242.02 2636.47 242.49 2635.21 242.49H2529.51C2528.25 242.49 2527.03 242.01 2526.11 241.16L2509.96 226.2C2508.94 225.25 2508.36 223.93 2508.36 222.53V38.5401Z" fill="white"/>
<mask id="mask3_1306_3422" style="mask-type:alpha" maskUnits="userSpaceOnUse" x="2508" y="4" width="149" height="239">
<path fill-rule="evenodd" clip-rule="evenodd" d="M2656.14 32.4801C2655.53 31.9501 2654.74 31.6401 2653.87 31.6401H2509.18C2509.09 31.6401 2509 31.6401 2508.91 31.6501C2509.13 31.2301 2509.41 30.8301 2509.74 30.4901L2532.92 6.15009C2533.86 5.16009 2535.17 4.6001 2536.54 4.6001H2628.18C2629.55 4.6001 2630.86 5.16009 2631.8 6.15009L2654.98 30.4901C2655.52 31.0601 2655.92 31.7501 2656.14 32.4901V32.4801ZM2508.36 38.5401C2508.62 38.6001 2508.9 38.6401 2509.18 38.6401H2653.87C2654.84 38.6401 2655.72 38.2401 2656.36 37.6001V222.53C2656.36 223.92 2655.78 225.25 2654.76 226.2L2638.61 241.16C2637.69 242.02 2636.47 242.49 2635.21 242.49H2529.51C2528.25 242.49 2527.03 242.01 2526.11 241.16L2509.96 226.2C2508.94 225.25 2508.36 223.93 2508.36 222.53V38.5401Z" fill="white"/>
</mask>
<g mask="url(#mask3_1306_3422)">
<path d="M3114.41 -288.27L3060.38 -306.19L3073.95 -254.07L3023 -274.6L3036.96 -222.81L2986.01 -243.34L2992.84 -185.52L2942.86 -206.86L2956.04 -154.41L2901.82 -172.17L2917.51 -121.84L2868.87 -144.32L2885.53 -94.7999L2835.94 -119.58L2853.16 -67.4399L2807.41 -92.3699L2823.11 -42.0399L2777.74 -67.2899L2787.85 -12.2399L2741.72 -36.8399L2757.22 13.6501L2709.93 -9.96994L2730.24 36.4501L2684.88 11.2001L2702.12 60.2301L2659.35 33.0901L2672.83 84.9801L2622.27 64.1201L2642.78 110.38L2590.09 91.3201L2615.03 133.83L2567.36 110.53L2590.76 154.35L2543.66 130.56L2559.74 180.57L2519.96 150.59L2533.73 202.55L2486.06 179.25L2499.24 231.7L2453.88 206.45L2466.49 259.39L2414.77 239.51L2437.01 284.3L2383.17 266.21L2405.42 311L2359.48 286.24L2373.82 337.71L2333.47 308.22L2346.66 360.67L2300.72 335.91L2316.22 386.4L2271.05 360.98L2288.28 410.01L2240.22 387.04L2257.84 435.74L2214.21 409.02L2228.75 460.33L2182.61 435.73L2201.58 483.29L2153.52 460.32L2171.91 508.37L2126.36 483.28L2142.24 533.45L2097.46 507.71L2110.65 560.16L2067.02 533.44L2080.98 585.24L2040.62 555.75L2054.97 607.22L2008.26 583.11L2026.07 631.65L1979.74 607.21L1995.63 657.38" stroke="#001EFF" stroke-width="9"/>
<path d="M3166.3 -233.3L3112.27 -251.23L3125.85 -199.11L3074.9 -219.64L3088.85 -167.84L3037.9 -188.37L3044.74 -130.55L2994.75 -151.9L3007.94 -99.45L2953.71 -117.21L2969.4 -66.88L2920.77 -89.36L2937.42 -39.84L2887.84 -64.62L2905.06 -12.48L2859.31 -37.41L2875 12.92L2829.64 -12.33L2839.74 42.72L2793.61 18.12L2809.11 68.61L2761.82 44.99L2782.14 91.41L2736.78 66.16L2754.01 115.19L2711.25 88.05L2724.72 139.94L2674.16 119.08L2694.67 165.34L2642.65 144.51L2666.93 188.79L2619.25 165.49L2642.65 209.31L2591.49 188.79L2611.63 235.53L2560.06 209.31L2585.62 257.51L2531.62 230.96L2551.14 286.65L2505.77 261.4L2518.38 314.33L2466.66 294.45L2488.91 339.24L2435.07 321.15L2457.31 365.94L2411.37 341.18L2425.71 392.65L2385.36 363.16L2398.55 415.61L2352.61 390.84L2368.11 441.33L2322.94 415.91L2340.17 464.94L2292.11 441.97L2309.73 490.67L2266.1 463.95L2280.64 515.26L2234.51 490.66L2253.47 538.22L2205.42 515.25L2223.81 563.3L2178.25 538.21L2194.14 588.38L2149.35 562.64L2162.54 615.09L2118.91 588.37L2132.87 640.17L2092.52 610.68L2106.86 662.15L2060.15 638.04L2077.96 686.58L2031.63 662.14L2047.52 712.31" stroke="#001EFF" stroke-width="9"/>
</g>
<path d="M2511.86 33.9298V222.52C2511.86 222.94 2512.04 223.34 2512.34 223.62L2528.49 238.58C2528.76 238.84 2529.13 238.98 2529.51 238.98H2635.21C2635.59 238.98 2635.96 238.84 2636.23 238.58L2652.38 223.62C2652.69 223.34 2652.86 222.94 2652.86 222.52V33.9298C2652.86 33.5398 2652.71 33.1698 2652.45 32.8998L2629.27 8.55984C2628.98 8.25984 2628.59 8.08984 2628.18 8.08984H2536.54C2536.13 8.08984 2535.74 8.25984 2535.45 8.55984L2512.27 32.8998C2512.01 33.1798 2511.86 33.5498 2511.86 33.9298Z" stroke="#FFCC00" stroke-width="7"/>
<path d="M2132.36 33.9298C2132.36 32.6498 2132.85 31.4099 2133.74 30.4799L2156.92 6.13986C2157.86 5.14986 2159.17 4.58984 2160.54 4.58984H2252.18C2253.55 4.58984 2254.86 5.14986 2255.8 6.13986L2278.98 30.4799C2279.87 31.4099 2280.36 32.6398 2280.36 33.9298V222.52C2280.36 223.91 2279.78 225.24 2278.76 226.19L2262.61 241.15C2261.69 242.01 2260.47 242.48 2259.21 242.48H2153.51C2152.25 242.48 2151.03 242 2150.11 241.15L2133.96 226.19C2132.94 225.24 2132.36 223.91 2132.36 222.52V33.9298Z" fill="#001EFF"/>
<path fill-rule="evenodd" clip-rule="evenodd" d="M2132.58 32.4801C2133.19 31.9501 2133.98 31.6401 2134.85 31.6401H2279.54C2279.63 31.6401 2279.72 31.6401 2279.81 31.6501C2279.59 31.2301 2279.31 30.8301 2278.98 30.4901L2255.8 6.15009C2254.86 5.16009 2253.55 4.6001 2252.18 4.6001H2160.54C2159.17 4.6001 2157.86 5.16009 2156.92 6.15009L2133.74 30.4901C2133.2 31.0601 2132.8 31.7501 2132.58 32.4901V32.4801ZM2280.36 38.5401C2280.1 38.6001 2279.82 38.6401 2279.54 38.6401H2134.85C2133.88 38.6401 2133 38.2401 2132.36 37.6001V222.53C2132.36 223.92 2132.94 225.25 2133.96 226.2L2150.11 241.16C2151.03 242.02 2152.25 242.49 2153.51 242.49H2259.21C2260.47 242.49 2261.69 242.01 2262.61 241.16L2278.76 226.2C2279.78 225.25 2280.36 223.93 2280.36 222.53V38.5401Z" fill="#FF0000"/>
<mask id="mask4_1306_3422" style="mask-type:alpha" maskUnits="userSpaceOnUse" x="2132" y="4" width="149" height="239">
<path fill-rule="evenodd" clip-rule="evenodd" d="M2132.58 32.4801C2133.19 31.9501 2133.98 31.6401 2134.85 31.6401H2279.54C2279.63 31.6401 2279.72 31.6401 2279.81 31.6501C2279.59 31.2301 2279.31 30.8301 2278.98 30.4901L2255.8 6.15009C2254.86 5.16009 2253.55 4.6001 2252.18 4.6001H2160.54C2159.17 4.6001 2157.86 5.16009 2156.92 6.15009L2133.74 30.4901C2133.2 31.0601 2132.8 31.7501 2132.58 32.4901V32.4801ZM2280.36 38.5401C2280.1 38.6001 2279.82 38.6401 2279.54 38.6401H2134.85C2133.88 38.6401 2133 38.2401 2132.36 37.6001V222.53C2132.36 223.92 2132.94 225.25 2133.96 226.2L2150.11 241.16C2151.03 242.02 2152.25 242.49 2153.51 242.49H2259.21C2260.47 242.49 2261.69 242.01 2262.61 241.16L2278.76 226.2C2279.78 225.25 2280.36 223.93 2280.36 222.53V38.5401Z" fill="#FF0000"/>
</mask>
<g mask="url(#mask4_1306_3422)">
<path d="M1674.31 -288.27L1728.34 -306.19L1714.77 -254.07L1765.72 -274.6L1751.76 -222.81L1802.71 -243.34L1795.88 -185.52L1845.86 -206.86L1832.68 -154.41L1886.9 -172.17L1871.21 -121.84L1919.85 -144.32L1903.19 -94.7999L1952.78 -119.58L1935.56 -67.4399L1981.31 -92.3699L1965.61 -42.0399L2010.98 -67.2899L2000.87 -12.2399L2047 -36.8399L2031.5 13.6501L2078.79 -9.96994L2058.48 36.4501L2103.84 11.2001L2086.6 60.2301L2129.37 33.0901L2115.89 84.9801L2166.45 64.1201L2145.94 110.38L2198.63 91.3201L2173.69 133.83L2221.36 110.53L2197.96 154.35L2245.06 130.56L2228.98 180.57L2268.76 150.59L2254.99 202.55L2302.66 179.25L2289.48 231.7L2334.84 206.45L2322.23 259.39L2373.95 239.51L2351.71 284.3L2405.55 266.21L2383.3 311L2429.24 286.24L2414.9 337.71L2455.25 308.22L2442.06 360.67L2488 335.91L2472.5 386.4L2517.67 360.98L2500.44 410.01L2548.5 387.04L2530.88 435.74L2574.51 409.02L2559.97 460.33L2606.11 435.73L2587.14 483.29L2635.2 460.32L2616.81 508.37L2662.36 483.28L2646.48 533.45L2691.26 507.71L2678.07 560.16L2721.7 533.44L2707.74 585.24L2748.1 555.75L2733.75 607.22L2780.46 583.11L2762.65 631.65L2808.98 607.21L2793.09 657.38" stroke="white" stroke-width="9"/>
<path d="M1622.42 -233.3L1676.45 -251.23L1662.87 -199.11L1713.82 -219.64L1699.87 -167.84L1750.82 -188.37L1743.98 -130.55L1793.97 -151.9L1780.78 -99.45L1835.01 -117.21L1819.32 -66.88L1867.95 -89.36L1851.3 -39.84L1900.88 -64.62L1883.66 -12.48L1929.41 -37.41L1913.72 12.92L1959.08 -12.33L1948.98 42.72L1995.11 18.12L1979.61 68.61L2026.9 44.99L2006.58 91.41L2051.94 66.16L2034.71 115.19L2077.47 88.05L2064 139.94L2114.56 119.08L2094.05 165.34L2146.07 144.51L2121.79 188.79L2169.47 165.49L2146.07 209.31L2197.23 188.79L2177.09 235.53L2228.66 209.31L2203.1 257.51L2257.1 230.96L2237.58 286.65L2282.95 261.4L2270.34 314.33L2322.06 294.45L2299.81 339.24L2353.65 321.15L2331.41 365.94L2377.35 341.18L2363.01 392.65L2403.36 363.16L2390.17 415.61L2436.11 390.84L2420.61 441.33L2465.78 415.91L2448.55 464.94L2496.61 441.97L2478.99 490.67L2522.62 463.95L2508.08 515.26L2554.21 490.66L2535.25 538.22L2583.3 515.25L2564.91 563.3L2610.47 538.21L2594.58 588.38L2639.37 562.64L2626.18 615.09L2669.81 588.37L2655.85 640.17L2696.2 610.68L2681.86 662.15L2728.57 638.04L2710.76 686.58L2757.09 662.14L2741.2 712.31" stroke="white" stroke-width="9"/>
</g>
<path d="M2276.86 33.9298V222.52C2276.86 222.94 2276.68 223.34 2276.38 223.62L2260.23 238.58C2259.96 238.84 2259.59 238.98 2259.21 238.98H2153.51C2153.13 238.98 2152.76 238.84 2152.49 238.58L2136.34 223.62C2136.03 223.34 2135.86 222.94 2135.86 222.52V33.9298C2135.86 33.5398 2136.01 33.1698 2136.27 32.8998L2159.45 8.55984C2159.74 8.25984 2160.13 8.08984 2160.54 8.08984H2252.18C2252.59 8.08984 2252.98 8.25984 2253.27 8.55984L2276.45 32.8998C2276.71 33.1798 2276.86 33.5498 2276.86 33.9298Z" stroke="#001EFF" stroke-width="7"/>
<path d="M483.36 33.9298C483.36 32.6498 483.85 31.4099 484.74 30.4799L507.92 6.13986C508.86 5.14986 510.17 4.58984 511.54 4.58984H603.18C604.55 4.58984 605.86 5.14986 606.8 6.13986L629.98 30.4799C630.87 31.4099 631.36 32.6398 631.36 33.9298V222.52C631.36 223.91 630.78 225.24 629.76 226.19L613.62 241.15C612.69 242.01 611.48 242.48 610.22 242.48H504.51C503.25 242.48 502.04 242 501.11 241.15L484.96 226.19C483.94 225.24 483.36 223.91 483.36 222.52V33.9298Z" fill="#FF0000"/>
<path fill-rule="evenodd" clip-rule="evenodd" d="M483.58 32.4801C484.19 31.9501 484.99 31.6401 485.86 31.6401H630.55C630.64 31.6401 630.73 31.6401 630.82 31.6501C630.6 31.2301 630.33 30.8301 629.99 30.4901L606.81 6.15009C605.87 5.16009 604.56 4.6001 603.19 4.6001H511.55C510.18 4.6001 508.87 5.16009 507.93 6.15009L484.75 30.4901C484.21 31.0601 483.81 31.7501 483.59 32.4901L483.58 32.4801ZM631.36 38.5401C631.1 38.6001 630.82 38.6401 630.54 38.6401H485.85C484.87 38.6401 483.99 38.2401 483.36 37.6001V222.53C483.36 223.92 483.94 225.25 484.96 226.2L501.1 241.16C502.02 242.02 503.24 242.49 504.5 242.49H610.21C611.47 242.49 612.68 242.01 613.61 241.16L629.76 226.2C630.78 225.25 631.36 223.93 631.36 222.53V38.5401Z" fill="#FFCC00"/>
<mask id="mask5_1306_3422" style="mask-type:alpha" maskUnits="userSpaceOnUse" x="483" y="4" width="149" height="239">
<path fill-rule="evenodd" clip-rule="evenodd" d="M483.58 32.4801C484.19 31.9501 484.99 31.6401 485.86 31.6401H630.55C630.64 31.6401 630.73 31.6401 630.82 31.6501C630.6 31.2301 630.33 30.8301 629.99 30.4901L606.81 6.15009C605.87 5.16009 604.56 4.6001 603.19 4.6001H511.55C510.18 4.6001 508.87 5.16009 507.93 6.15009L484.75 30.4901C484.21 31.0601 483.81 31.7501 483.59 32.4901L483.58 32.4801ZM631.36 38.5401C631.1 38.6001 630.82 38.6401 630.54 38.6401H485.85C484.87 38.6401 483.99 38.2401 483.36 37.6001V222.53C483.36 223.92 483.94 225.25 484.96 226.2L501.1 241.16C502.02 242.02 503.24 242.49 504.5 242.49H610.21C611.47 242.49 612.68 242.01 613.61 241.16L629.76 226.2C630.78 225.25 631.36 223.93 631.36 222.53V38.5401Z" fill="#FFCC00"/>
</mask>
<g mask="url(#mask5_1306_3422)">
<path d="M0.360352 154.5L24.4704 115.43L43.2703 154.5L64.1103 115.43L82.5004 154.5L103.34 115.43L129.29 154.5L149.11 115.43L168.32 154.5L192.64 115.43L209.19 154.5L227.58 115.43L243.11 154.5L260.89 113.52L277.44 154.5L292.76 115.43L309.31 154.5L324.23 115.43L346.71 154.5L362.44 115.43L379.19 154.5L396.15 115.43L407.8 154.5L422.72 115.43L437.64 154.5L449.96 115.62L468.7 154.5L489.13 115.43L500.57 154.5L519.3 115.43L530 154.5L546.25 115.62L555.75 154.5L576.19 115.43L588.65 154.5L603.64 115.62L616.24 154.5L633.61 115.43L652.82 154.5L667.74 115.43L687.56 154.5L709.22 115.43L718.82 154.5L742.73 115.43L752.33 154.5L767.86 115.43L785.84 154.5L795.44 115.43L814.65 154.5L830.18 115.43L846.94 154.5L861.65 115.43L876.57 154.5L894.35 115.43L908.86 154.5L921.94 115.43L939.72 154.5L955.45 115.43L968.53 154.5L986.31 115.43L1000 154.5L1015.12 115.43L1031.47 154.5L1045.77 115.43L1064.98 154.5L1078.06 115.43L1096.45 154.5L1106.05 115.43L1124.03 154.5L1140.38 115.43L1154.68 154.5L1170.62 115.43L1186.96 154.5" stroke="#FF0000" stroke-width="7"/>
<path d="M3.36035 101.53L27.4904 62.4598L46.3003 101.53L67.1604 62.4598L85.5704 101.53L106.43 62.4598L132.4 101.53L152.24 62.4598L171.46 101.53L195.8 62.4598L212.36 101.53L230.76 62.4598L246.3 101.53L264.09 60.5498L280.66 101.53L296 62.4598L312.57 101.53L327.5 62.4598L350 101.53L365.75 62.4598L382.52 101.53L399.49 62.4598L411.15 101.53L426.08 62.4598L441.01 101.53L453.34 62.6498L472.09 101.53L488.87 62.6498L503.99 101.53L522.3 62.6498L533.44 101.53L550.82 62.4598L559.21 101.53L575.98 62.4598L592.14 101.53L604.14 62.6498L619.75 101.53L637.13 62.4598L656.35 101.53L671.28 62.4598L691.12 101.53L712.8 62.4598L722.41 101.53L746.34 62.4598L755.95 101.53L771.49 62.4598L789.49 101.53L799.1 62.4598L818.32 101.53L833.86 62.4598L850.63 101.53L865.35 62.4598L880.28 101.53L898.07 62.4598L912.59 101.53L925.68 62.4598L943.47 101.53L959.22 62.4598L972.31 101.53L990.1 62.4598L1003.8 101.53L1018.93 62.4598L1035.29 101.53L1049.61 62.4598L1068.83 101.53L1081.92 62.4598L1100.32 101.53L1109.93 62.4598L1127.93 101.53L1144.29 62.4598L1158.6 101.53L1174.55 62.4598L1190.91 101.53" stroke="#FF0000" stroke-width="7"/>
<path d="M-32.5698 211.46L-8.43982 171.84L10.3702 211.46L31.2302 171.84L49.6402 211.46L70.5002 171.84L96.4702 211.46L116.31 171.84L135.53 211.46L159.87 171.84L176.43 211.46L194.84 171.84L210.38 211.46L228.17 169.91L244.73 211.46L260.07 171.84L276.64 211.46L291.57 171.84L314.06 211.46L329.81 171.84L346.58 211.46L363.55 171.84L375.21 211.46L390.14 171.84L405.07 211.46L417.4 172.04L436.15 211.46L456.6 171.84L468.05 211.46L487.35 171.74L497.49 211.46L514.87 171.84L523.25 211.46L544.24 171.74L556.17 211.46L574.44 167.97L583.77 211.46L603.38 166.49L625.89 209.74L635.3 171.85L655.14 211.47L676.82 171.85L686.43 211.47L710.36 171.85L719.97 211.47L735.51 171.85L753.51 211.47L763.12 171.85L782.34 211.47L797.88 171.85L814.65 211.47L829.37 171.85L844.3 211.47L862.09 171.85L876.61 211.47L889.7 171.85L907.49 211.47L923.24 171.85L936.33 211.47L954.12 171.85L967.82 211.47L982.95 171.85L999.31 211.47L1013.63 171.85L1032.85 211.47L1045.94 171.85L1064.35 211.47L1073.96 171.85L1091.96 211.47L1108.32 171.85L1122.64 211.47L1138.59 171.85L1154.95 211.47" stroke="#FF0000" stroke-width="7"/>
</g>
<path d="M627.86 33.9298V222.52C627.86 222.94 627.69 223.34 627.38 223.62L611.23 238.58C610.95 238.84 610.59 238.98 610.21 238.98H504.5C504.12 238.98 503.76 238.84 503.48 238.58L487.33 223.62C487.02 223.34 486.85 222.94 486.85 222.52V33.9298C486.85 33.5398 487 33.1698 487.26 32.8998L510.44 8.55984C510.72 8.25984 511.12 8.08984 511.53 8.08984H603.17C603.58 8.08984 603.97 8.25984 604.26 8.55984L627.44 32.8998C627.71 33.1798 627.85 33.5498 627.85 33.9298H627.86Z" stroke="#FF0000" stroke-width="7"/>
<path d="M1649.89 3.15991C1650.78 2.23991 1652 1.68992 1653.28 1.63992L1686.89 0.269892C1688.25 0.209892 1689.58 0.719917 1690.57 1.66992L1756.61 65.4499C1757.59 66.3999 1758.14 67.7099 1758.14 69.0799L1757.94 102.71C1757.93 104 1757.43 105.23 1756.54 106.15L1625.62 241.72C1624.65 242.72 1623.31 243.28 1621.91 243.24L1599.89 242.76C1598.64 242.73 1597.44 242.23 1596.53 241.36L1520.35 167.79C1519.44 166.92 1518.9 165.73 1518.83 164.48L1517.58 142.49C1517.5 141.1 1518.01 139.74 1518.98 138.73L1649.89 3.15991Z" fill="#FFCC00"/>
<path fill-rule="evenodd" clip-rule="evenodd" d="M1651.07 2.26025C1651.86 2.31025 1652.65 2.63026 1653.27 3.23026L1757.57 103.9C1757.62 103.96 1757.68 104.02 1757.74 104.08C1757.87 103.64 1757.94 103.17 1757.94 102.7L1758.13 69.0703C1758.14 67.7003 1757.59 66.3902 1756.61 65.4402L1690.56 1.66025C1689.58 0.710248 1688.25 0.210255 1686.89 0.260255L1653.28 1.63025C1652.5 1.66025 1651.74 1.88024 1651.07 2.25024V2.26025ZM1753.36 109.44C1753.13 109.3 1752.91 109.14 1752.71 108.94L1648.41 8.27023C1647.72 7.60023 1647.36 6.70023 1647.35 5.80023L1518.97 138.73C1518.01 139.73 1517.5 141.09 1517.58 142.49L1518.83 164.48C1518.9 165.74 1519.44 166.92 1520.35 167.79L1596.53 241.36C1597.43 242.23 1598.64 242.74 1599.89 242.76L1621.91 243.24C1623.31 243.27 1624.65 242.72 1625.62 241.71L1753.36 109.43V109.44Z" fill="#001EFF"/>
<mask id="mask6_1306_3422" style="mask-type:alpha" maskUnits="userSpaceOnUse" x="1517" y="0" width="242" height="244">
<path fill-rule="evenodd" clip-rule="evenodd" d="M1651.07 2.26025C1651.86 2.31025 1652.65 2.63026 1653.27 3.23026L1757.57 103.9C1757.62 103.96 1757.68 104.02 1757.74 104.08C1757.87 103.64 1757.94 103.17 1757.94 102.7L1758.13 69.0703C1758.14 67.7003 1757.59 66.3902 1756.61 65.4402L1690.56 1.66025C1689.58 0.710248 1688.25 0.210255 1686.89 0.260255L1653.28 1.63025C1652.5 1.66025 1651.74 1.88024 1651.07 2.25024V2.26025ZM1753.36 109.44C1753.13 109.3 1752.91 109.14 1752.71 108.94L1648.41 8.27023C1647.72 7.60023 1647.36 6.70023 1647.35 5.80023L1518.97 138.73C1518.01 139.73 1517.5 141.09 1517.58 142.49L1518.83 164.48C1518.9 165.74 1519.44 166.92 1520.35 167.79L1596.53 241.36C1597.43 242.23 1598.64 242.74 1599.89 242.76L1621.91 243.24C1623.31 243.27 1624.65 242.72 1625.62 241.71L1753.36 109.43V109.44Z" fill="#001EFF"/>
</mask>
<g mask="url(#mask6_1306_3422)">
<path d="M1218.06 -246.21L1262.57 -257.52L1248.99 -216.36L1291.14 -229.94L1277.26 -189.07L1319.41 -202.65L1310.98 -156.52L1352.4 -170.81L1339.11 -129.37L1383.77 -140.53L1368.57 -100.93L1408.95 -116.22L1393.01 -77.34L1434.28 -94.42L1417.75 -53.46L1455.93 -70.88L1440.73 -31.29L1478.61 -48.99L1467.68 -5.27L1506.14 -22.4L1491.09 17.34L1530.44 1.06L1511.71 37.24L1549.59 19.54L1533.21 58L1569.09 38.63L1555.6 79.61L1597.45 65.75L1578.57 101.79L1619.19 86.74L1599.78 122.26L1638.48 105.62L1618.33 140.17L1660.19 126.31L1642.04 163.06L1679.84 145.54L1661.92 182.25L1701.57 166.25L1688.28 207.69L1726.16 189.99L1713.32 231.86L1756.06 218.85L1735.85 253.61L1780.21 242.16L1760 276.92L1798.32 259.64L1784.15 300.23L1818.2 278.83L1804.92 320.27L1843.24 302.99L1828.19 342.73L1865.92 324.88L1849.54 363.34L1889.48 347.63L1872.81 385.8L1909.36 366.82L1895.05 407.27L1933.51 390.14L1915.81 427.32L1955.75 411.61L1938.49 449.21L1976.52 431.65L1961.17 471.1L1998.61 452.97L1985.32 494.41L2021.87 475.43L2008 516.3L2042.05 494.9L2027.88 535.49L2066.79 518.78L2049.97 556.81L2088.59 539.82L2073.24 579.27" stroke="#FFCC00" stroke-width="7"/>
<path d="M1257 -282.2L1301.52 -293.49L1287.95 -252.32L1330.11 -265.89L1316.25 -225.01L1358.41 -238.58L1350 -192.43L1391.43 -206.71L1378.15 -165.26L1422.82 -176.41L1407.63 -136.81L1448.02 -152.09L1432.1 -113.2L1473.37 -130.27L1456.86 -89.3002L1495.04 -106.71L1479.85 -67.1102L1517.74 -84.8002L1506.82 -41.0703L1545.3 -58.2003L1530.26 -18.4503L1569.62 -34.7202L1550.89 1.46976L1588.78 -16.2202L1572.41 22.2498L1608.3 2.88977L1594.82 43.8798L1633.9 27.6097L1617.81 66.0797L1658 50.8698L1639.03 86.5598L1678.69 70.5698L1657.6 104.48L1696.82 88.0698L1681.33 127.39L1716.98 107.79L1701.23 146.59L1740.89 130.6L1727.62 172.05L1765.5 154.36L1752.67 196.24L1795.42 183.24L1775.22 218.01L1819.6 206.58L1799.39 241.35L1837.72 224.08L1823.57 264.68L1857.62 243.29L1844.35 284.74L1882.68 267.47L1867.64 307.22L1905.38 289.38L1889.01 327.85L1928.96 312.15L1912.3 350.33L1948.86 331.35L1934.55 371.81L1973.03 354.69L1955.33 391.87L1995.29 376.17L1978.03 413.78L2016.07 396.23L2000.73 435.69L2038.18 417.57L2024.9 459.02L2061.46 440.04L2047.6 480.93L2081.66 459.54L2067.5 500.14L2106.42 483.44L2089.61 521.48L2128.23 504.5L2112.89 543.96" stroke="#FFCC00" stroke-width="7"/>
<path d="M1154.77 -228.18L1199.67 -239.87L1185.72 -198.31L1228.26 -212.27L1214.02 -170.99L1256.56 -184.95L1247.77 -138.41L1289.58 -153.08L1275.92 -111.23L1320.97 -122.77L1305.4 -82.7701L1346.18 -98.4401L1329.87 -59.1501L1371.54 -76.6401L1354.63 -35.2501L1393.19 -53.0501L1377.62 -13.0501L1415.89 -31.1401L1404.6 12.9799L1443.45 -4.54013L1428.03 35.5999L1467.77 18.9299L1448.67 55.5099L1486.94 37.4199L1470.19 76.2799L1506.45 56.5199L1492.59 97.8999L1534.84 83.6499L1515.58 120.09L1557.07 104.97L1536.81 140.57L1576.84 124.19L1555.38 158.5L1598.09 144.56L1579.11 181.41L1622.48 162.87L1599.01 200.62L1644.37 181.94L1625.39 226.09L1663.66 208L1650.44 250.27L1693.58 236.88L1673 272.04L1717.75 260.21L1697.17 295.37L1735.88 277.71L1721.34 318.7L1755.78 296.91L1742.12 338.76L1780.83 321.1L1765.41 361.24L1803.53 343.01L1786.78 381.87L1827.11 365.77L1810.07 404.35L1847.01 384.98L1832.32 425.83L1871.18 408.31L1853.11 445.89L1893.44 429.79L1875.81 467.8L1914.22 449.85L1898.5 489.71L1936.33 471.19L1922.68 513.04L1959.62 493.67L1945.37 534.95L1979.81 513.16L1965.27 554.15L2004.57 537.06L1987.38 575.49L2026.39 558.11L2010.67 597.97" stroke="#FFCC00" stroke-width="7"/>
</g>
<path d="M1754.02 103.72L1623.1 239.29C1622.81 239.59 1622.41 239.76 1621.99 239.75L1599.97 239.27C1599.59 239.27 1599.23 239.11 1598.96 238.85L1522.78 165.28C1522.51 165.02 1522.35 164.66 1522.32 164.29L1521.07 142.3C1521.05 141.88 1521.2 141.47 1521.49 141.17L1652.41 5.60025C1652.68 5.32025 1653.04 5.16026 1653.43 5.14026L1687.03 3.77023C1687.44 3.75023 1687.84 3.91025 1688.13 4.19025L1754.18 67.9702C1754.47 68.2502 1754.64 68.6502 1754.64 69.0602L1754.44 102.69C1754.44 103.08 1754.29 103.45 1754.02 103.72Z" stroke="#FFCC00" stroke-width="7"/>
<path d="M1904.36 33.9298C1904.36 32.6498 1903.87 31.4099 1902.98 30.4799L1879.8 6.13986C1878.86 5.14986 1877.55 4.58984 1876.18 4.58984H1784.54C1783.17 4.58984 1781.86 5.14986 1780.92 6.13986L1757.74 30.4799C1756.85 31.4099 1756.36 32.6398 1756.36 33.9298V222.52C1756.36 223.91 1756.94 225.24 1757.96 226.19L1774.11 241.15C1775.03 242.01 1776.25 242.48 1777.51 242.48H1883.21C1884.47 242.48 1885.69 242 1886.61 241.15L1902.76 226.19C1903.78 225.24 1904.36 223.91 1904.36 222.52V33.9298Z" fill="white"/>
<path fill-rule="evenodd" clip-rule="evenodd" d="M1904.14 32.4801C1903.53 31.9501 1902.74 31.6401 1901.87 31.6401H1757.18C1757.09 31.6401 1757 31.6401 1756.91 31.6501C1757.13 31.2301 1757.41 30.8301 1757.74 30.4901L1780.92 6.15009C1781.86 5.16009 1783.17 4.6001 1784.54 4.6001H1876.18C1877.55 4.6001 1878.86 5.16009 1879.8 6.15009L1902.98 30.4901C1903.52 31.0601 1903.92 31.7501 1904.14 32.4901V32.4801ZM1756.36 38.5401C1756.62 38.6001 1756.9 38.6401 1757.18 38.6401H1901.87C1902.84 38.6401 1903.72 38.2401 1904.36 37.6001V222.53C1904.36 223.92 1903.78 225.25 1902.76 226.2L1886.61 241.16C1885.69 242.02 1884.47 242.49 1883.21 242.49H1777.51C1776.25 242.49 1775.03 242.01 1774.11 241.16L1757.96 226.2C1756.94 225.25 1756.36 223.93 1756.36 222.53V38.5401Z" fill="#FFCC00"/>
<mask id="mask7_1306_3422" style="mask-type:alpha" maskUnits="userSpaceOnUse" x="1756" y="4" width="149" height="239">
<path fill-rule="evenodd" clip-rule="evenodd" d="M1904.14 32.4801C1903.53 31.9501 1902.74 31.6401 1901.87 31.6401H1757.18C1757.09 31.6401 1757 31.6401 1756.91 31.6501C1757.13 31.2301 1757.41 30.8301 1757.74 30.4901L1780.92 6.15009C1781.86 5.16009 1783.17 4.6001 1784.54 4.6001H1876.18C1877.55 4.6001 1878.86 5.16009 1879.8 6.15009L1902.98 30.4901C1903.52 31.0601 1903.92 31.7501 1904.14 32.4901V32.4801ZM1756.36 38.5401C1756.62 38.6001 1756.9 38.6401 1757.18 38.6401H1901.87C1902.84 38.6401 1903.72 38.2401 1904.36 37.6001V222.53C1904.36 223.92 1903.78 225.25 1902.76 226.2L1886.61 241.16C1885.69 242.02 1884.47 242.49 1883.21 242.49H1777.51C1776.25 242.49 1775.03 242.01 1774.11 241.16L1757.96 226.2C1756.94 225.25 1756.36 223.93 1756.36 222.53V38.5401Z" fill="#FFCC00"/>
</mask>
<g mask="url(#mask7_1306_3422)">
<path d="M1778.7 112.42L1825.04 90.4699L1787.4 143.04L1840.23 134.09L1800.95 165.69L1848.8 178.3L1799.36 192.26L1804.92 196.9L1837.63 224.16L1757.68 213.15L1705.92 178.13L1783.48 74.9399L1778.7 112.41V112.42Z" fill="white" stroke="#FF0000" stroke-width="7"/>
</g>
<path d="M1759.86 33.9298V222.52C1759.86 222.94 1760.04 223.34 1760.34 223.62L1776.49 238.58C1776.76 238.84 1777.13 238.98 1777.51 238.98H1883.21C1883.59 238.98 1883.96 238.84 1884.23 238.58L1900.38 223.62C1900.69 223.34 1900.86 222.94 1900.86 222.52V33.9298C1900.86 33.5398 1900.71 33.1698 1900.45 32.8998L1877.27 8.55984C1876.98 8.25984 1876.59 8.08984 1876.18 8.08984H1784.54C1784.13 8.08984 1783.74 8.25984 1783.45 8.55984L1760.27 32.8998C1760.01 33.1798 1759.86 33.5498 1759.86 33.9298Z" stroke="white" stroke-width="7"/>
<path d="M1137.36 33.9298C1137.36 32.6498 1137.85 31.4099 1138.74 30.4799L1161.92 6.13986C1162.86 5.14986 1164.17 4.58984 1165.54 4.58984H1257.18C1258.55 4.58984 1259.86 5.14986 1260.8 6.13986L1283.98 30.4799C1284.87 31.4099 1285.36 32.6398 1285.36 33.9298V222.52C1285.36 223.91 1284.78 225.24 1283.76 226.19L1267.61 241.15C1266.69 242.01 1265.47 242.48 1264.21 242.48H1158.51C1157.25 242.48 1156.03 242 1155.11 241.15L1138.96 226.19C1137.94 225.24 1137.36 223.91 1137.36 222.52V33.9298Z" fill="#FFCC00"/>
<path fill-rule="evenodd" clip-rule="evenodd" d="M1137.58 32.4801C1138.19 31.9501 1138.98 31.6401 1139.85 31.6401H1284.54C1284.63 31.6401 1284.72 31.6401 1284.81 31.6501C1284.59 31.2301 1284.31 30.8301 1283.98 30.4901L1260.8 6.15009C1259.86 5.16009 1258.55 4.6001 1257.18 4.6001H1165.54C1164.17 4.6001 1162.86 5.16009 1161.92 6.15009L1138.74 30.4901C1138.2 31.0601 1137.8 31.7501 1137.58 32.4901V32.4801ZM1285.36 38.5401C1285.1 38.6001 1284.82 38.6401 1284.54 38.6401H1139.85C1138.88 38.6401 1138 38.2401 1137.36 37.6001V222.53C1137.36 223.92 1137.94 225.25 1138.96 226.2L1155.11 241.16C1156.03 242.02 1157.25 242.49 1158.51 242.49H1264.21C1265.47 242.49 1266.69 242.01 1267.61 241.16L1283.76 226.2C1284.78 225.25 1285.36 223.93 1285.36 222.53V38.5401Z" fill="#FF0000"/>
<mask id="mask8_1306_3422" style="mask-type:alpha" maskUnits="userSpaceOnUse" x="1137" y="4" width="149" height="239">
<path fill-rule="evenodd" clip-rule="evenodd" d="M1137.58 32.4801C1138.19 31.9501 1138.98 31.6401 1139.85 31.6401H1284.54C1284.63 31.6401 1284.72 31.6401 1284.81 31.6501C1284.59 31.2301 1284.31 30.8301 1283.98 30.4901L1260.8 6.15009C1259.86 5.16009 1258.55 4.6001 1257.18 4.6001H1165.54C1164.17 4.6001 1162.86 5.16009 1161.92 6.15009L1138.74 30.4901C1138.2 31.0601 1137.8 31.7501 1137.58 32.4901V32.4801ZM1285.36 38.5401C1285.1 38.6001 1284.82 38.6401 1284.54 38.6401H1139.85C1138.88 38.6401 1138 38.2401 1137.36 37.6001V222.53C1137.36 223.92 1137.94 225.25 1138.96 226.2L1155.11 241.16C1156.03 242.02 1157.25 242.49 1158.51 242.49H1264.21C1265.47 242.49 1266.69 242.01 1267.61 241.16L1283.76 226.2C1284.78 225.25 1285.36 223.93 1285.36 222.53V38.5401Z" fill="#FF0000"/>
</mask>
<g mask="url(#mask8_1306_3422)">
<path d="M771.77 715.16L754.4 660.87L806.31 674.98L786.31 623.76L837.89 638.25L817.89 587.02L875.55 594.43L854.73 544.16L906.97 557.88L889.77 503.4L939.87 519.61L917.9 470.68L967.18 487.85L942.92 437.95L994.81 455.71L970.37 409.65L1020.47 425.86L995.7 380.18L1050.57 390.84L1026.46 344.4L1076.72 360.42L1053.6 312.83L1099.75 333.63L1074.98 287.95L1123.77 305.69L1097.09 262.6L1148.77 276.61L1128.44 225.77L1174.43 246.77L1155.91 193.82L1198.12 219.22L1175.32 171.25L1218.84 195.11L1195.56 147.71L1245.32 164.3L1215.79 124.17L1267.53 138.47L1244.74 90.5002L1296.98 104.22L1272.21 58.5402L1324.94 71.6902L1305.6 19.7002L1350.11 42.4202L1332.58 -11.6798L1377.08 11.0402L1352.81 -35.2098L1404.06 -20.3398L1375.02 -61.0399L1427.25 -47.3199L1402.98 -93.5699L1453.24 -77.5498L1428.31 -123.04L1477.09 -105.3L1454.63 -153.66L1503.08 -135.54L1476.84 -179.49L1527.92 -164.43L1503.81 -210.87L1551.11 -191.41L1528.65 -239.77L1576.45 -220.88L1551.84 -266.75L1601.78 -250.35L1576.52 -295.45L1628.75 -281.72L1602.51 -325.67L1654.09 -311.18L1625.04 -351.88L1676.29 -337.01L1652.68 -384.03L1700.96 -365.71L1677.02 -412.34L1726.95 -395.94" stroke="#FFCC00" stroke-width="9"/>
</g>
<path d="M1281.86 33.9298V222.52C1281.86 222.94 1281.68 223.34 1281.38 223.62L1265.23 238.58C1264.96 238.84 1264.59 238.98 1264.21 238.98H1158.51C1158.13 238.98 1157.76 238.84 1157.49 238.58L1141.34 223.62C1141.03 223.34 1140.86 222.94 1140.86 222.52V33.9298C1140.86 33.5398 1141.01 33.1698 1141.27 32.8998L1164.45 8.55984C1164.74 8.25984 1165.13 8.08984 1165.54 8.08984H1257.18C1257.59 8.08984 1257.98 8.25984 1258.27 8.55984L1281.45 32.8998C1281.71 33.1798 1281.86 33.5498 1281.86 33.9298Z" stroke="#FFCC00" stroke-width="7"/>
<path d="M949.36 33.9298C949.36 32.6498 949.85 31.4099 950.74 30.4799L973.92 6.13986C974.86 5.14986 976.17 4.58984 977.54 4.58984H1069.18C1070.55 4.58984 1071.86 5.14986 1072.8 6.13986L1095.98 30.4799C1096.87 31.4099 1097.36 32.6398 1097.36 33.9298V222.52C1097.36 223.91 1096.78 225.24 1095.76 226.19L1079.62 241.15C1078.7 242.01 1077.48 242.48 1076.22 242.48H970.51C969.25 242.48 968.04 242 967.11 241.15L950.96 226.19C949.94 225.24 949.36 223.91 949.36 222.52V33.9298Z" fill="#FF0000"/>
<path fill-rule="evenodd" clip-rule="evenodd" d="M949.58 32.4801C950.19 31.9501 950.99 31.6401 951.86 31.6401H1096.55C1096.64 31.6401 1096.73 31.6401 1096.82 31.6501C1096.6 31.2301 1096.33 30.8301 1095.99 30.4901L1072.81 6.15009C1071.87 5.16009 1070.56 4.6001 1069.19 4.6001H977.55C976.18 4.6001 974.87 5.16009 973.93 6.15009L950.75 30.4901C950.21 31.0601 949.81 31.7501 949.59 32.4901L949.58 32.4801ZM1097.36 38.5401C1097.1 38.6001 1096.82 38.6401 1096.54 38.6401H951.85C950.88 38.6401 949.99 38.2401 949.36 37.6001V222.53C949.36 223.92 949.94 225.25 950.96 226.2L967.1 241.16C968.02 242.02 969.24 242.49 970.5 242.49H1076.21C1077.47 242.49 1078.68 242.01 1079.61 241.16L1095.76 226.2C1096.78 225.25 1097.36 223.93 1097.36 222.53V38.5401Z" fill="#FFCC00"/>
<mask id="mask9_1306_3422" style="mask-type:alpha" maskUnits="userSpaceOnUse" x="949" y="4" width="149" height="239">
<path fill-rule="evenodd" clip-rule="evenodd" d="M949.58 32.4801C950.19 31.9501 950.99 31.6401 951.86 31.6401H1096.55C1096.64 31.6401 1096.73 31.6401 1096.82 31.6501C1096.6 31.2301 1096.33 30.8301 1095.99 30.4901L1072.81 6.15009C1071.87 5.16009 1070.56 4.6001 1069.19 4.6001H977.55C976.18 4.6001 974.87 5.16009 973.93 6.15009L950.75 30.4901C950.21 31.0601 949.81 31.7501 949.59 32.4901L949.58 32.4801ZM1097.36 38.5401C1097.1 38.6001 1096.82 38.6401 1096.54 38.6401H951.85C950.88 38.6401 949.99 38.2401 949.36 37.6001V222.53C949.36 223.92 949.94 225.25 950.96 226.2L967.1 241.16C968.02 242.02 969.24 242.49 970.5 242.49H1076.21C1077.47 242.49 1078.68 242.01 1079.61 241.16L1095.76 226.2C1096.78 225.25 1097.36 223.93 1097.36 222.53V38.5401Z" fill="#FFCC00"/>
</mask>
<g mask="url(#mask9_1306_3422)">
<path d="M953.8 150.17L977.92 108.37L976.91 181.98L1020.91 138.16L1004.38 195.44L1045.37 181.08L1026.05 219.23L1061.51 219.05L1019.52 251.41L931.05 253.08V82.3398L949.35 150.1L953.8 150.16V150.17Z" fill="#FF0000" stroke="white" stroke-width="9"/>
</g>
<path d="M1093.86 33.9298V222.52C1093.86 222.94 1093.69 223.34 1093.38 223.62L1077.23 238.58C1076.95 238.84 1076.59 238.98 1076.21 238.98H970.5C970.12 238.98 969.76 238.84 969.48 238.58L953.34 223.62C953.03 223.34 952.86 222.94 952.86 222.52V33.9298C952.86 33.5398 953.01 33.1698 953.27 32.8998L976.45 8.55984C976.73 8.25984 977.12 8.08984 977.54 8.08984H1069.18C1069.59 8.08984 1069.98 8.25984 1070.27 8.55984L1093.45 32.8998C1093.72 33.1798 1093.86 33.5498 1093.86 33.9298Z" stroke="#FF0000" stroke-width="7"/>
<path d="M107.36 33.9298C107.36 32.6498 107.85 31.4099 108.74 30.4799L131.92 6.13986C132.86 5.14986 134.17 4.58984 135.54 4.58984H227.18C228.55 4.58984 229.86 5.14986 230.8 6.13986L253.98 30.4799C254.87 31.4099 255.36 32.6398 255.36 33.9298V222.52C255.36 223.91 254.78 225.24 253.76 226.19L237.61 241.15C236.68 242.01 235.47 242.48 234.21 242.48H128.5C127.24 242.48 126.03 242 125.1 241.15L108.95 226.19C107.93 225.24 107.35 223.91 107.35 222.52V33.9298H107.36Z" fill="white"/>
<path fill-rule="evenodd" clip-rule="evenodd" d="M107.58 32.4801C108.19 31.9501 108.99 31.6401 109.86 31.6401H254.55C254.64 31.6401 254.73 31.6401 254.82 31.6501C254.6 31.2301 254.33 30.8301 253.99 30.4901L230.81 6.15009C229.87 5.16009 228.56 4.6001 227.19 4.6001H135.55C134.18 4.6001 132.87 5.16009 131.93 6.15009L108.75 30.4901C108.21 31.0601 107.81 31.7501 107.59 32.4901L107.58 32.4801ZM255.36 38.5401C255.1 38.6001 254.82 38.6401 254.54 38.6401H109.85C108.87 38.6401 107.99 38.2401 107.36 37.6001V222.53C107.36 223.92 107.94 225.25 108.96 226.2L125.11 241.16C126.03 242.02 127.25 242.49 128.51 242.49H234.22C235.48 242.49 236.69 242.01 237.62 241.16L253.76 226.2C254.78 225.25 255.36 223.93 255.36 222.53V38.5401Z" fill="#001EFF"/>
<mask id="mask10_1306_3422" style="mask-type:alpha" maskUnits="userSpaceOnUse" x="107" y="4" width="149" height="239">
<path fill-rule="evenodd" clip-rule="evenodd" d="M107.58 32.4801C108.19 31.9501 108.99 31.6401 109.86 31.6401H254.55C254.64 31.6401 254.73 31.6401 254.82 31.6501C254.6 31.2301 254.33 30.8301 253.99 30.4901L230.81 6.15009C229.87 5.16009 228.56 4.6001 227.19 4.6001H135.55C134.18 4.6001 132.87 5.16009 131.93 6.15009L108.75 30.4901C108.21 31.0601 107.81 31.7501 107.59 32.4901L107.58 32.4801ZM255.36 38.5401C255.1 38.6001 254.82 38.6401 254.54 38.6401H109.85C108.87 38.6401 107.99 38.2401 107.36 37.6001V222.53C107.36 223.92 107.94 225.25 108.96 226.2L125.11 241.16C126.03 242.02 127.25 242.49 128.51 242.49H234.22C235.48 242.49 236.69 242.01 237.62 241.16L253.76 226.2C254.78 225.25 255.36 223.93 255.36 222.53V38.5401Z" fill="#001EFF"/>
</mask>
<g mask="url(#mask10_1306_3422)">
<path d="M227.99 99.82L174.96 83.07L219.29 130.44L162.61 121.41L200.23 153.09L154.61 167.33L200.24 178.19L207.34 179.67L201.77 184.31L169.07 211.57L251.86 200.17L291.67 144.46L223.09 56.46L227.99 99.82Z" fill="#FFCC00" stroke="#FF0000" stroke-width="7"/>
</g>
<path d="M251.86 33.9298V222.52C251.86 222.94 251.69 223.34 251.38 223.62L235.23 238.58C234.95 238.84 234.59 238.98 234.21 238.98H128.5C128.12 238.98 127.76 238.84 127.48 238.58L111.33 223.62C111.02 223.34 110.85 222.94 110.85 222.52V33.9298C110.85 33.5398 111 33.1698 111.26 32.8998L134.44 8.55984C134.72 8.25984 135.12 8.08984 135.53 8.08984H227.17C227.58 8.08984 227.97 8.25984 228.26 8.55984L251.44 32.8998C251.71 33.1798 251.85 33.5498 251.85 33.9298H251.86Z" stroke="white" stroke-width="7"/>
<path d="M1325.36 33.9298C1325.36 32.6498 1325.85 31.4099 1326.74 30.4799L1349.92 6.13986C1350.86 5.14986 1352.17 4.58984 1353.54 4.58984H1445.18C1446.55 4.58984 1447.86 5.14986 1448.8 6.13986L1471.98 30.4799C1472.87 31.4099 1473.36 32.6398 1473.36 33.9298V222.52C1473.36 223.91 1472.78 225.24 1471.76 226.19L1455.61 241.15C1454.69 242.01 1453.47 242.48 1452.21 242.48H1346.51C1345.25 242.48 1344.03 242 1343.11 241.15L1326.96 226.19C1325.94 225.24 1325.36 223.91 1325.36 222.52V33.9298Z" fill="#001EFF"/>
<path fill-rule="evenodd" clip-rule="evenodd" d="M1325.58 32.4801C1326.19 31.9501 1326.98 31.6401 1327.85 31.6401H1472.54C1472.63 31.6401 1472.72 31.6401 1472.81 31.6501C1472.59 31.2301 1472.31 30.8301 1471.98 30.4901L1448.8 6.15009C1447.86 5.16009 1446.55 4.6001 1445.18 4.6001H1353.54C1352.17 4.6001 1350.86 5.16009 1349.92 6.15009L1326.74 30.4901C1326.2 31.0601 1325.8 31.7501 1325.58 32.4901V32.4801ZM1473.36 38.5401C1473.1 38.6001 1472.82 38.6401 1472.54 38.6401H1327.85C1326.88 38.6401 1326 38.2401 1325.36 37.6001V222.53C1325.36 223.92 1325.94 225.25 1326.96 226.2L1343.11 241.16C1344.03 242.02 1345.25 242.49 1346.51 242.49H1452.21C1453.47 242.49 1454.69 242.01 1455.61 241.16L1471.76 226.2C1472.78 225.25 1473.36 223.93 1473.36 222.53V38.5401Z" fill="#FFCC00"/>
<mask id="mask11_1306_3422" style="mask-type:alpha" maskUnits="userSpaceOnUse" x="1325" y="4" width="149" height="239">
<path fill-rule="evenodd" clip-rule="evenodd" d="M1325.58 32.4801C1326.19 31.9501 1326.98 31.6401 1327.85 31.6401H1472.54C1472.63 31.6401 1472.72 31.6401 1472.81 31.6501C1472.59 31.2301 1472.31 30.8301 1471.98 30.4901L1448.8 6.15009C1447.86 5.16009 1446.55 4.6001 1445.18 4.6001H1353.54C1352.17 4.6001 1350.86 5.16009 1349.92 6.15009L1326.74 30.4901C1326.2 31.0601 1325.8 31.7501 1325.58 32.4901V32.4801ZM1473.36 38.5401C1473.1 38.6001 1472.82 38.6401 1472.54 38.6401H1327.85C1326.88 38.6401 1326 38.2401 1325.36 37.6001V222.53C1325.36 223.92 1325.94 225.25 1326.96 226.2L1343.11 241.16C1344.03 242.02 1345.25 242.49 1346.51 242.49H1452.21C1453.47 242.49 1454.69 242.01 1455.61 241.16L1471.76 226.2C1472.78 225.25 1473.36 223.93 1473.36 222.53V38.5401Z" fill="#FFCC00"/>
</mask>
<g mask="url(#mask11_1306_3422)">
<path d="M1444 61.8302L1386.5 35H1328.86V121.74L1360.45 184.97L1373.57 128.79L1422.04 183.3L1407.43 114.82L1406.4 110.01L1411.29 110.63L1443 114.63L1408.18 73.5902L1404.26 68.9702L1410.23 67.9002L1444 61.8302Z" fill="#FF0000"/>
<path d="M1386.5 35L1444 61.8302L1410.23 67.9002L1404.26 68.9702L1408.18 73.5902L1443 114.63L1411.29 110.63L1406.4 110.01L1407.43 114.82L1422.04 183.3L1373.57 128.79L1360.45 184.97L1328.86 121.74V128.79V35H1386.5Z" stroke="white" stroke-width="6"/>
</g>
<path d="M1469.86 33.9298V222.52C1469.86 222.94 1469.68 223.34 1469.38 223.62L1453.23 238.58C1452.96 238.84 1452.59 238.98 1452.21 238.98H1346.51C1346.13 238.98 1345.76 238.84 1345.49 238.58L1329.34 223.62C1329.03 223.34 1328.86 222.94 1328.86 222.52V33.9298C1328.86 33.5398 1329.01 33.1698 1329.27 32.8998L1352.45 8.55984C1352.74 8.25984 1353.13 8.08984 1353.54 8.08984H1445.18C1445.59 8.08984 1445.98 8.25984 1446.27 8.55984L1469.45 32.8998C1469.71 33.1798 1469.86 33.5498 1469.86 33.9298Z" stroke="#001EFF" stroke-width="7"/>
<path d="M2320.36 33.9298C2320.36 32.6498 2320.85 31.4099 2321.74 30.4799L2344.92 6.13986C2345.86 5.14986 2347.17 4.58984 2348.54 4.58984H2440.18C2441.55 4.58984 2442.86 5.14986 2443.8 6.13986L2466.98 30.4799C2467.87 31.4099 2468.36 32.6398 2468.36 33.9298V222.52C2468.36 223.91 2467.78 225.24 2466.76 226.19L2450.61 241.15C2449.69 242.01 2448.47 242.48 2447.21 242.48H2341.51C2340.25 242.48 2339.03 242 2338.11 241.15L2321.96 226.19C2320.94 225.24 2320.36 223.91 2320.36 222.52V33.9298Z" fill="#001EFF"/>
<path fill-rule="evenodd" clip-rule="evenodd" d="M2320.58 32.4801C2321.19 31.9501 2321.98 31.6401 2322.85 31.6401H2467.54C2467.63 31.6401 2467.72 31.6401 2467.81 31.6501C2467.59 31.2301 2467.31 30.8301 2466.98 30.4901L2443.8 6.15009C2442.86 5.16009 2441.55 4.6001 2440.18 4.6001H2348.54C2347.17 4.6001 2345.86 5.16009 2344.92 6.15009L2321.74 30.4901C2321.2 31.0601 2320.8 31.7501 2320.58 32.4901V32.4801ZM2468.36 38.5401C2468.1 38.6001 2467.82 38.6401 2467.54 38.6401H2322.85C2321.88 38.6401 2321 38.2401 2320.36 37.6001V222.53C2320.36 223.92 2320.94 225.25 2321.96 226.2L2338.11 241.16C2339.03 242.02 2340.25 242.49 2341.51 242.49H2447.21C2448.47 242.49 2449.69 242.01 2450.61 241.16L2466.76 226.2C2467.78 225.25 2468.36 223.93 2468.36 222.53V38.5401Z" fill="#FFCC00"/>
<mask id="mask12_1306_3422" style="mask-type:alpha" maskUnits="userSpaceOnUse" x="2320" y="4" width="149" height="239">
<path fill-rule="evenodd" clip-rule="evenodd" d="M2320.58 32.4801C2321.19 31.9501 2321.98 31.6401 2322.85 31.6401H2467.54C2467.63 31.6401 2467.72 31.6401 2467.81 31.6501C2467.59 31.2301 2467.31 30.8301 2466.98 30.4901L2443.8 6.15009C2442.86 5.16009 2441.55 4.6001 2440.18 4.6001H2348.54C2347.17 4.6001 2345.86 5.16009 2344.92 6.15009L2321.74 30.4901C2321.2 31.0601 2320.8 31.7501 2320.58 32.4901V32.4801ZM2468.36 38.5401C2468.1 38.6001 2467.82 38.6401 2467.54 38.6401H2322.85C2321.88 38.6401 2321 38.2401 2320.36 37.6001V222.53C2320.36 223.92 2320.94 225.25 2321.96 226.2L2338.11 241.16C2339.03 242.02 2340.25 242.49 2341.51 242.49H2447.21C2448.47 242.49 2449.69 242.01 2450.61 241.16L2466.76 226.2C2467.78 225.25 2468.36 223.93 2468.36 222.53V38.5401Z" fill="#FFCC00"/>
</mask>
<g mask="url(#mask12_1306_3422)">
<path d="M2439 63.8302L2381.26 35.4702H2324V184L2341.47 125.03L2357.6 175.85L2370.64 111.98L2407.57 162.86L2401.4 112.01L2438 116.63L2399.26 70.9702L2439 63.8302Z" fill="#FFAB00" stroke="white" stroke-width="6"/>
</g>
<path d="M2464.86 33.9298V222.52C2464.86 222.94 2464.68 223.34 2464.38 223.62L2448.23 238.58C2447.96 238.84 2447.59 238.98 2447.21 238.98H2341.51C2341.13 238.98 2340.76 238.84 2340.49 238.58L2324.34 223.62C2324.03 223.34 2323.86 222.94 2323.86 222.52V33.9298C2323.86 33.5398 2324.01 33.1698 2324.27 32.8998L2347.45 8.55984C2347.74 8.25984 2348.13 8.08984 2348.54 8.08984H2440.18C2440.59 8.08984 2440.98 8.25984 2441.27 8.55984L2464.45 32.8998C2464.71 33.1798 2464.86 33.5498 2464.86 33.9298Z" stroke="#001EFF" stroke-width="7"/>
</g>
<defs>
<clipPath id="clip0_1306_3422">
<rect width="2823" height="267" fill="white"/>
</clipPath>
</defs>
</svg>
