<svg width="422" height="254" viewBox="0 0 422 254" fill="none" xmlns="http://www.w3.org/2000/svg">
<path d="M6.01538 129.169L27.4783 46.0938C48.4008 47.4863 60.876 49.8041 68.5261 51.854C72.3512 52.8789 74.9221 53.9094 76.4304 54.6552L78.6256 55.8128C81.1812 57.7503 83.3327 59.9211 85.1863 62.3537C88.3204 66.3822 91.056 71.8981 89.4617 77.8482C88.7603 80.4657 87.2375 83.1133 84.5666 85.7856C82.1418 88.2118 78.7707 90.6583 74.2091 93.121C85.1372 103.338 87.011 112.495 85.0466 119.826C83.7321 124.732 80.7401 128.821 77.457 132.107C76.2604 133.304 75.0252 134.395 73.8184 135.38C71.1941 137.524 68.2795 139.476 65.2378 141.052C63.5719 141.745 61.2969 142.16 58.4413 142.192C53.5023 142.349 45.298 141.517 32.8666 138.186C25.5352 136.222 16.7239 133.405 6.01538 129.169ZM57.1494 83.0637C58.0339 82.1798 58.7774 81.1709 59.3801 80.0371L59.6079 79.1871C59.978 77.8059 60.3217 74.8232 56.3904 73.7698C55.0091 73.3997 52.9827 73.3122 50.2827 73.6137L46.9745 84.6847C47.6898 84.9902 47.9023 85.0472 48.6461 85.2465C52.3649 86.2429 54.9455 85.1123 56.7614 83.4352C56.8936 83.3139 57.023 83.1901 57.1494 83.0637ZM55.1204 114.228C55.9134 113.435 56.5342 112.529 56.9829 111.509C57.1898 110.312 57.2905 109.086 57.0155 107.988C56.5925 106.166 55.2417 103.982 51.7354 103.042C49.2916 102.388 45.7701 102.355 40.8728 103.207L39.2647 114.733C40.5113 115.181 41.4675 115.437 42.6363 115.75C48.9052 117.43 52.2295 116.499 54.3642 114.907C54.6316 114.691 54.8837 114.464 55.1204 114.228Z" fill="#FFAB00"/>
<path d="M162.1 148.595C158.557 152.139 154.406 155.416 149.598 158.304C140.303 163.671 126.186 165.355 113.648 161.995C100.048 158.351 88.3038 149.055 85.461 132.464C84.3081 124.867 84.6426 117.668 86.4363 110.974C88.7587 102.306 93.3785 94.725 99.5271 88.5736C110.488 77.6074 126.308 71.1854 142.631 71.2548C146.365 71.3443 149.744 71.9082 153.038 72.7907C167.382 76.6342 175.815 87.6626 177.782 96.0474C179.565 104.269 179.596 113.502 177.119 122.746C174.696 131.791 169.858 140.833 162.1 148.595ZM147.489 109.226C146.609 104.435 143.374 101.632 139.018 100.465C133.081 98.8743 124.839 100.999 118.795 107.04C115.753 110.081 113.268 114.115 111.914 119.167C109.095 129.686 113.163 135.331 119.538 137.039C125.276 138.577 132.619 136.672 137.442 132.271C138.129 131.653 138.773 131.043 139.377 130.439C143.917 125.901 146.179 121.765 147.209 117.92C148.092 114.626 148.088 111.664 147.489 109.226Z" fill="#FFAB00"/>
<path d="M245.653 170.983C242.11 174.527 237.959 177.804 233.151 180.692C223.856 186.059 209.739 187.743 197.201 184.383C183.601 180.739 171.857 171.443 169.014 154.852C167.861 147.254 168.196 140.056 169.989 133.362C172.312 124.694 176.931 117.113 183.08 110.962C194.041 99.9953 209.861 93.5733 226.184 93.6428C229.918 93.7323 233.297 94.2961 236.591 95.1787C250.935 99.0221 259.368 110.051 261.335 118.435C263.118 126.657 263.149 135.89 260.672 145.134C258.249 154.179 253.411 163.221 245.653 170.983ZM231.042 131.614C230.162 126.823 226.927 124.02 222.571 122.853C216.634 121.262 208.392 123.387 202.348 129.428C199.306 132.469 196.82 136.503 195.467 141.555C192.648 152.074 196.716 157.719 203.091 159.427C208.828 160.965 216.172 159.06 220.995 154.659C221.682 154.041 222.326 153.431 222.93 152.827C227.47 148.289 229.732 144.153 230.762 140.308C231.645 137.014 231.641 134.052 231.042 131.614Z" fill="#FFAB00"/>
<path d="M242.539 178.539L290.546 106.903L307.886 146.738L339.802 127.503L346.723 206.227L315.536 220.191L313.101 182.527C313.101 182.527 309.192 186.471 304.729 190.974C303.255 192.461 301.721 194.009 300.247 195.496C295.784 199.999 291.875 203.943 291.875 203.943L281.73 172.527L262.891 201.188L242.539 178.539Z" fill="#FFAB00"/>
<path d="M351.07 223.677C345.031 219.439 342.042 213.172 343.294 208.497C343.679 207.062 344.369 205.886 345.292 204.962C347.858 202.395 352.225 201.779 356.835 203.014C366.61 205.634 372.671 214.888 370.991 221.157C370.629 222.51 369.965 223.637 369.069 224.534C366.519 227.084 362.091 227.768 357.373 226.504C355.355 225.963 353.209 225.047 351.07 223.677ZM401.571 140.182L375.19 206.338C372.048 202.763 367.375 199.803 361.531 198.237C357.812 197.241 354.184 197.18 351.002 197.58L373.477 133.679L401.571 140.182Z" fill="#FFAB00"/>
<path d="M408.642 133.111L380.548 126.608L373.477 133.679L401.571 140.182L408.642 133.111Z" fill="#FFAB00"/>
<path d="M382.261 199.267L408.642 133.111L401.571 140.182L375.19 206.338L382.261 199.267Z" fill="#FFAB00"/>
<path d="M380.548 126.608L358.074 190.508L351.002 197.58L373.477 133.679L380.548 126.608Z" fill="#FFAB00"/>
<path d="M346.873 120.432L314.957 139.667L307.886 146.738L339.802 127.503L346.873 120.432Z" fill="#FFAB00"/>
<path d="M353.794 199.155L346.873 120.432L339.802 127.503L346.723 206.226L353.794 199.155Z" fill="#FFAB00"/>
<path d="M314.957 139.667L297.617 99.8315L290.546 106.903L307.886 146.738L314.957 139.667Z" fill="#FFAB00"/>
<path d="M368.602 191.166C374.446 192.732 379.119 195.692 382.261 199.267L375.19 206.338C372.048 202.763 367.375 199.803 361.531 198.237L368.602 191.166Z" fill="#FFAB00"/>
<path d="M358.074 190.509C361.255 190.108 364.883 190.17 368.602 191.166L361.531 198.237C357.812 197.241 354.184 197.18 351.002 197.58L358.074 190.509Z" fill="#FFAB00"/>
<path d="M378.063 214.085C379.742 207.816 373.681 198.562 363.906 195.943L356.835 203.014C366.61 205.633 372.671 214.887 370.992 221.156L378.063 214.085Z" fill="#FFAB00"/>
<path d="M376.14 217.463C377.036 216.566 377.7 215.439 378.063 214.085L370.991 221.157C370.629 222.51 369.965 223.637 369.069 224.534L376.14 217.463Z" fill="#FFAB00"/>
<path d="M363.906 195.943C359.296 194.708 354.929 195.324 352.364 197.891L345.295 204.959C347.861 202.394 352.226 201.779 356.835 203.014L363.906 195.943Z" fill="#FFAB00"/>
<path d="M268.406 111.364C266.439 102.979 258.006 91.9509 243.662 88.1074L236.591 95.1785C250.935 99.022 259.368 110.05 261.335 118.435L268.406 111.364Z" fill="#FFAB00"/>
<path d="M364.444 219.433C369.16 220.697 373.588 220.013 376.138 217.465L369.069 224.533C366.519 227.084 362.091 227.768 357.373 226.504L364.444 219.433Z" fill="#FFAB00"/>
<path d="M352.363 197.891C351.44 198.815 350.75 199.991 350.365 201.425L343.294 208.497C343.678 207.062 344.369 205.886 345.292 204.962L352.363 197.891Z" fill="#FFAB00"/>
<path d="M243.662 88.1072C240.368 87.2246 236.989 86.6608 233.255 86.5713L226.184 93.6424C229.918 93.7319 233.297 94.2957 236.591 95.1782L243.662 88.1072Z" fill="#FFAB00"/>
<path d="M350.365 201.425C349.113 206.1 352.102 212.368 358.142 216.605L351.07 223.676C345.031 219.439 342.042 213.171 343.294 208.496L350.365 201.425Z" fill="#FFAB00"/>
<path d="M267.743 138.062C270.22 128.819 270.189 119.586 268.406 111.364L261.335 118.435C263.118 126.657 263.149 135.89 260.672 145.134L267.743 138.062Z" fill="#FFAB00"/>
<path d="M358.142 216.605C360.28 217.976 362.426 218.892 364.445 219.433L357.373 226.504C355.355 225.963 353.209 225.047 351.071 223.677L358.142 216.605Z" fill="#FFAB00"/>
<path d="M297.617 99.8315L249.61 171.467L242.539 178.539L290.546 106.903L297.617 99.8315Z" fill="#FFAB00"/>
<path d="M311.8 183.903L320.172 175.456L313.101 182.527L304.729 190.974L311.8 183.903Z" fill="#FFAB00"/>
<path d="M322.607 213.119L353.794 199.155L346.723 206.226L315.536 220.19L322.607 213.119Z" fill="#FFAB00"/>
<path d="M320.172 175.456L322.607 213.12L315.536 220.191L313.101 182.527L320.172 175.456Z" fill="#FFAB00"/>
<path d="M307.318 188.425L311.8 183.903L304.729 190.974L300.247 195.496L307.318 188.425Z" fill="#FFAB00"/>
<path d="M233.255 86.5714C216.932 86.5019 201.112 92.9239 190.151 103.89L183.098 110.943C194.059 99.9879 209.87 93.573 226.184 93.6424L233.255 86.5714Z" fill="#FFAB00"/>
<path d="M229.642 115.782C233.998 116.949 237.233 119.752 238.113 124.543L231.042 131.614C230.162 126.823 226.927 124.02 222.571 122.853L229.642 115.782Z" fill="#FFAB00"/>
<path d="M288.802 165.456L298.946 196.872L291.875 203.943L281.73 172.527L288.802 165.456Z" fill="#FFAB00"/>
<path d="M298.946 196.872L307.318 188.425L300.247 195.496L291.875 203.943L298.946 196.872Z" fill="#FFAB00"/>
<path d="M252.724 163.911C260.482 156.149 265.32 147.107 267.743 138.062L260.672 145.133C258.249 154.178 253.411 163.221 245.653 170.982L252.724 163.911Z" fill="#FFAB00"/>
<path d="M238.113 124.542C238.712 126.981 238.716 129.943 237.833 133.236L230.762 140.307C231.645 137.014 231.641 134.052 231.042 131.614L238.113 124.542Z" fill="#FFAB00"/>
<path d="M209.419 122.357C215.463 116.316 223.705 114.191 229.642 115.782L222.571 122.853C216.634 121.262 208.392 123.387 202.348 129.428L209.419 122.357Z" fill="#FFAB00"/>
<path d="M269.962 194.117L288.802 165.456L281.73 172.527L262.891 201.188L269.962 194.117Z" fill="#FFAB00"/>
<path d="M184.853 88.9759C182.886 80.5911 174.453 69.5627 160.109 65.7192L153.038 72.7903C167.382 76.6338 175.815 87.6622 177.782 96.0469L184.853 88.9759Z" fill="#FFAB00"/>
<path d="M237.833 133.236C236.803 137.081 234.541 141.218 230.001 145.756L222.949 152.808C227.477 148.277 229.734 144.147 230.762 140.307L237.833 133.236Z" fill="#FFAB00"/>
<path d="M160.109 65.7195C156.815 64.8369 153.436 64.2731 149.702 64.1836L142.631 71.2547C146.365 71.3442 149.744 71.908 153.038 72.7906L160.109 65.7195Z" fill="#FFAB00"/>
<path d="M230.001 145.756C229.397 146.359 228.753 146.97 228.066 147.588L220.995 154.659C221.682 154.041 222.326 153.43 222.93 152.827L230.001 145.756Z" fill="#FFAB00"/>
<path d="M184.191 115.674C186.668 106.43 186.636 97.1977 184.853 88.9761L177.782 96.0471C179.565 104.269 179.597 113.501 177.12 122.745L184.191 115.674Z" fill="#FFAB00"/>
<path d="M240.222 173.621C245.021 170.738 249.165 167.468 252.703 163.932L245.653 170.982C242.11 174.526 237.959 177.803 233.151 180.692L240.222 173.621Z" fill="#FFAB00"/>
<path d="M202.538 134.484C203.89 129.436 206.373 125.405 209.412 122.364L202.348 129.428C199.306 132.469 196.82 136.503 195.467 141.555L202.538 134.484Z" fill="#FFAB00"/>
<path d="M249.61 171.467L269.962 194.116L262.891 201.187L242.539 178.538L249.61 171.467Z" fill="#FFAB00"/>
<path d="M228.066 147.587C223.243 151.989 215.899 153.893 210.162 152.356L203.091 159.427C208.828 160.964 216.172 159.06 220.995 154.658L228.066 147.587Z" fill="#FFAB00"/>
<path d="M190.151 103.89C184.003 110.042 179.383 117.623 177.06 126.29L169.989 133.362C172.312 124.694 176.932 117.113 183.08 110.961L190.151 103.89Z" fill="#FFAB00"/>
<path d="M210.162 152.356C203.787 150.648 199.719 145.003 202.538 134.484L195.467 141.555C192.648 152.074 196.716 157.719 203.091 159.427L210.162 152.356Z" fill="#FFAB00"/>
<path d="M149.702 64.1837C133.379 64.1142 117.559 70.5362 106.598 81.5024L99.5453 88.5554C110.506 77.6002 126.317 71.1853 142.631 71.2547L149.702 64.1837Z" fill="#FFAB00"/>
<path d="M146.089 93.3936C150.445 94.5608 153.68 97.3636 154.56 102.155L147.489 109.226C146.609 104.435 143.374 101.632 139.018 100.465L146.089 93.3936Z" fill="#FFAB00"/>
<path d="M169.171 141.523C176.929 133.762 181.767 124.719 184.191 115.674L177.12 122.745C174.696 131.791 169.858 140.833 162.1 148.595L169.171 141.523Z" fill="#FFAB00"/>
<path d="M154.56 102.155C155.159 104.593 155.163 107.555 154.28 110.849L147.209 117.92C148.092 114.626 148.088 111.664 147.489 109.226L154.56 102.155Z" fill="#FFAB00"/>
<path d="M204.272 177.312C216.81 180.672 230.927 178.988 240.223 173.621L233.151 180.692C223.856 186.059 209.739 187.743 197.201 184.383L204.272 177.312Z" fill="#FFAB00"/>
<path d="M177.06 126.291C175.267 132.984 174.932 140.183 176.085 147.78L169.014 154.851C167.861 147.254 168.196 140.055 169.989 133.362L177.06 126.291Z" fill="#FFAB00"/>
<path d="M125.866 99.9687C131.91 93.9275 140.152 91.8029 146.089 93.3936L139.018 100.465C133.081 98.874 124.839 100.999 118.795 107.04L125.866 99.9687Z" fill="#FFAB00"/>
<path d="M92.2574 55.2826C90.4039 52.85 88.2524 50.6792 85.6968 48.7417L78.6257 55.8128C81.1814 57.7502 83.3328 59.921 85.1864 62.3537L92.2574 55.2826Z" fill="#FFAB00"/>
<path d="M85.6968 48.7416L83.5016 47.584L76.4305 54.6551L78.6257 55.8127L85.6968 48.7416Z" fill="#FFAB00"/>
<path d="M83.5016 47.584C81.9933 46.8381 79.4224 45.8076 75.5973 44.7827L68.5262 51.8538C72.3513 52.8787 74.9222 53.9092 76.4306 54.655L83.5016 47.584Z" fill="#FFAB00"/>
<path d="M154.28 110.849C153.25 114.694 150.989 118.83 146.448 123.368L139.396 130.42C143.924 125.889 146.181 121.759 147.209 117.92L154.28 110.849Z" fill="#FFAB00"/>
<path d="M96.5329 70.7768C98.1272 64.8266 95.3916 59.3107 92.2575 55.2822L85.1864 62.3533C88.3206 66.3817 91.0561 71.8977 89.4618 77.8478L96.5329 70.7768Z" fill="#FFAB00"/>
<path d="M176.085 147.78C178.928 164.371 190.672 173.668 204.272 177.312L197.201 184.383C183.601 180.739 171.857 171.442 169.014 154.851L176.085 147.78Z" fill="#FFAB00"/>
<path d="M146.448 123.368C145.844 123.972 145.2 124.582 144.513 125.2L137.442 132.271C138.129 131.653 138.773 131.043 139.377 130.439L146.448 123.368Z" fill="#FFAB00"/>
<path d="M91.6378 78.7143C94.3087 76.042 95.8315 73.3943 96.5329 70.7769L89.4618 77.8479C88.7605 80.4654 87.2376 83.113 84.5668 85.7853L91.6378 78.7143Z" fill="#FFAB00"/>
<path d="M156.669 151.233C161.468 148.35 165.612 145.08 169.15 141.544L162.1 148.595C158.557 152.139 154.406 155.416 149.598 158.304L156.669 151.233Z" fill="#FFAB00"/>
<path d="M118.985 112.096C120.338 107.048 122.82 103.017 125.859 99.9761L118.795 107.04C115.753 110.081 113.268 114.115 111.914 119.167L118.985 112.096Z" fill="#FFAB00"/>
<path d="M75.5972 44.7827C67.947 42.7328 55.4718 40.4151 34.5493 39.0225L27.4783 46.0935C48.4008 47.4861 60.876 49.8039 68.5261 51.8538L75.5972 44.7827Z" fill="#FFAB00"/>
<path d="M144.513 125.2C139.69 129.601 132.347 131.506 126.609 129.968L119.538 137.039C125.276 138.577 132.619 136.672 137.442 132.271L144.513 125.2Z" fill="#FFAB00"/>
<path d="M106.598 81.5024C100.45 87.6539 95.8299 95.2353 93.5075 103.903L86.4364 110.974C88.7589 102.306 93.3787 94.725 99.5272 88.5735L106.598 81.5024Z" fill="#FFAB00"/>
<path d="M81.2802 86.0497C85.8353 83.5905 89.2033 81.1475 91.6273 78.7247L84.5667 85.7854C82.1418 88.2116 78.7707 90.6581 74.2091 93.1208L81.2802 86.0497Z" fill="#FFAB00"/>
<path d="M126.609 129.968C120.234 128.26 116.166 122.615 118.985 112.096L111.914 119.167C109.095 129.686 113.163 135.331 119.538 137.039L126.609 129.968Z" fill="#FFAB00"/>
<path d="M63.4614 66.6987C67.3928 67.7521 67.0491 70.7348 66.679 72.1161L59.6079 79.1871C59.978 77.8059 60.3217 74.8232 56.3904 73.7698L63.4614 66.6987Z" fill="#FFAB00"/>
<path d="M66.679 72.1157L66.4512 72.9657L59.3801 80.0368L59.6079 79.1868L66.679 72.1157Z" fill="#FFAB00"/>
<path d="M57.3538 66.5423C60.0538 66.2409 62.0802 66.3283 63.4615 66.6984L56.3904 73.7695C55.0092 73.3994 52.9827 73.312 50.2827 73.6134L57.3538 66.5423Z" fill="#FFAB00"/>
<path d="M66.4512 72.9658C65.8485 74.0996 65.1049 75.1084 64.2205 75.9924L57.1545 83.0583C58.0367 82.1756 58.7786 81.1685 59.3801 80.0369L66.4512 72.9658Z" fill="#FFAB00"/>
<path d="M64.2205 75.9922C64.0941 76.1186 63.9648 76.2424 63.8325 76.3637L56.7615 83.4347C56.8937 83.3135 57.023 83.1896 57.1495 83.0633L64.2205 75.9922Z" fill="#FFAB00"/>
<path d="M92.1177 112.755C94.0822 105.423 92.2083 96.2663 81.2802 86.0498L74.2091 93.1209C85.1372 103.337 87.0111 112.494 85.0466 119.826L92.1177 112.755Z" fill="#FFAB00"/>
<path d="M120.719 154.924C133.257 158.284 147.374 156.6 156.67 151.233L149.599 158.304C140.303 163.671 126.186 165.355 113.648 161.995L120.719 154.924Z" fill="#FFAB00"/>
<path d="M54.0457 77.6135L57.3538 66.5425L50.2827 73.6135L46.9746 84.6846L54.0457 77.6135Z" fill="#FFAB00"/>
<path d="M63.8324 76.3638C62.0164 78.0409 59.4359 79.1715 55.7171 78.1751L48.646 85.2462C52.3648 86.2426 54.9454 85.112 56.7613 83.4348L63.8324 76.3638Z" fill="#FFAB00"/>
<path d="M93.5074 103.903C91.7138 110.597 91.3792 117.795 92.5322 125.393L85.4611 132.464C84.3081 124.866 84.6427 117.668 86.4363 110.974L93.5074 103.903Z" fill="#FFAB00"/>
<path d="M55.7172 78.1751C54.9735 77.9758 54.761 77.9188 54.0457 77.6133L46.9746 84.6843C47.6899 84.9899 47.9024 85.0468 48.6462 85.2461L55.7172 78.1751Z" fill="#FFAB00"/>
<path d="M84.5282 125.035C87.8113 121.75 90.8033 117.66 92.1178 112.754L85.0467 119.825C83.7322 124.731 80.7403 128.821 77.4572 132.106L84.5282 125.035Z" fill="#FFAB00"/>
<path d="M92.5322 125.393C95.375 141.984 107.119 151.28 120.719 154.924L113.648 161.995C100.048 158.351 88.304 149.055 85.4612 132.464L92.5322 125.393Z" fill="#FFAB00"/>
<path d="M58.8064 95.9712C62.3127 96.9107 63.6635 99.0947 64.0865 100.916L57.0154 107.987C56.5924 106.166 55.2417 103.982 51.7354 103.042L58.8064 95.9712Z" fill="#FFAB00"/>
<path d="M64.0865 100.916C64.3616 102.015 64.2609 103.24 64.054 104.438L56.9829 111.509C57.1898 110.311 57.2905 109.086 57.0155 107.987L64.0865 100.916Z" fill="#FFAB00"/>
<path d="M64.0539 104.438C63.6052 105.458 62.9844 106.364 62.1914 107.157L55.124 114.224C55.9153 113.432 56.5349 112.527 56.9828 111.509L64.0539 104.438Z" fill="#FFAB00"/>
<path d="M47.9439 96.1353C52.8411 95.2838 56.3627 95.3164 58.8065 95.9712L51.7354 103.042C49.2916 102.387 45.7701 102.355 40.8728 103.206L47.9439 96.1353Z" fill="#FFAB00"/>
<path d="M80.8895 128.309C82.0885 127.33 83.3155 126.247 84.5047 125.059L77.4571 132.107C76.2606 133.304 75.0253 134.395 73.8185 135.38L80.8895 128.309Z" fill="#FFAB00"/>
<path d="M62.1916 107.156C61.9548 107.393 61.7027 107.619 61.4353 107.836L54.3643 114.907C54.6317 114.69 54.8838 114.464 55.1205 114.227L62.1916 107.156Z" fill="#FFAB00"/>
<path d="M61.4352 107.836C59.3005 109.428 55.9762 110.359 49.7073 108.679L42.6362 115.75C48.9051 117.43 52.2294 116.499 54.3641 114.907L61.4352 107.836Z" fill="#FFAB00"/>
<path d="M72.309 133.981C75.3506 132.405 78.2652 130.452 80.8895 128.309L73.8184 135.38C71.1942 137.523 68.2796 139.476 65.2379 141.052L72.309 133.981Z" fill="#FFAB00"/>
<path d="M46.3357 107.662L47.9438 96.1353L40.8727 103.206L39.2646 114.733L46.3357 107.662Z" fill="#FFAB00"/>
<path d="M34.5494 39.0225L13.0864 122.098L6.01538 129.169L27.4783 46.0935L34.5494 39.0225Z" fill="#FFAB00"/>
<path d="M49.7071 108.679C48.5384 108.366 47.5822 108.109 46.3357 107.662L39.2646 114.733C40.5111 115.181 41.4673 115.437 42.636 115.75L42.6362 115.75L49.7073 108.679L49.7071 108.679Z" fill="#FFAB00"/>
<path d="M65.5122 135.121C68.3678 135.089 70.6428 134.673 72.3088 133.981L65.2377 141.052C63.5718 141.744 61.2967 142.16 58.4412 142.192L65.5122 135.121Z" fill="#FFAB00"/>
<path d="M39.9375 131.115C52.369 134.446 60.5733 135.278 65.5122 135.121L58.4411 142.192C53.5022 142.349 45.2979 141.517 32.8665 138.186L39.9375 131.115Z" fill="#FFAB00"/>
<path d="M13.0864 122.098C23.795 126.334 32.6063 129.151 39.9377 131.115L32.8666 138.186C25.5352 136.222 16.7239 133.405 6.01538 129.169L13.0864 122.098Z" fill="#FFAB00"/>
<path d="M13.0864 122.098L34.5493 39.0224C55.4718 40.415 67.947 42.7328 75.5971 44.7826C79.4222 45.8076 81.993 46.8381 83.5014 47.5839L85.6966 48.7415C88.2522 50.6789 90.4037 52.8497 92.2572 55.2824C95.3914 59.3108 98.127 64.8268 96.5326 70.7769C95.1945 75.7707 90.8661 80.8744 81.28 86.0496C92.2082 96.2662 94.082 105.423 92.1176 112.755C90.324 119.448 85.4074 124.622 80.8894 128.308C78.2651 130.452 75.3505 132.404 72.3088 133.981C70.6428 134.673 68.3678 135.089 65.5123 135.121C60.5733 135.278 52.369 134.446 39.9376 131.115C32.6062 129.151 23.7949 126.334 13.0864 122.098ZM66.4511 72.9658L66.6789 72.1158C67.049 70.7345 67.3927 67.7518 63.4613 66.6984C62.0801 66.3283 60.0537 66.2409 57.3536 66.5423L54.0455 77.6134C54.7608 77.9189 54.9733 77.9758 55.7171 78.1751C59.4359 79.1716 62.0165 78.041 63.8324 76.3638C64.8893 75.3943 65.7622 74.2617 66.4511 72.9658ZM64.0539 104.438C64.2608 103.24 64.3615 102.015 64.0864 100.916C63.6635 99.0946 62.3127 96.9106 58.8064 95.9711C56.3626 95.3163 52.8411 95.2837 47.9438 96.1352L46.3357 107.662C47.5823 108.11 48.5385 108.366 49.7073 108.679C55.9762 110.359 59.3005 109.427 61.4352 107.836C62.5984 106.895 63.4713 105.762 64.0539 104.438ZM156.669 151.233C147.374 156.6 133.257 158.284 120.719 154.924C107.119 151.28 95.3748 141.984 92.532 125.392C91.3791 117.795 91.7136 110.596 93.5072 103.903C99.97 79.7834 124.222 64.075 149.702 64.1835C153.436 64.273 156.815 64.8368 160.109 65.7194C174.453 69.5628 182.886 80.5912 184.853 88.976C186.636 97.1976 186.667 106.43 184.19 115.674C180.66 128.849 172.007 142.019 156.669 151.233ZM154.56 102.155C153.68 97.3636 150.445 94.5609 146.089 93.3936C137.164 91.0021 123.028 97.0081 118.985 112.096C116.166 122.615 120.234 128.26 126.609 129.968C132.347 131.505 139.69 129.601 144.513 125.2C150.365 119.935 153.113 115.205 154.28 110.848C155.163 107.555 155.159 104.593 154.56 102.155ZM240.222 173.621C230.927 178.988 216.81 180.671 204.272 177.312C190.672 173.668 178.928 164.371 176.085 147.78C174.932 140.183 175.267 132.984 177.06 126.291C183.523 102.171 207.775 86.463 233.255 86.5714C236.989 86.6609 240.368 87.2248 243.662 88.1073C258.006 91.9508 266.439 102.979 268.406 111.364C270.189 119.586 270.22 128.818 267.743 138.062C264.213 151.237 255.56 164.407 240.222 173.621ZM238.113 124.543C237.233 119.752 233.998 116.949 229.642 115.782C220.717 113.39 206.581 119.396 202.538 134.484C199.719 145.003 203.787 150.648 210.162 152.356C215.899 153.893 223.243 151.989 228.066 147.588C233.918 142.323 236.666 137.593 237.833 133.236C238.716 129.943 238.712 126.981 238.113 124.543ZM249.61 171.467L297.617 99.8312L314.957 139.667L346.873 120.432L353.794 199.155L322.607 213.119L320.172 175.456L298.946 196.872L288.801 165.456L269.962 194.116L249.61 171.467ZM358.141 216.605C352.102 212.368 349.113 206.1 350.365 201.425C351.817 196.007 357.637 194.263 363.906 195.943C373.681 198.562 379.742 207.816 378.062 214.085C376.667 219.292 370.819 221.141 364.444 219.433C362.426 218.892 360.28 217.975 358.141 216.605ZM408.642 133.111L382.261 199.267C379.119 195.692 374.446 192.732 368.602 191.166C364.883 190.169 361.255 190.108 358.073 190.508L380.548 126.608L408.642 133.111Z" fill="white"/>
</svg>
