<svg width="113" height="134" viewBox="0 0 113 134" fill="none" xmlns="http://www.w3.org/2000/svg">
<path d="M70.9999 120L112.4 122.6L101.794 133.207L60.3935 130.607L70.9999 120Z" fill="#001EFF"/>
<path d="M73.1999 85.7998L70.9999 120L60.3935 130.607L62.5935 96.4065L73.1999 85.7998Z" fill="#001EFF"/>
<path d="M11.2001 3.4001L15.6001 118.6L4.99351 129.207L0.593506 14.0065L11.2001 3.4001Z" fill="#001EFF"/>
<path d="M15.6001 118.6L73.1999 85.7998L62.5935 96.4065L4.99351 129.207L15.6001 118.6Z" fill="#001EFF"/>
<path d="M112.4 2.7998L112.4 122.6L70.9999 120L73.1999 85.7998L15.6001 118.6L11.2001 3.4001L54.2001 0.600098L55.4001 48.3998L112.4 2.7998Z" fill="#FF0000"/>
</svg>
