<svg width="506" height="500" viewBox="0 0 506 500" fill="none" xmlns="http://www.w3.org/2000/svg">
<path d="M188.12 0L191.88 129L91.37 87.08L141.63 174.15L27.95 178.45L118.25 235.42L17.74 273.04L122.01 293.47L0 396.66L178.44 340.77L157.48 486.42L250.81 374.09L302.06 499.86L322.49 383.76L418.7 463.85L371.4 332.17L474.59 340.23L398.81 265.52L505.77 213.38L388.12 194.06L468.14 95.14L332.67 147.83L342.91 30.1L265.92 125.11L188.12 0Z" fill="#FF0000"/>
<path d="M211.26 89.8701L208.32 170.2L151.45 142.05L184.29 195.99L112.17 200.68L167.87 238.79L109.24 269.28L167.87 280.42L97.5103 343.15L204.22 302.7L194.84 389.47L251.12 316.18L289.82 409.99L296.27 327.91L355.49 384.78L325 298.01L388.9 299.18L345.52 262.61L408.25 221.79L341.41 211.82L385.97 149.09L300.37 185.44L308 109.22L257.57 168.44L211.26 89.8701Z" fill="#FFCC00"/>
</svg>
