<svg width="414" height="371" viewBox="0 0 414 371" fill="none" xmlns="http://www.w3.org/2000/svg">
<path d="M195.108 33.9775C268.922 29.5738 349.729 57.7386 375.49 132.533C407.242 224.73 326.831 294.778 242.965 306.365C145.729 319.797 12.3684 259.691 34.5306 141.574C47.6085 71.8887 131.346 37.7776 195.116 33.9775H195.108Z" fill="#FFCC00"/>
<path d="M383.343 288.532C375.052 287.862 366.616 290.187 362.959 298.283C360.252 304.282 362.119 309.629 361.016 315.858L349.534 323.079C333.376 312.404 313.765 326.041 320.672 344.668L307.51 349.556C295.231 336.852 274.711 343.548 274.847 361.657L259.233 364.975C249.686 347.918 226.501 351.338 223.489 371.001L207 370.958C203.962 353.697 180.303 349.819 172.996 365.892L155.209 363.338C154.148 352.102 134.766 342.007 125.007 355.585L110.224 352.314C111.523 336.717 95 326.287 81.7701 335.248L66.9363 325.158C73.9288 307.414 57.1347 291.587 40.1964 301.194L31.4726 291.468C40.1964 277.195 24.958 256.598 10.883 253.891L4.92826 242.523C11.9657 232.779 15.5504 225.666 10.883 217.621C8.8294 214.091 0.0561523 207.574 0.0561523 207.574C11.4244 198.913 23.7502 163.641 26.4233 150.148C56.8971 -3.6971 336.414 -16.5027 383.037 133.371C385.065 139.88 388.477 151.294 389.173 157.786C390.946 174.359 400.51 199.677 413.112 214.291C413.112 214.291 397.403 223.576 406.748 240.598L402.207 249.932C396.564 249.508 384.411 262.012 391.812 277.008L383.334 288.515L383.343 288.532ZM196.605 34.3294C133.468 38.1227 55.8452 75.1177 35.4784 142.583C13.5332 260.481 147.53 318.925 243.814 305.517C326.859 293.95 406.663 224.742 375.213 132.709C349.703 58.0482 269.696 29.925 196.596 34.3294H196.605ZM339.35 307.329L327.453 281.03L295.307 298.571L308.376 330.233C312.016 326.805 313.459 322.163 316.947 318.454C322.098 312.989 331.619 307.066 339.35 307.329Z" fill="#001EFF"/>
<path d="M83.0767 323.461L94.1172 281.87L123.428 296.305L113.739 334.551C108.866 326.431 94.2954 320.542 83.0767 323.461Z" fill="#FFCC00"/>
<path d="M205.269 314.126L205.277 354.04C194.831 344.943 181.994 348.346 170.58 354.04L173.038 310.749L205.277 314.135L205.269 314.126Z" fill="#FFCC00"/>
<path d="M248.481 312.02L256.178 348.911C250.246 348.113 245.248 344.523 239.044 344.863C230.227 345.338 225.059 351.626 218.847 356.557L216.293 314.506L248.481 312.02Z" fill="#FFCC00"/>
<path d="M157.587 349.168C153.798 342.13 137.558 336.717 126.189 341.589L133.145 299.7L160.725 309.866L157.587 349.168Z" fill="#FFCC00"/>
<path d="M339.35 307.329C331.62 307.066 322.107 312.989 316.947 318.454C313.451 322.163 312.008 326.796 308.376 330.233L295.307 298.571L327.453 281.03L339.35 307.329Z" fill="#FFCC00"/>
<path d="M74.5908 307.337C71.7309 295.227 57.3639 289.032 45.7294 289.516L58.4671 255.58L85.3258 277.194C81.4646 285.664 78.3586 299.156 74.5908 307.337Z" fill="#FFCC00"/>
<path d="M285.031 303.086L294.365 332.787C287.916 331.447 279.387 334.502 274.211 338.516C272.768 339.636 270.731 343.285 269.348 342.971L259.682 311.241C259.682 311.241 281.331 304.546 285.031 303.086Z" fill="#FFCC00"/>
<path d="M376.291 276.227C370.189 276.982 355.752 286.262 352.471 302.071L336.966 276.227L356.802 256.598L376.291 276.227Z" fill="#FFCC00"/>
<path d="M42.3177 271.696C42.3177 271.696 42.9117 272.79 42.3177 271.704C36.3262 254.974 26.5819 249.56 19.4305 245.813L36.8696 224.207L51.6016 247.493L42.3177 271.704V271.696Z" fill="#FFCC00"/>
<path d="M394.155 241.982C386.441 245.8 380.129 255.431 380.622 263.094L364.868 248.231L377.373 228.989C378.494 228.904 394.155 241.982 394.155 241.982Z" fill="#FFCC00"/>
<path d="M396.32 231.154L382.766 219.344L388.2 198.132L401.193 214.373C398.264 217.479 395.811 224.849 396.32 231.154Z" fill="#FFCC00"/>
<path d="M21.7099 227.907C20.6274 218.162 17.3793 211.125 11.4245 206.794L24.9581 187.847L33.0782 212.749L21.7099 227.907Z" fill="#FFCC00"/>
<path d="M88.9808 185.798L46.4157 158.271L63.5069 126.484L76.4604 137.492L68.251 151.698L72.0943 155.104L78.6479 143.154L90.564 149.965L83.9214 161.934L97.4069 171.736L88.9808 185.798Z" fill="#001EFF"/>
<path d="M139.31 131.196C137.014 137.169 131.157 143.264 124.177 146.443C116.605 149.892 107.814 150.04 100.431 143.476C97.118 140.414 94.6336 136.975 93.0032 133.219C87.1286 119.684 92.4932 103.315 104.217 93.7624C105.962 92.3963 107.718 91.3823 109.552 90.5471C117.538 86.9101 125.446 88.8072 129.42 91.9246C133.25 95.0362 136.648 99.2732 138.899 104.461C142.108 111.854 142.966 121.176 139.31 131.196ZM120.358 109.406C118.199 107.533 115.689 107.462 113.264 108.566C108.295 110.829 104.013 118.921 107.688 127.388C110.25 133.291 114.184 134.356 117.733 132.739C120.927 131.284 123.597 127.641 124.196 123.797C124.95 119.169 124.477 115.957 123.416 113.512C122.614 111.664 121.527 110.302 120.358 109.406Z" fill="#001EFF"/>
<path d="M186.246 108.716L200.317 116.674L191.075 128.712L174.366 118.264L175.093 129.355L159.289 128.748L154.931 78.1635C163.167 76.6196 168.965 75.6344 172.826 74.9127L178.499 74.0013C179.658 73.7913 180.691 73.655 181.664 73.5881C192.298 72.8565 197.639 78.809 198.132 86.3329C198.621 93.7919 194.453 102.744 186.246 108.716ZM171.771 91.5994L171.867 102.017C177.939 100.231 180.572 95.685 180.794 94.1061L180.777 93.8466C180.764 93.652 180.816 93.453 180.799 93.1935C180.714 91.8963 180.25 89.7782 177.137 89.9923C175.84 90.0816 174.106 90.4614 171.771 91.5994Z" fill="#001EFF"/>
<path d="M262.077 90.6626L248.433 102.251C245.153 97.1126 242.437 94.9969 239.949 94.5142C234.206 93.4003 230.855 101.159 230.394 103.652C230.359 103.843 230.335 103.971 230.387 104.047C230.311 104.099 230.276 104.291 230.217 104.61C229.78 106.975 229.65 113.041 234.755 114.031C237.499 114.564 241.582 113.568 248.155 109.48L258.216 125.137C254.515 129.782 242.226 133.688 231.059 131.522C225.954 130.532 221.265 128.364 217.784 124.313C211.485 117.264 210.169 109.726 211.492 102.567C213.678 90.7427 223.469 80.327 231.844 76.8535C232.908 76.4639 234.035 76.0866 235.33 75.8744C237.514 75.5034 240.475 75.2171 243.857 75.8731C249.728 77.0118 256.553 80.8517 262.077 90.6626Z" fill="#001EFF"/>
<path d="M265.626 137.226L285.1 90.5438L318.806 102.805L310.567 117.056L295.41 111.012L294.119 113.852L305.239 117.934L299.474 127.74L289.217 124.118L287.748 127.376L305.094 133.265L298.042 149.691L265.626 137.226Z" fill="#001EFF"/>
<path d="M346.936 151.826C349.858 157.45 352.794 164.244 347.121 171.771C340.041 181.167 327.815 180.116 317.363 171.851C312.723 168.182 308.81 162.686 306.343 157.753L318.589 149.708C320.003 152.151 322.164 156.842 325.478 159.462C328.129 161.559 330.857 162.473 332.148 160.76C333.048 159.566 332.203 157.987 331.053 156.167C328.506 152.744 320.61 142.275 327.22 133.502C334.809 123.432 347.056 124.996 356.845 132.737C360.669 135.761 363.883 139.378 366.168 143.256L354.072 152.829C352.042 149.153 350.392 145.943 346.721 143.04C344.682 141.428 341.436 139.689 339.988 141.61C339.167 142.7 341.473 144.606 342.273 145.488L344.149 147.965L344.809 148.818C345.66 149.74 346.394 150.817 346.936 151.826Z" fill="#001EFF"/>
<path d="M165.268 306.297C164.528 306.168 163.911 306.057 163.428 305.968L88.9745 224.836L164.688 265.756L173.615 270.58L170.381 260.962L147.073 191.642L196.767 254.632L202.868 262.365L203.886 252.568L211.96 174.862L227.733 250.697L229.429 258.854L234.734 252.429L283.962 192.795L260.588 252.839L256.94 262.212L266.029 257.905L331.806 226.732L276.815 300.992C255.083 310.242 226.847 311.585 203.524 310.458C191.764 309.89 181.4 308.704 173.979 307.659C170.271 307.137 167.303 306.651 165.268 306.297Z" stroke="#001EFF" stroke-width="8"/>
</svg>
