<svg width="414" height="371" viewBox="0 0 414 371" fill="none" xmlns="http://www.w3.org/2000/svg">
<path d="M195.052 33.9775C268.866 29.5738 349.673 57.7386 375.434 132.533C407.186 224.73 326.775 294.778 242.909 306.365C145.673 319.797 12.3124 259.691 34.4745 141.574C47.5525 71.8887 131.29 37.7776 195.06 33.9775H195.052Z" fill="#001EFF"/>
<path d="M383.286 288.532C374.995 287.862 366.56 290.187 362.903 298.283C360.196 304.282 362.063 309.629 360.959 315.858L349.478 323.079C333.32 312.404 313.708 326.041 320.616 344.668L307.454 349.556C295.175 336.852 274.655 343.548 274.791 361.657L259.176 364.975C249.629 347.918 226.445 351.338 223.433 371.001L206.944 370.958C203.906 353.697 180.247 349.819 172.94 365.892L155.153 363.338C154.092 352.102 134.71 342.007 124.951 355.585L110.168 352.314C111.466 336.717 94.9438 326.287 81.7139 335.248L66.8801 325.158C73.8727 307.414 57.0786 291.587 40.1402 301.194L31.4165 291.468C40.1402 277.195 24.9019 256.598 10.8269 253.891L4.8721 242.523C11.9096 232.779 15.4943 225.666 10.8269 217.621C8.77324 214.091 0 207.574 0 207.574C11.3682 198.913 23.6941 163.641 26.3672 150.148C56.841 -3.6971 336.358 -16.5027 382.981 133.371C385.009 139.88 388.421 151.294 389.116 157.786C390.89 174.359 400.454 199.677 413.056 214.291C413.056 214.291 397.347 223.576 406.692 240.598L402.151 249.932C396.508 249.508 384.355 262.012 391.756 277.008L383.278 288.515L383.286 288.532ZM196.549 34.3294C133.412 38.1227 55.789 75.1177 35.4223 142.583C13.4771 260.481 147.473 318.925 243.757 305.517C326.803 293.95 406.606 224.742 375.157 132.709C349.647 58.0482 269.64 29.925 196.54 34.3294H196.549ZM339.294 307.329L327.397 281.03L295.251 298.571L308.32 330.233C311.96 326.805 313.403 322.163 316.891 318.454C322.042 312.989 331.563 307.066 339.294 307.329Z" fill="white"/>
<path d="M83.0205 323.461L94.061 281.87L123.372 296.305L113.682 334.551C108.81 326.431 94.2392 320.542 83.0205 323.461Z" fill="#001EFF"/>
<path d="M205.213 314.126L205.221 354.04C194.775 344.943 181.937 348.346 170.524 354.04L172.982 310.749L205.221 314.135L205.213 314.126Z" fill="#001EFF"/>
<path d="M248.425 312.02L256.122 348.911C250.19 348.113 245.191 344.523 238.988 344.863C230.171 345.338 225.003 351.626 218.791 356.557L216.237 314.506L248.425 312.02Z" fill="#001EFF"/>
<path d="M157.531 349.168C153.742 342.13 137.501 336.717 126.133 341.589L133.089 299.7L160.669 309.866L157.531 349.168Z" fill="#001EFF"/>
<path d="M339.294 307.329C331.563 307.066 322.05 312.989 316.891 318.454C313.394 322.163 311.952 326.796 308.32 330.233L295.251 298.571L327.397 281.03L339.294 307.329Z" fill="#001EFF"/>
<path d="M74.5346 307.337C71.6748 295.227 57.3077 289.032 45.6732 289.516L58.4109 255.58L85.2696 277.194C81.4084 285.664 78.3025 299.156 74.5346 307.337Z" fill="#001EFF"/>
<path d="M284.974 303.086L294.309 332.787C287.86 331.447 279.331 334.502 274.155 338.516C272.712 339.636 270.675 343.285 269.292 342.971L259.626 311.241C259.626 311.241 281.274 304.546 284.974 303.086Z" fill="#001EFF"/>
<path d="M376.234 276.227C370.133 276.982 355.695 286.262 352.415 302.071L336.91 276.227L356.746 256.598L376.234 276.227Z" fill="#001EFF"/>
<path d="M42.2615 271.696C42.2615 271.696 42.8556 272.79 42.2615 271.704C36.27 254.974 26.5258 249.56 19.3744 245.813L36.8134 224.207L51.5454 247.493L42.2615 271.704V271.696Z" fill="#001EFF"/>
<path d="M394.099 241.982C386.385 245.8 380.073 255.431 380.565 263.094L364.812 248.231L377.317 228.989C378.437 228.904 394.099 241.982 394.099 241.982Z" fill="#001EFF"/>
<path d="M396.264 231.154L382.709 219.344L388.144 198.132L401.136 214.373C398.207 217.479 395.755 224.849 396.264 231.154Z" fill="#001EFF"/>
<path d="M21.6538 227.907C20.5713 218.162 17.3232 211.125 11.3684 206.794L24.902 187.847L33.0221 212.749L21.6538 227.907Z" fill="#001EFF"/>
<path d="M88.9246 185.798L46.3595 158.271L63.4507 126.484L76.4042 137.492L68.1948 151.698L72.0381 155.104L78.5917 143.154L90.5078 149.965L83.8652 161.934L97.3507 171.736L88.9246 185.798Z" fill="white"/>
<path d="M139.253 131.196C136.957 137.169 131.101 143.264 124.121 146.443C116.549 149.892 107.758 150.04 100.374 143.476C97.0618 140.414 94.5774 136.975 92.947 133.219C87.0724 119.684 92.437 103.315 104.161 93.7624C105.906 92.3963 107.662 91.3823 109.496 90.5471C117.481 86.9101 125.389 88.8072 129.364 91.9246C133.194 95.0362 136.592 99.2732 138.843 104.461C142.052 111.854 142.91 121.176 139.253 131.196ZM120.302 109.406C118.143 107.533 115.633 107.462 113.207 108.566C108.238 110.829 103.957 118.921 107.632 127.388C110.194 133.291 114.128 134.356 117.677 132.739C120.871 131.284 123.541 127.641 124.14 123.797C124.894 119.169 124.421 115.957 123.36 113.512C122.557 111.664 121.47 110.302 120.302 109.406Z" fill="white"/>
<path d="M186.19 108.716L200.261 116.674L191.018 128.712L174.309 118.264L175.036 129.355L159.233 128.748L154.875 78.1635C163.111 76.6196 168.909 75.6344 172.77 74.9127L178.443 74.0013C179.601 73.7913 180.635 73.655 181.607 73.5881C192.242 72.8565 197.583 78.809 198.076 86.3329C198.565 93.7919 194.397 102.744 186.19 108.716ZM171.714 91.5994L171.811 102.017C177.882 100.231 180.516 95.685 180.738 94.1061L180.721 93.8466C180.708 93.652 180.76 93.453 180.743 93.1935C180.658 91.8963 180.193 89.7782 177.081 89.9923C175.784 90.0816 174.05 90.4614 171.714 91.5994Z" fill="white"/>
<path d="M262.021 90.6626L248.377 102.251C245.097 97.1126 242.381 94.9969 239.893 94.5142C234.15 93.4003 230.799 101.159 230.338 103.652C230.302 103.843 230.279 103.971 230.331 104.047C230.255 104.099 230.22 104.291 230.161 104.61C229.723 106.975 229.594 113.041 234.698 114.031C237.442 114.564 241.526 113.568 248.099 109.48L258.16 125.137C254.459 129.782 242.17 133.688 231.003 131.522C225.898 130.532 221.209 128.364 217.728 124.313C211.429 117.264 210.112 109.726 211.436 102.567C213.622 90.7427 223.413 80.327 231.788 76.8535C232.852 76.4639 233.979 76.0866 235.274 75.8744C237.458 75.5034 240.419 75.2171 243.801 75.8731C249.672 77.0118 256.497 80.8517 262.021 90.6626Z" fill="white"/>
<path d="M265.57 137.226L285.044 90.5438L318.75 102.805L310.511 117.056L295.353 111.012L294.063 113.852L305.183 117.934L299.417 127.74L289.161 124.118L287.692 127.376L305.037 133.265L297.986 149.691L265.57 137.226Z" fill="white"/>
<path d="M346.88 151.826C349.802 157.45 352.737 164.244 347.065 171.771C339.985 181.167 327.759 180.116 317.307 171.851C312.667 168.182 308.754 162.686 306.287 157.753L318.533 149.708C319.947 152.151 322.107 156.842 325.422 159.462C328.073 161.559 330.801 162.473 332.092 160.76C332.992 159.566 332.147 157.987 330.997 156.167C328.45 152.744 320.553 142.275 327.164 133.502C334.753 123.432 346.999 124.996 356.789 132.737C360.613 135.761 363.826 139.378 366.112 143.256L354.016 152.829C351.986 149.153 350.336 145.943 346.665 143.04C344.626 141.428 341.379 139.689 339.932 141.61C339.111 142.7 341.417 144.606 342.217 145.488L344.093 147.965L344.753 148.818C345.604 149.74 346.338 150.817 346.88 151.826Z" fill="white"/>
<path d="M165.212 306.298C164.471 306.169 163.855 306.057 163.371 305.968L88.9183 224.837L164.631 265.756L173.559 270.581L170.325 260.962L147.017 191.643L196.711 254.633L202.811 262.366L203.829 252.568L211.904 174.863L227.677 250.697L229.373 258.855L234.677 252.429L283.906 192.795L260.532 252.84L256.883 262.213L265.973 257.905L331.75 226.732L276.759 300.992C255.027 310.243 226.791 311.585 203.468 310.459C191.708 309.891 181.344 308.704 173.923 307.659C170.215 307.137 167.246 306.652 165.212 306.298Z" stroke="white" stroke-width="8"/>
</svg>
