<svg width="123" height="136" viewBox="0 0 123 136" fill="none" xmlns="http://www.w3.org/2000/svg">
<path d="M66.4001 40.2001L82.4001 36.6001L71.7935 47.2064L55.7935 50.8064L66.4001 40.2001Z" fill="#001EFF"/>
<path d="M66.4001 88.8002V40.2001L55.7935 50.8064V99.4064L66.4001 88.8002Z" fill="#001EFF"/>
<path d="M82.4001 36.6001L78.4001 121.6L67.7935 132.206L71.7935 47.2064L82.4001 36.6001Z" fill="#001EFF"/>
<path d="M30.8 7.6L27.4001 84.2001L16.7935 94.8064L20.1935 18.2064L30.8 7.6Z" fill="#001EFF"/>
<path d="M78.4001 121.6L122.2 115.8L111.594 126.406L67.7935 132.206L78.4001 121.6Z" fill="#001EFF"/>
<path d="M57.0871 116.018C63.0319 110.071 66.4001 101.016 66.4001 88.8002L55.7935 99.4064C55.7935 111.622 52.4255 120.678 46.4806 126.625L57.0871 116.018Z" fill="#001EFF"/>
<path d="M27.4001 84.2001C27.4001 88.4242 26.4323 91.4041 24.4748 93.361L13.8701 103.966C15.8263 102.009 16.7935 99.0291 16.7935 94.8064L27.4001 84.2001Z" fill="#001EFF"/>
<path d="M33.4001 124.6C43.2159 124.6 51.3456 121.758 57.0799 116.026L46.4806 126.625C40.746 132.362 32.6135 135.206 22.7935 135.206L33.4001 124.6Z" fill="#001EFF"/>
<path d="M11.2001 96.3999L26.6001 124.6L15.9935 135.206L0.593506 107.006L11.2001 96.3999Z" fill="#001EFF"/>
<path d="M26.6001 124.6L33.4001 124.6L22.7935 135.206H15.9935L26.6001 124.6Z" fill="#001EFF"/>
<path d="M122.2 0L122.2 115.8L78.4001 121.6L82.4001 36.6001L66.4001 40.2001V88.8002C66.4001 112.8 53.4001 124.6 33.4001 124.6L26.6001 124.6L11.2001 96.3999L14.6 96.4C23.2 96.4 27.4001 93.0001 27.4001 84.2001L30.8 7.6L122.2 0Z" fill="#FF0000"/>
</svg>
