<svg width="2350" height="1398" viewBox="0 0 2350 1398" fill="none" xmlns="http://www.w3.org/2000/svg">
<path d="M43.786 2.13686C45.7137 4.46772 1144.1 1358.12 1156.95 1374.04C1160.9 1378.9 1164.3 1382.98 1164.57 1382.98C1164.76 1382.98 1163.29 1380.65 1161.36 1377.83C1159.43 1375.11 958.59 1063.94 715.156 686.342L272.441 0.000234127H157.15H41.9502L43.786 2.13686Z" fill="#FFAB00"/>
<path d="M540.658 0.49027C540.658 0.781628 680.55 309.232 851.467 685.958C1022.48 1062.59 1163.75 1374.14 1165.49 1378.13C1167.23 1382.11 1168.79 1386.67 1168.98 1388.13L1169.34 1390.85L1165.95 1388.23C1164.11 1386.77 1158.88 1382.21 1154.29 1378.13C1148.14 1372.59 146.501 461.515 19.0928 345.555L0 328.171V437.333V546.495L572.969 961.096C888.092 1189.13 1150.8 1379.39 1156.86 1383.86C1162.83 1388.32 1167.51 1392.11 1167.23 1392.4C1167.05 1392.69 1163.19 1391.14 1158.7 1389C1154.29 1386.87 892.223 1253.52 576.457 1092.6C260.691 931.669 1.74406 799.879 1.10151 799.587C0.183585 799.199 0 815.223 0.183585 879.516L0.458962 959.834L576.457 1174.18C893.233 1291.98 1155.58 1389.68 1159.34 1391.24C1163.1 1392.79 1165.49 1394.25 1164.66 1394.44C1162.46 1394.93 1193.03 1400.95 571.592 1276.54C258.212 1213.9 1.37689 1162.52 0.917925 1162.52C0.36717 1162.52 0 1187.77 0 1231.96C0 1282.85 0.275377 1301.4 1.00972 1301.4C3.02915 1301.4 1153.92 1394.64 1159.43 1395.32C1162.46 1395.61 1165.12 1396.29 1165.4 1396.68C1165.67 1397.16 1172.56 1397.45 1180.73 1397.45C1196.06 1397.36 1196.7 1397.16 1187.34 1396C1182.38 1395.41 1182.1 1395.22 1184.58 1394.54C1188.07 1393.47 1184.49 1393.76 1811.52 1343.65C2102.32 1320.44 2342.45 1301.21 2345.11 1300.82L2349.89 1300.33V1230.8V1161.36L2347.87 1161.84C2344.2 1162.81 1205.24 1389.78 1193.94 1391.82C1187.89 1392.89 1182.84 1393.57 1182.65 1393.37C1181.83 1392.5 1196.06 1386.96 1254.8 1365.11C1287.39 1353.07 1546.98 1256.63 1831.72 1150.96L2349.43 958.766L2349.7 878.06L2349.89 797.353L2345.11 799.684C2342.45 800.947 2082.96 932.835 1768.38 1092.79C1453.9 1252.84 1193.21 1385.22 1189.17 1387.06C1184.31 1389.3 1181.64 1390.17 1181.19 1389.49C1180.27 1387.94 1181.19 1386.58 1190.18 1375.21C1196.61 1367.15 2239.65 82.4589 2293.16 16.7092L2306.84 0.00467416L2190.9 0.198913L2075.06 0.49027L1633.72 683.724C1391.02 1059.48 1189.26 1371.62 1185.41 1377.45C1181.55 1383.18 1178.16 1387.74 1177.97 1387.55C1177.79 1387.26 1178.8 1384.34 1180.18 1380.94C1181.55 1377.54 1323.19 1065.5 1494.93 687.609L1807.21 0.49027L1722.67 0.198913C1676.22 0.101793 1637.85 0.296032 1637.49 0.684509C1637.12 1.1701 1537.62 300.589 1416.36 666.243C1295.1 1031.9 1192.2 1342.19 1187.61 1355.79C1179.53 1379.97 1175.95 1389.1 1175.86 1385.7C1175.86 1383.18 1175.22 1386.48 1301.62 676.926C1367.16 308.65 1421.13 5.63759 1421.41 3.59809L1422.05 0.00467416H1348.52H1275L1274.63 2.1413C1274.36 3.40385 1254.53 279.222 1230.48 615.255C1169.16 1471.36 1175.31 1388.23 1173.84 1385.6C1172.83 1383.57 1173.93 1399.4 1120.79 653.131C1095.54 298.452 1074.61 6.41454 1074.34 4.08368L1073.88 0.00467416H999.987H926.186L926.645 2.1413C927.288 5.24911 1166.13 1348.99 1169.44 1368.32C1171 1377.06 1172.19 1385.12 1172.1 1386.28C1172.01 1389.2 1169.44 1382.69 1162.92 1363.07C1154.11 1336.75 715.981 14.8639 713.503 6.99726L711.208 0.00467416H625.933C579.027 0.00467416 540.658 0.198913 540.658 0.49027Z" fill="#FFAB00"/>
<path d="M1817.03 811.524C1205.7 1367.43 1192.66 1379.28 1186.14 1384.72C1178.43 1391.13 1181.19 1389.58 1192.11 1381.23C1197.62 1377.15 1460.33 1187.18 1776 959.048L2349.89 544.349V435.867C2349.89 376.138 2349.8 327.287 2349.7 327.385C2349.52 327.385 2109.85 545.32 1817.03 811.524Z" fill="#FFAB00"/>
</svg>
