<svg width="2349" height="1397" viewBox="0 0 2349 1397" fill="none" xmlns="http://www.w3.org/2000/svg">
<path d="M2305.23 1394.86C2303.3 1392.53 1205.33 39.3249 1192.48 23.4025C1188.54 18.5481 1185.14 14.4704 1184.87 14.4704C1184.68 14.4704 1186.15 16.8005 1188.08 19.6161C1190.01 22.3345 1390.77 333.404 1634.11 710.881L2076.66 1397H2307.07L2305.23 1394.86Z" fill="#FFAB00"/>
<path d="M1808.55 1396.51C1808.55 1396.22 1668.71 1087.87 1497.85 711.265C1326.91 334.759 1185.69 23.3011 1183.95 19.3205C1182.21 15.3399 1180.65 10.7767 1180.46 9.32042L1180.1 6.60197L1183.49 9.22334C1185.33 10.6797 1190.56 15.2428 1195.15 19.3205C1201.29 24.8545 2202.55 935.635 2329.91 1051.56L2349 1068.94V850.683L1776.25 436.215C1461.24 208.253 1198.63 18.0583 1192.58 13.5923C1186.61 9.12625 1181.93 5.33983 1182.21 5.04856C1182.39 4.7573 1186.25 6.3107 1190.74 8.44663C1195.15 10.5826 1457.11 143.884 1772.76 304.758C2088.41 465.633 2347.26 597.381 2347.9 597.672C2348.82 598.061 2349 582.041 2348.82 517.769L2348.54 437.477L1772.76 223.205C1456.1 105.437 1193.86 7.76702 1190.1 6.21362C1186.34 4.66021 1183.95 3.2039 1184.78 3.00972C1186.98 2.52428 1156.42 -3.49516 1777.62 120.874C2090.89 183.496 2347.62 234.855 2348.08 234.855C2348.63 234.855 2349 209.612 2349 165.438C2349 114.564 2348.72 96.0198 2347.99 96.0198C2345.97 96.0198 1195.51 2.81554 1190.01 2.13593C1186.98 1.84467 1184.32 1.16505 1184.04 0.776702C1183.77 0.291263 1176.89 0 1168.72 0C1153.4 0.0970877 1152.75 0.291263 1162.11 1.45632C1167.07 2.03884 1167.34 2.23302 1164.87 2.91263C1161.38 3.9806 1164.96 3.68933 538.16 53.7866C247.471 76.9906 7.43298 96.214 4.77188 96.6023L0.000488097 97.0877V236.02L2.01926 235.535C5.6895 234.564 1144.22 7.66993 1155.51 5.63109C1161.56 4.56312 1166.61 3.88351 1166.79 4.07769C1167.62 4.95148 1153.4 10.4855 1094.67 32.3302C1062.1 44.3691 802.606 140.777 517.973 246.409L0.459299 438.545L0.184012 519.225L0.000488097 599.905L4.77188 597.575C7.43298 596.313 266.832 464.468 581.286 304.564C895.648 144.564 1156.24 12.2331 1160.28 10.3884C1165.14 8.15537 1167.8 7.28158 1168.26 7.9612C1169.18 9.5146 1168.26 10.8738 1159.27 22.2331C1152.85 30.2914 110.202 1314.57 56.7068 1380.3L43.035 1397L274.723 1396.51L715.895 713.498C958.502 337.865 1160.19 25.8253 1164.04 20.0001C1167.89 14.2719 1171.29 9.70877 1171.47 9.90295C1171.66 10.1942 1170.65 13.1068 1169.27 16.5049C1167.89 19.903 1026.31 331.846 854.633 709.614L542.473 1396.51L626.982 1396.8C673.411 1396.9 711.766 1396.7 712.133 1396.32C712.5 1395.83 811.965 1096.51 933.177 730.974C1054.39 365.438 1157.25 55.2429 1161.84 41.6506C1169.91 17.4758 1173.49 8.34955 1173.58 11.7476C1173.58 14.2719 1174.22 10.9709 1047.87 720.294C982.36 1088.45 928.406 1391.36 928.131 1393.4L927.488 1397H1074.48L1074.85 1394.86C1075.13 1393.6 1094.95 1117.87 1118.99 781.945C1180.28 -73.8838 1174.13 9.22334 1175.6 11.8447C1176.61 13.8835 1175.51 -1.94175 1228.64 744.081C1253.87 1098.64 1274.79 1390.59 1275.07 1392.92L1275.53 1397H1423.16L1422.71 1394.86C1422.06 1391.75 1183.31 48.4468 1180.01 29.1263C1178.45 20.3884 1177.25 12.3301 1177.34 11.1651C1177.44 8.25246 1180.01 14.7573 1186.52 34.3691C1195.33 60.6798 1633.29 1382.14 1635.77 1390.01L1638.06 1397H1723.3C1770.19 1397 1808.55 1396.8 1808.55 1396.51Z" fill="#FFAB00"/>
<path d="M532.654 585.739C1143.76 30.0089 1156.79 18.1642 1163.31 12.7273C1171.01 6.31954 1168.26 7.87294 1157.34 16.2225C1151.84 20.3002 889.225 210.204 573.67 438.263L0 852.828V961.275C0 1020.98 0.0917622 1069.82 0.183524 1069.72C0.367049 1069.72 239.947 851.857 532.654 585.739Z" fill="#FFAB00"/>
</svg>
