<svg width="458" height="316" viewBox="0 0 458 316" fill="none" xmlns="http://www.w3.org/2000/svg">
<path d="M300.903 65.2346L388.734 14.6606L357.734 81.5125L355.677 85.9484L359.606 88.8584C360.957 89.8589 362.352 90.8829 363.782 91.9328C389.151 110.56 425.586 137.311 424.993 184.811L424.992 184.862L424.992 184.913C425.16 222.269 398.403 253.67 358.773 275.975C319.307 298.186 268.52 310.447 224.091 309.988L224.056 309.987L224.021 309.987C164.567 310.066 112.67 295.358 75.8532 272.248C38.9555 249.087 17.9229 218.045 18.0002 185.387V185.383C18.0783 140.7 51.0107 102.73 103.285 79.7576C155.404 56.8533 225.51 49.5796 296.567 65.8831L298.862 66.4097L300.903 65.2346Z" fill="white" stroke="#FFAB00" stroke-width="12"/>
<path d="M75.2123 186.291C66.5283 192.6 52.6648 195.75 39.8447 193.719C25.9381 191.516 13.2867 183.498 8.72554 167.295C6.78489 159.86 6.36527 152.665 7.44948 145.821C11.3561 121.158 33.8336 103.001 59.1855 100.446C62.9085 100.145 66.3281 100.352 69.6961 100.886C84.3633 103.209 93.9027 113.296 96.7351 121.429C99.3674 129.419 100.364 138.598 98.8664 148.05C96.7324 161.522 89.5028 175.524 75.2123 186.291ZM67.9852 137.702C66.6093 133.029 63.0993 130.579 58.6448 129.874C49.5186 128.428 36.0876 135.879 33.6438 151.306C31.94 162.062 36.5753 167.251 43.094 168.284C48.9609 169.213 56.0647 166.552 60.4019 161.67C65.6716 155.823 67.9101 150.832 68.6157 146.377C69.1492 143.009 68.8361 140.064 67.9852 137.702ZM160.648 199.824C151.964 206.133 138.1 209.283 125.28 207.252C111.373 205.049 98.7219 197.031 94.1607 180.828C92.2201 173.393 91.8005 166.198 92.8847 159.354C96.7913 134.691 119.269 116.534 144.621 113.979C148.344 113.678 151.763 113.886 155.131 114.419C169.798 116.742 179.338 126.829 182.17 134.962C184.803 142.953 185.799 152.131 184.302 161.584C182.168 175.056 174.938 189.057 160.648 199.824ZM153.42 151.235C152.044 146.562 148.534 144.113 144.08 143.407C134.954 141.961 121.523 149.412 119.079 164.839C117.375 175.595 122.01 180.784 128.529 181.817C134.396 182.746 141.5 180.085 145.837 175.203C151.107 169.356 153.345 164.365 154.051 159.91C154.584 156.542 154.271 153.597 153.42 151.235ZM246.083 213.357C237.399 219.666 223.535 222.816 210.715 220.785C196.808 218.582 184.157 210.564 179.596 194.361C177.655 186.926 177.236 179.732 178.32 172.887C182.226 148.224 204.704 130.067 230.056 127.512C233.779 127.211 237.199 127.419 240.567 127.952C255.234 130.275 264.773 140.362 267.605 148.495C270.238 156.486 271.234 165.665 269.737 175.117C267.603 188.589 260.373 202.59 246.083 213.357ZM238.856 164.768C237.48 160.095 233.97 157.646 229.515 156.94C220.389 155.495 206.958 162.945 204.514 178.373C202.81 189.128 207.446 194.318 213.964 195.35C219.831 196.279 226.935 193.618 231.272 188.737C236.542 182.889 238.78 177.898 239.486 173.443C240.02 170.075 239.706 167.13 238.856 164.768ZM307.267 141.636L316.966 142.281C318.847 142.357 320.494 142.506 322.124 142.764C340.05 145.604 346.592 158.445 344.423 172.135C341.446 190.93 322.158 212.154 294.222 212.741L290.781 232.354L265.045 225.382L276.639 140.237C290.695 140.793 300.628 141.364 307.267 141.636ZM313.461 176.363L313.529 175.928C313.581 175.602 313.741 175.293 313.81 174.859C314.154 172.686 313.962 168.98 308.747 168.154C306.574 167.81 303.572 167.78 299.402 168.79L295.562 186.001C306.245 185.355 312.504 178.884 313.461 176.363ZM384.408 188.492C393.28 194.352 403.107 201.923 400.611 217.676C397.496 237.341 378.323 245.887 356.051 242.359C346.164 240.793 335.907 235.938 328.27 230.719L340.21 208.777C344.28 211.204 351.266 216.319 358.328 217.438C363.977 218.333 368.799 217.426 369.367 213.841C369.762 211.342 367.236 209.717 364.057 207.988C357.505 205.057 337.305 196.177 340.214 177.816C343.552 156.739 363.165 148.931 384.025 152.236C392.174 153.526 399.881 156.195 406.404 160.013L395.91 184.077C389.93 180.346 384.894 176.986 377.071 175.747C372.725 175.059 366.469 175.181 365.832 179.201C365.471 181.483 370.451 182.383 372.355 183.019L377.147 185.114L378.816 185.824C380.829 186.477 382.79 187.456 384.408 188.492ZM405.857 249.803C399.408 246.22 395.78 240.299 396.537 235.519C397.415 229.978 403.02 227.636 409.43 228.651C419.426 230.235 426.421 238.804 425.406 245.215C424.563 250.538 418.94 252.989 412.421 251.956C410.357 251.629 408.127 250.942 405.857 249.803ZM447.355 161.488L428.032 230.039C424.534 226.812 419.577 224.356 413.602 223.409C409.799 222.807 406.185 223.125 403.062 223.856L418.735 157.956L447.355 161.488Z" fill="#FF0000"/>
</svg>
