<svg width="520" height="183" viewBox="0 0 520 183" fill="none" xmlns="http://www.w3.org/2000/svg">
<path d="M54.7211 182.224L0.677246 40.7443L48.5597 19.9798L67.2198 77.6981L99.0828 28.6024L125.665 74.7066L146.789 11.7092L187.278 40.7443L143.621 170.082L99.7869 125.21L54.7211 182.224Z" fill="#FF0000"/>
<path d="M298.658 154.597C286.511 166.739 265.387 175.186 244.614 175.186C222.081 175.186 200.077 165.683 188.81 141.223C183.881 129.961 181.417 118.699 181.417 107.613C181.417 85.0907 191.266 64.3586 206.926 48.6969C219.041 36.5811 234.633 27.4998 251.832 22.9713C257.641 21.5636 263.098 21.0357 268.556 21.0357C292.321 21.0357 309.925 34.5854 316.438 46.7273C322.599 58.6933 326.472 72.9469 326.472 88.2563C326.472 110.077 318.551 134.009 298.658 154.597ZM275.069 79.6337C271.724 72.5949 265.563 69.6034 258.345 69.6034C251.118 69.6034 242.798 73.2183 236.179 79.8318C229.255 86.75 224.194 96.9494 224.194 109.725C224.194 127.146 232.82 134.185 243.382 134.185C250.863 134.185 258.998 130.479 264.87 124.612C266.46 123.024 267.884 121.278 269.084 119.403C275.949 108.845 278.238 100.398 278.238 93.1834C278.238 87.7284 277.005 83.1531 275.069 79.6337Z" fill="#FF0000"/>
<path d="M375.476 182.224L321.432 40.7443L369.314 19.9798L387.974 77.6981L419.837 28.6024L446.419 74.7066L467.544 11.7092L508.033 40.7443L464.375 170.082L420.541 125.21L375.476 182.224Z" fill="#FF0000"/>
<path d="M519.016 29.7653L478.527 0.730225L467.544 11.7093L508.033 40.7444L519.016 29.7653Z" fill="#FF0000"/>
<path d="M478.527 0.730225L457.402 63.7276L446.419 74.7067L467.544 11.7093L478.527 0.730225Z" fill="#FF0000"/>
<path d="M457.403 63.7277L430.821 17.6235L419.837 28.6026L446.419 74.7068L457.403 63.7277Z" fill="#FF0000"/>
<path d="M475.358 159.103L519.016 29.7654L508.033 40.7445L464.375 170.083L475.358 159.103Z" fill="#FF0000"/>
<path d="M430.821 17.6235L398.958 66.7192L387.974 77.6983L419.837 28.6026L430.821 17.6235Z" fill="#FF0000"/>
<path d="M398.958 66.719L380.298 9.00073L369.314 19.9798L387.974 77.6981L398.958 66.719Z" fill="#FF0000"/>
<path d="M380.297 9.00073L332.415 29.7652L321.432 40.7443L369.314 19.9798L380.297 9.00073Z" fill="#FF0000"/>
<path d="M431.525 114.231L475.358 159.103L464.375 170.082L420.542 125.21L431.525 114.231Z" fill="#FF0000"/>
<path d="M327.421 35.7483C320.908 23.6063 303.304 10.0566 279.539 10.0566L268.555 21.0357C292.321 21.0357 309.924 34.5854 316.438 46.7274L327.421 35.7483Z" fill="#FF0000"/>
<path d="M337.456 77.2773C337.456 61.9679 333.583 47.7143 327.422 35.7483L316.438 46.7274C322.6 58.6934 326.472 72.947 326.472 88.2564L337.456 77.2773Z" fill="#FF0000"/>
<path d="M386.459 171.245L431.525 114.231L420.541 125.21L375.475 182.224L386.459 171.245Z" fill="#FF0000"/>
<path d="M279.539 10.0566C274.082 10.0566 268.624 10.5845 262.815 11.9923L251.832 22.9714C257.641 21.5636 263.098 21.0357 268.555 21.0357L279.539 10.0566Z" fill="#FF0000"/>
<path d="M332.415 29.7654L386.459 171.245L375.475 182.225L321.432 40.7445L332.415 29.7654Z" fill="#FF0000"/>
<path d="M262.815 11.9924C245.616 16.5209 230.024 25.6022 217.909 37.718L206.959 48.6641C219.069 36.5649 234.648 27.4959 251.832 22.9715L262.815 11.9924Z" fill="#FF0000"/>
<path d="M269.329 58.6243C276.546 58.6243 282.708 61.6158 286.052 68.6546L275.069 79.6337C271.724 72.5948 265.563 69.6034 258.345 69.6034L269.329 58.6243Z" fill="#FF0000"/>
<path d="M309.641 143.618C329.534 123.029 337.455 99.0974 337.455 77.2771L326.472 88.2562C326.472 110.077 318.55 134.008 298.658 154.597L309.641 143.618Z" fill="#FF0000"/>
<path d="M286.052 68.6548C287.989 72.1742 289.221 76.7494 289.221 82.2045L278.238 93.1836C278.238 87.7285 277.005 83.1533 275.069 79.6339L286.052 68.6548Z" fill="#FF0000"/>
<path d="M247.162 68.8526C253.781 62.2392 262.101 58.6243 269.329 58.6243L258.345 69.6034C251.118 69.6034 242.798 73.2183 236.179 79.8317L247.162 68.8526Z" fill="#FF0000"/>
<path d="M289.221 82.2043C289.221 89.4191 286.932 97.8657 280.067 108.424L269.083 119.403C275.949 108.845 278.237 100.398 278.237 93.1834L289.221 82.2043Z" fill="#FF0000"/>
<path d="M280.067 108.424C278.867 110.299 277.443 112.045 275.853 113.634L264.882 124.601C266.467 123.016 267.886 121.273 269.084 119.403L280.067 108.424Z" fill="#FF0000"/>
<path d="M198.261 29.7653L157.772 0.730225L146.789 11.7093L187.278 40.7444L198.261 29.7653Z" fill="#FF0000"/>
<path d="M235.177 98.7456C235.177 85.9773 240.233 75.782 247.151 68.864L236.179 79.8319C229.256 86.7501 224.194 96.9495 224.194 109.725L235.177 98.7456Z" fill="#FF0000"/>
<path d="M275.853 113.634C269.981 119.5 261.846 123.206 254.365 123.206L243.382 134.185C250.862 134.185 258.997 130.479 264.869 124.613L275.853 113.634Z" fill="#FF0000"/>
<path d="M217.91 37.7178C202.25 53.3795 192.4 74.1116 192.4 96.6339L181.417 107.613C181.417 85.0907 191.266 64.3586 206.926 48.6969L217.91 37.7178Z" fill="#FF0000"/>
<path d="M254.366 123.206C243.803 123.206 235.177 116.167 235.177 98.7458L224.194 109.725C224.194 127.146 232.82 134.185 243.382 134.185L254.366 123.206Z" fill="#FF0000"/>
<path d="M255.598 164.206C276.37 164.206 297.495 155.76 309.641 143.618L298.658 154.597C286.511 166.739 265.387 175.186 244.614 175.186L255.598 164.206Z" fill="#FF0000"/>
<path d="M157.773 0.730225L136.648 63.7276L125.665 74.7067L146.789 11.7093L157.773 0.730225Z" fill="#FF0000"/>
<path d="M136.648 63.7277L110.066 17.6235L99.0828 28.6026L125.665 74.7068L136.648 63.7277Z" fill="#FF0000"/>
<path d="M192.4 96.6343C192.4 107.72 194.865 118.982 199.794 130.245L188.81 141.224C183.881 129.962 181.417 118.699 181.417 107.613L192.4 96.6343Z" fill="#FF0000"/>
<path d="M154.604 159.103L198.261 29.7654L187.278 40.7445L143.62 170.083L154.604 159.103Z" fill="#FF0000"/>
<path d="M199.793 130.245C211.06 154.704 233.065 164.207 255.598 164.207L244.614 175.186C222.081 175.186 200.077 165.684 188.81 141.224L199.793 130.245Z" fill="#FF0000"/>
<path d="M110.066 17.6235L78.2028 66.7192L67.2195 77.6983L99.0825 28.6026L110.066 17.6235Z" fill="#FF0000"/>
<path d="M78.203 66.719L59.5429 9.00073L48.5596 19.9798L67.2197 77.6981L78.203 66.719Z" fill="#FF0000"/>
<path d="M59.5431 9.00073L11.6606 29.7652L0.677246 40.7443L48.5597 19.9798L59.5431 9.00073Z" fill="#FF0000"/>
<path d="M110.77 114.231L154.604 159.103L143.62 170.082L99.7869 125.21L110.77 114.231Z" fill="#FF0000"/>
<path d="M65.7045 171.245L110.77 114.231L99.7871 125.21L54.7212 182.224L65.7045 171.245Z" fill="#FF0000"/>
<path d="M11.6606 29.7654L65.7044 171.245L54.7211 182.225L0.677246 40.7445L11.6606 29.7654Z" fill="#FF0000"/>
<path d="M65.7045 171.245L11.6606 29.7653L59.5431 9.00082L78.2032 66.7191L110.066 17.6234L136.648 63.7276L157.773 0.730225L198.261 29.7653L154.604 159.103L110.77 114.231L65.7045 171.245Z" fill="#FFAB00"/>
<path d="M309.642 143.618C297.495 155.76 276.37 164.207 255.598 164.207C233.065 164.207 211.06 154.704 199.794 130.244C194.864 118.982 192.4 107.72 192.4 96.634C192.4 56.6888 223.383 22.3746 262.815 11.9923C268.625 10.5846 274.082 10.0567 279.539 10.0567C303.304 10.0567 320.908 23.6064 327.421 35.7483C333.583 47.7143 337.456 61.9679 337.456 77.2773C337.456 99.0976 329.534 123.03 309.642 143.618ZM286.052 68.6547C282.708 61.6159 276.546 58.6244 269.329 58.6244C254.542 58.6244 235.177 73.7579 235.177 98.7456C235.177 116.167 243.803 123.206 254.365 123.206C263.872 123.206 274.434 117.223 280.067 108.424C286.933 97.8658 289.221 89.4192 289.221 82.2044C289.221 76.7494 287.989 72.1741 286.052 68.6547Z" fill="#FFAB00"/>
<path d="M386.459 171.245L332.415 29.7653L380.298 9.00082L398.958 66.7191L430.821 17.6234L457.402 63.7276L478.527 0.730225L519.016 29.7653L475.358 159.103L431.525 114.231L386.459 171.245Z" fill="#FFAB00"/>
</svg>
