<svg width="3990" height="73" viewBox="0 0 3990 73" fill="none" xmlns="http://www.w3.org/2000/svg">
<path d="M1712.85 26.7361L1706.58 34.4761C1704.28 32.0281 1702.59 31.1641 1701.18 31.1641C1697.94 31.1641 1696.9 35.7361 1696.9 37.1401C1696.9 37.2481 1696.9 37.3201 1696.94 37.3561C1696.9 37.3921 1696.9 37.5001 1696.9 37.6801C1696.9 39.0121 1697.44 42.3241 1700.32 42.3241C1701.87 42.3241 1703.99 41.3521 1707.16 38.4361L1714.22 45.8881C1712.67 48.8041 1706.37 52.2241 1700.07 52.2241C1697.19 52.2241 1694.42 51.5401 1692.11 49.7041C1687.97 46.5361 1686.5 42.5761 1686.5 38.5441C1686.5 31.8841 1690.78 25.1881 1694.99 22.4161C1695.53 22.0921 1696.11 21.7681 1696.79 21.5161C1697.94 21.0841 1699.53 20.6161 1701.44 20.6161C1704.75 20.6161 1708.85 21.9841 1712.85 26.7361ZM1741.09 21.6961V51.6481L1730.8 50.9641L1731.3 42.4321L1716.9 50.6761L1715.82 21.9121L1726.59 21.1921L1726.87 33.1081L1741.09 21.6961ZM1770.19 20.6881V49.5961L1759.32 51.0361L1760.29 29.8681L1756.22 30.6961V42.8641C1756.22 48.7681 1753.02 51.8281 1747.98 51.8281H1746.29L1742.44 44.7721H1743.26C1745.39 44.7721 1746.54 43.9081 1746.54 41.7481L1747.3 22.5961L1770.19 20.6881ZM1775.32 51.0361L1775 22.0561L1784.65 21.5521L1784.22 31.3441C1785.08 31.1641 1786.12 31.1641 1787.46 31.1641C1796.56 31.1641 1798.87 35.3041 1798.87 40.6321C1798.87 47.0041 1793.58 50.2801 1787.67 50.4601L1775.32 51.0361ZM1788.18 43.8721C1790.08 43.3321 1791.2 42.1441 1791.2 40.8841C1791.2 38.7601 1788.86 38.1841 1786.52 38.1841C1785.66 38.1841 1784.83 38.2921 1784.14 38.4001L1783.93 44.0161C1784.4 44.0881 1784.97 44.1241 1785.66 44.1241C1786.48 44.1241 1787.35 44.0521 1788.18 43.8721ZM1802.81 51.2881L1801.47 22.7041L1811.99 21.6961L1810.69 34.8721L1816.05 34.4761L1816.45 21.9481L1826.75 21.4441L1823.83 49.2361L1815.44 50.2081L1815.91 42.2881L1812.17 42.8281L1811.81 51.0721L1802.81 51.2881ZM1829.44 51.1801V23.1721L1849.28 21.6961L1848.2 30.7681L1839.16 31.1641L1839.12 32.8921L1845.68 32.4241L1844.88 38.6881L1838.87 39.1921L1838.84 41.1721L1848.95 40.2001V50.1001L1829.44 51.1801ZM1852.5 51.1801V23.1721L1872.34 21.6961L1871.26 30.7681L1862.22 31.1641L1862.19 32.8921L1868.74 32.4241L1867.95 38.6881L1861.93 39.1921L1861.9 41.1721L1872.01 40.2001V50.1001L1852.5 51.1801ZM1912.66 26.7361L1906.4 34.4761C1904.1 32.0281 1902.4 31.1641 1901 31.1641C1897.76 31.1641 1896.72 35.7361 1896.72 37.1401C1896.72 37.2481 1896.72 37.3201 1896.75 37.3561C1896.72 37.3921 1896.72 37.5001 1896.72 37.6801C1896.72 39.0121 1897.26 42.3241 1900.14 42.3241C1901.68 42.3241 1903.81 41.3521 1906.98 38.4361L1914.03 45.8881C1912.48 48.8041 1906.18 52.2241 1899.88 52.2241C1897 52.2241 1894.23 51.5401 1891.93 49.7041C1887.79 46.5361 1886.31 42.5761 1886.31 38.5441C1886.31 31.8841 1890.6 25.1881 1894.81 22.4161C1895.35 22.0921 1895.92 21.7681 1896.61 21.5161C1897.76 21.0841 1899.34 20.6161 1901.25 20.6161C1904.56 20.6161 1908.67 21.9841 1912.66 26.7361ZM1944.17 19.9321L1951.19 28.2121L1941.19 37.5721L1950.04 44.9881L1945 52.5481L1937.95 45.9601V50.5321L1927.9 51.6481V22.7041L1938.38 21.4441V27.9241L1944.17 19.9321ZM1947.18 48.5881L1963.24 19.5721L1981.38 47.2201L1970.12 51.5041L1967.09 46.5001L1959.53 46.7161L1958.06 52.0801L1947.18 48.5881ZM1963.89 35.3401L1961.4 41.0281L1965.69 40.2721L1963.89 35.3401ZM1977.87 28.2121L1984.96 19.9321L1990.58 27.2761V22.7041L2001.06 21.4441V27.9241L2006.82 19.9321L2013.87 28.2121L2003.83 37.5721L2012.72 44.9881L2007.64 52.5481L2000.62 45.9601V50.5321L1990.58 51.6481V46.4641L1984.1 52.5481L1979.06 44.9881L1987.92 37.5721L1977.87 28.2121ZM2039.13 42.5401L2041.4 42.3241L2041.83 55.0681L2033.8 56.0041V51.2161L2020.16 50.6761L2020.3 55.9681L2012.06 54.7801L2013.07 43.0801H2013.72C2014.47 42.8281 2015.16 42.2521 2015.77 41.3521C2016.81 39.8041 2017.86 37.0321 2017.86 31.8481C2017.86 29.1121 2017.57 25.8001 2016.85 21.5881L2037.91 22.0561L2039.13 42.5401ZM2030.6 28.7521L2024.7 29.1481C2024.88 29.7241 2025.06 30.3361 2025.2 31.0201C2025.45 32.1721 2025.74 33.7561 2025.74 35.4841C2025.74 37.9681 2025.2 40.7761 2023.44 43.0801L2030.92 42.6481L2030.6 28.7521ZM2046.33 51.0361L2046 22.0561L2055.65 21.5521L2055.22 31.3441C2056.08 31.1641 2057.13 31.1641 2058.46 31.1641C2067.57 31.1641 2069.87 35.3041 2069.87 40.6321C2069.87 47.0041 2064.58 50.2801 2058.68 50.4601L2046.33 51.0361ZM2059.18 43.8721C2061.09 43.3321 2062.2 42.1441 2062.2 40.8841C2062.2 38.7601 2059.86 38.1841 2057.52 38.1841C2056.66 38.1841 2055.83 38.2921 2055.15 38.4001L2054.93 44.0161C2055.4 44.0881 2055.98 44.1241 2056.66 44.1241C2057.49 44.1241 2058.35 44.0521 2059.18 43.8721ZM2070.34 51.3961V22.4161L2078.15 21.7321V50.7121L2070.34 51.3961ZM2078.2 46.5721L2087.34 19.8601L2096.13 30.9841L2104.66 22.2001L2113.48 46.5001L2104.8 53.5561L2100.84 41.8561L2095.95 50.4241L2090.08 41.3521L2086.59 52.0081L2078.2 46.5721ZM2127.31 51.5041V21.3361L2146.25 22.8481L2145.85 32.9641L2136.96 31.5241L2137.43 50.3521L2127.31 51.5041ZM2174.29 20.6881V49.5961L2163.42 51.0361L2164.39 29.8681L2160.32 30.6961V42.8641C2160.32 48.7681 2157.12 51.8281 2152.08 51.8281H2150.39L2146.54 44.7721H2147.36C2149.49 44.7721 2150.64 43.9081 2150.64 41.7481L2151.4 22.5961L2174.29 20.6881ZM2200.27 48.0481C2197.78 50.5321 2193.5 52.2601 2189.22 52.2601C2184.64 52.2601 2180.07 50.3161 2177.88 45.3121C2176.76 43.0081 2176.33 40.7041 2176.33 38.4361C2176.33 30.2641 2182.63 23.2441 2190.69 21.1201C2191.88 20.8321 2193 20.7241 2194.11 20.7241C2199.01 20.7241 2202.68 23.4961 2203.94 25.9801C2205.2 28.4281 2205.96 31.3441 2205.96 34.4761C2205.96 38.9401 2204.41 43.8361 2200.27 48.0481ZM2195.48 32.7121C2194.8 31.2721 2193.54 30.6601 2192.1 30.6601C2188.96 30.6601 2185.11 33.7561 2185.11 38.8681C2185.11 42.4321 2186.84 43.8721 2188.96 43.8721C2190.94 43.8721 2193.1 42.6841 2194.26 40.8481C2195.66 38.6881 2196.09 36.9601 2196.09 35.4841C2196.09 34.3681 2195.88 33.4321 2195.48 32.7121ZM2226.34 21.0121L2225.37 29.6161L2221.09 30.0841V50.3521L2210.83 51.6481L2211.4 31.0921L2206.69 31.5241L2206.9 22.7041L2226.34 21.0121ZM2244.81 19.9321L2251.83 28.2121L2241.83 37.5721L2250.68 44.9881L2245.64 52.5481L2238.59 45.9601V50.5321L2228.54 51.6481V22.7041L2239.02 21.4441V27.9241L2244.81 19.9321ZM2275.01 48.0481C2272.52 50.5321 2268.24 52.2601 2263.95 52.2601C2259.38 52.2601 2254.81 50.3161 2252.61 45.3121C2251.5 43.0081 2251.07 40.7041 2251.07 38.4361C2251.07 30.2641 2257.37 23.2441 2265.43 21.1201C2266.62 20.8321 2267.73 20.7241 2268.85 20.7241C2273.75 20.7241 2277.42 23.4961 2278.68 25.9801C2279.94 28.4281 2280.69 31.3441 2280.69 34.4761C2280.69 38.9401 2279.15 43.8361 2275.01 48.0481ZM2270.22 32.7121C2269.53 31.2721 2268.27 30.6601 2266.83 30.6601C2263.7 30.6601 2259.85 33.7561 2259.85 38.8681C2259.85 42.4321 2261.58 43.8721 2263.7 43.8721C2265.68 43.8721 2267.84 42.6841 2268.99 40.8481C2270.4 38.6881 2270.83 36.9601 2270.83 35.4841C2270.83 34.3681 2270.61 33.4321 2270.22 32.7121ZM2278.47 46.5721L2287.61 19.8601L2296.4 30.9841L2304.93 22.2001L2313.75 46.5001L2305.07 53.5561L2301.11 41.8561L2296.22 50.4241L2290.35 41.3521L2286.86 52.0081L2278.47 46.5721Z" fill="#FFCC00"/>
<path d="M2298 38L2317 10L2349 62.2674L2378.5 10L2411.5 62.2674L2437.5 10L2476.5 62.2674L2504 10L2530.5 62.2674L2555 10L2580 62.2674L2609 10L2634.5 62.2674L2665.5 10L2689 58L2714.5 10L2740.5 62.2674L2767 10L2793.5 62.2674L2815.93 10L2845.57 62.2674L2871.79 10L2899.17 62.2674L2925.56 10L2952.29 62.2674L2976.55 10L2999.88 62.2674L3021.29 10L3049.02 62.2674L3073.07 10L3096.8 62.2674L3118.28 10L3144 62L3161.5 10L3193.5 62.2674L3223 10L3256 62.2674L3282 10L3321 62.2674L3348.5 10L3375 62.2674L3399.5 10L3424.5 62.2674L3453.5 10L3479 62.2674L3510 10L3533.5 58L3559 10L3585 62.2674L3611.5 10L3638 62.2674L3660.43 10L3690.07 62.2674L3716.29 10L3743.67 62.2674L3770.06 10L3796.79 62.2674L3821.05 10L3844.38 62.2674L3865.79 10L3893.52 62.2674L3917.57 10L3941.3 62.2674L3962.78 10L3986.5 43.7674" stroke="#FFCC00" stroke-width="8"/>
<path d="M4 38L23 10L55 62.2674L84.5 10L117.5 62.2674L143.5 10L182.5 62.2674L210 10L236.5 62.2674L261 10L286 62.2674L315 10L340.5 62.2674L371.5 10L395 58L420.5 10L446.5 62.2674L473 10L499.5 62.2674L521.932 10L551.571 62.2674L577.791 10L605.17 62.2674L631.563 10L658.294 62.2674L682.55 10L705.877 62.2674L727.291 10L755.021 62.2674L779.067 10L802.798 62.2674L824.283 10L850 62L867.5 10L899.5 62.2674L929 10L962 62.2674L988 10L1027 62.2674L1054.5 10L1081 62.2674L1105.5 10L1130.5 62.2674L1159.5 10L1185 62.2674L1216 10L1239.5 58L1265 10L1291 62.2674L1317.5 10L1344 62.2674L1366.43 10L1396.07 62.2674L1422.29 10L1449.67 62.2674L1476.06 10L1502.79 62.2674L1527.05 10L1550.38 62.2674L1571.79 10L1599.52 62.2674L1623.57 10L1647.3 62.2674L1668.78 10L1692.5 43.7674" stroke="#FFCC00" stroke-width="8"/>
</svg>
