<svg width="852" height="73" viewBox="0 0 852 73" fill="none" xmlns="http://www.w3.org/2000/svg">
<path d="M848 43.7674L824.283 10L802.798 62.2674L779.067 10L755.021 62.2674L727.291 10L705.877 62.2674L682.55 10L658.294 62.2674L631.563 10L605.17 62.2674L577.791 10L551.571 62.2674L521.932 10L499.5 62.2674L473 10L446.5 62.2674L420.5 10L395 58L371.5 10L340.5 62.2674L315 10L286 62.2674L261 10L236.5 62.2674L210 10L182.5 62.2674L143.5 10L117.5 62.2674L84.5 10L55 62.2674L23 10L4 38" stroke="#FFCC00" stroke-width="8"/>
</svg>
