<svg width="6452" height="74" viewBox="0 0 6452 74" fill="none" xmlns="http://www.w3.org/2000/svg">
<path d="M6448 40.5L6429.5 11L6397.5 63.2674L6368 11L6335 63.2674L6309 11L6270 63.2674L6242.5 11L6216 63.2674L6191.5 11L6166.5 63.2674L6137.5 11L6112 63.2674L6081 11L6057.5 59L6032 11L6006 63.2674L5979.5 11L5953 63.2674L5930.57 11L5900.93 63.2674L5874.71 11L5847.33 63.2674L5820.94 11L5794.21 63.2674L5769.95 11L5746.62 63.2674L5725.21 11L5697.48 63.2674L5673.43 11L5649.7 63.2674L5628.5 11L5607.8 63.2674L5584.07 11L5560.02 63.2674L5532.29 11L5510.88 63.2674L5487.55 11L5463.29 63.2674L5436.56 11L5410.17 63.2674L5382.79 11L5356.57 63.2674L5326.93 11L5304.5 63.2674L5278 11L5251.5 63.2674L5225.5 11L5200 59L5176.5 11L5145.5 63.2674L5120 11L5091 63.2674L5066 11L5041.5 63.2674L5015 11L4987.5 63.2674L4948.5 11L4922.5 63.2674L4889.5 11L4860 63.2674L4827.5 11L4795.5 63.2674L4766 11L4733 63.2674L4707 11L4668 63.2674L4640.5 11L4614 63.2674L4589.5 11L4564.5 63.2674L4535.5 11L4510 63.2674L4479 11L4455.5 59L4430 11L4404 63.2674L4377.5 11L4351 63.2674L4328.57 11L4298.93 63.2674L4272.71 11L4245.33 63.2674L4218.94 11L4192.21 63.2674L4167.95 11L4144.62 63.2674L4123.21 11L4095.48 63.2674L4071.43 11L4047.7 63.2674L4026.5 11L4005.8 63.2674L3982.07 11L3958.02 63.2674L3930.29 11L3908.88 63.2674L3885.55 11L3861.29 63.2674L3834.56 11L3808.17 63.2674L3780.79 11L3754.57 63.2674L3724.93 11L3702.5 63.2674L3676 11L3649.5 63.2674L3623.5 11L3598 59L3574.5 11L3543.5 63.2674L3518 11L3489 63.2674L3464 11L3439.5 63.2674L3413 11L3385.5 63.2674L3346.5 11L3320.5 63.2674L3287.5 11L3258 63.2674L3226 11L3194 63.2674L3164.5 11L3131.5 63.2674L3105.5 11L3066.5 63.2674L3039 11L3012.5 63.2674L2988 11L2963 63.2674L2934 11L2908.5 63.2674L2877.5 11L2854 59L2828.5 11L2802.5 63.2674L2776 11L2749.5 63.2674L2727.07 11L2697.43 63.2674L2671.21 11L2643.83 63.2674L2617.44 11L2590.71 63.2674L2566.45 11L2543.12 63.2674L2521.71 11L2493.98 63.2674L2469.93 11L2446.2 63.2674L2425 11L2404.3 63.2674L2380.57 11L2356.52 63.2674L2328.79 11L2307.38 63.2674L2284.05 11L2259.79 63.2674L2233.06 11L2206.67 63.2674L2179.29 11L2153.07 63.2674L2123.43 11L2101 63.2674L2074.5 11L2048 63.2674L2022 11L1996.5 59L1973 11L1942 63.2674L1916.5 11L1887.5 63.2674L1862.5 11L1838 63.2674L1811.5 11L1784 63.2674L1745 11L1719 63.2674L1686 11L1656.5 63.2674L1624 11L1592 63.2674L1562.5 11L1529.5 63.2674L1503.5 11L1464.5 63.2674L1437 11L1410.5 63.2674L1386 11L1361 63.2674L1332 11L1306.5 63.2674L1275.5 11L1252 59L1226.5 11L1200.5 63.2674L1174 11L1147.5 63.2674L1125.07 11L1095.43 63.2674L1069.21 11L1041.83 63.2674L1015.44 11L988.706 63.2674L964.45 11L941.123 63.2674L919.709 11L891.979 63.2674L867.933 11L844.202 63.2674L823 11L802.298 63.2674L778.567 11L754.521 63.2674L726.791 11L705.377 63.2674L682.05 11L657.794 63.2674L631.063 11L604.67 63.2674L577.291 11L551.071 63.2674L521.432 11L499 63.2674L472.5 11L446 63.2674L420 11L394.5 59L371 11L340 63.2674L314.5 11L285.5 63.2674L260.5 11L236 63.2674L209.5 11L182 63.2674L143 11L117 63.2674L84 11L54.5 63.2674L22.5 11L4 40.5" stroke="#001EFF" stroke-width="8"/>
</svg>
