<?xml version="1.0" encoding="UTF-8"?>
<svg id="Layer_1" data-name="Layer 1" xmlns="http://www.w3.org/2000/svg" viewBox="0 0 725.61 732.12">
  <defs>
    <style>
      .cls-1 {
        fill: #fc0;
      }

      .cls-2 {
        fill: #001eff;
      }

      .cls-3 {
        fill: #fff;
      }

      .cls-4 {
        fill: red;
      }
    </style>
  </defs>
  <polygon class="cls-2" points="268.46 0 272.18 198.32 116.69 133.76 200.18 255.11 37.55 257.59 159.52 338.91 22.35 395.7 162.94 423.01 0 571.98 249.21 495.01 227.49 701.4 349.46 545.6 419.91 732.12 453.74 556.77 601.78 667.26 531.64 482.29 680.61 489.74 568.57 384.84 725.61 309.11 562.67 281.8 672.85 138.73 477.97 212.27 492.12 44.11 382.59 180.01 268.46 0"/>
  <polygon class="cls-4" points="298.04 116.13 301.8 245.13 201.29 203.21 251.55 290.28 137.87 294.58 228.17 351.55 127.66 389.17 231.93 409.6 109.92 512.79 288.36 456.9 267.4 602.55 360.73 490.22 411.98 615.99 432.41 499.89 528.62 579.98 481.32 448.3 584.51 456.36 508.73 381.65 615.69 329.51 498.04 310.19 578.06 211.27 442.59 263.96 452.83 146.23 375.84 241.24 298.04 116.13"/>
  <polygon class="cls-1" points="321.18 206 318.24 286.33 261.37 258.18 294.21 312.12 222.09 316.81 277.79 354.92 219.16 385.41 277.79 396.55 207.43 459.28 314.14 418.83 304.76 505.6 361.04 432.31 399.74 526.12 406.19 444.04 465.41 500.91 434.92 414.14 498.82 415.31 455.44 378.74 518.17 337.92 451.33 327.95 495.89 265.22 410.29 301.57 417.92 225.35 367.49 284.57 321.18 206"/>
  <polygon class="cls-3" points="338.78 273.42 335.51 317.52 311.56 305 325.17 330.04 278.36 332.76 314.28 356.16 278.36 375.21 316.46 383.92 292.51 406.79 334.97 391 330.07 442.71 365.45 396.99 386.68 448.7 391.58 402.98 420.97 432.91 409 395.9 449.28 395.36 420.97 374.67 461.25 350.18 412.81 344.73 440.57 308.81 391.03 330.04 392.67 282.13 363.27 318.6 338.78 273.42"/>
</svg>